<svg xmlns="http://www.w3.org/2000/svg" xmlns:xlink="http://www.w3.org/1999/xlink" viewBox="0 0 729.42 513.5"><defs><style>.cls-1{filter:url(#luminosity-noclip);}.cls-2{filter:url(#luminosity-noclip-2);}.cls-3,.cls-36,.cls-6{fill:none;}.cls-4{fill:#99f2f0;}.cls-5{fill:#fed8e7;}.cls-10,.cls-12,.cls-21,.cls-26,.cls-29,.cls-30,.cls-31,.cls-32,.cls-33,.cls-36,.cls-37,.cls-38,.cls-39,.cls-42,.cls-43,.cls-44,.cls-6,.cls-7,.cls-9{stroke:#000;stroke-miterlimit:10;}.cls-10,.cls-12,.cls-21,.cls-26,.cls-31,.cls-39,.cls-44,.cls-6,.cls-7,.cls-9{stroke-width:4px;}.cls-44,.cls-7{fill:#fa7db0;}.cls-8{opacity:0.33;}.cls-28,.cls-9{fill:#01a9a0;}.cls-10,.cls-39,.cls-40,.cls-42{fill:#00e3dd;}.cls-11{opacity:0.2;}.cls-12,.cls-25{fill:#354e5a;}.cls-13{mask:url(#mask);}.cls-14{font-size:10.53px;}.cls-14,.cls-15,.cls-19,.cls-24,.cls-34{fill:#fff;}.cls-14,.cls-15{font-family:Montserrat-ExtraBold, Montserrat;font-weight:800;}.cls-15{font-size:5.5px;}.cls-16{mask:url(#mask-2);}.cls-17{fill:#00abff;}.cls-18{fill:#ff2781;}.cls-20{fill:#1b282d;opacity:0.57;}.cls-21,.cls-43{fill:#cddde8;}.cls-22{fill:#a3b2b9;}.cls-23{fill:#e6ecf3;}.cls-24{opacity:0.5;}.cls-26{fill:#cc658d;}.cls-27{fill:#4b606b;}.cls-29,.cls-33{fill:#f24461;}.cls-29,.cls-30,.cls-42{stroke-width:3px;}.cls-30,.cls-31,.cls-32{fill:#fdd666;}.cls-32,.cls-33,.cls-37,.cls-38,.cls-43{stroke-width:2px;}.cls-34{opacity:0.6;}.cls-35{clip-path:url(#clip-path);}.cls-37,.cls-38{fill:#acbac3;}.cls-38,.cls-39,.cls-42,.cls-44{stroke-linecap:round;}.cls-41{opacity:0.37;}.cls-45{opacity:0.15;}</style><filter id="luminosity-noclip" x="320.88" y="85.23" width="71.01" height="27.08" filterUnits="userSpaceOnUse" color-interpolation-filters="sRGB"><feFlood flood-color="#fff" result="bg"/><feBlend in="SourceGraphic" in2="bg"/></filter><mask id="mask" x="320.88" y="85.23" width="71.01" height="27.08" maskUnits="userSpaceOnUse"><rect class="cls-1" x="320.88" y="85.23" width="71.01" height="19.27"/></mask><filter id="luminosity-noclip-2" x="321.6" y="100.17" width="71.01" height="13.78" filterUnits="userSpaceOnUse" color-interpolation-filters="sRGB"><feFlood flood-color="#fff" result="bg"/><feBlend in="SourceGraphic" in2="bg"/></filter><mask id="mask-2" x="321.6" y="100.17" width="71.01" height="13.78" maskUnits="userSpaceOnUse"><rect class="cls-2" x="321.6" y="104.13" width="71.01" height="9.82"/></mask><clipPath id="clip-path"><ellipse class="cls-3" cx="363.11" cy="266.41" rx="25.97" ry="13.32"/></clipPath></defs><g id="Layer_2" data-name="Layer 2"><g id="Layer_2-2" data-name="Layer 2"><path class="cls-4" d="M473,4.66v4A7.33,7.33,0,0,1,465.67,16H260.54a7.33,7.33,0,0,1-7.33-7.33v-4Z"/><path class="cls-5" d="M250.55,2.67v6a6,6,0,0,1-12,0v-6a.66.66,0,0,1,.67-.67h10.65A.66.66,0,0,1,250.55,2.67Z"/><path class="cls-5" d="M487.65,2.67v6a6,6,0,0,1-12,0v-6a.66.66,0,0,1,.67-.67H487A.66.66,0,0,1,487.65,2.67Z"/><path class="cls-6" d="M628.85,499.51H560.16a9.9,9.9,0,0,1-9.9-9.9V473.45a9.91,9.91,0,0,0-9.91-9.9H471.67"/><rect class="cls-7" x="243.89" y="51.28" width="238.43" height="181.82" rx="1.35"/><path class="cls-8" d="M243.89,58.54V99c0,.5.29.88.67.88h10.65c.38,0,.67-.38.67-.88V58.54a9.3,9.3,0,0,0-1.76-5.6,5.34,5.34,0,0,0-4.24-2.32C246.57,50.62,243.89,54.16,243.89,58.54Z"/><path class="cls-8" d="M470.33,58.54V99c0,.5.3.88.67.88h10.66c.37,0,.66-.38.66-.88V58.54a9.23,9.23,0,0,0-1.76-5.6,5.32,5.32,0,0,0-4.23-2.32C473,50.62,470.33,54.16,470.33,58.54Z"/><rect class="cls-9" x="258.54" y="51.28" width="209.13" height="181.82" rx="1.35"/><rect class="cls-9" x="258.54" y="51.28" width="209.13" height="181.82" rx="1.8"/><rect class="cls-7" x="237.23" y="281.73" width="251.75" height="229.77" rx="1.35"/><rect class="cls-10" x="252.7" y="281.73" width="220.81" height="229.77" rx="1.35"/><rect class="cls-11" x="236.56" y="283.06" width="253.08" height="55.95" rx="9.44"/><path class="cls-12" d="M297.72,196.11a679.44,679.44,0,0,0,130.31,0,18.2,18.2,0,0,0,16.39-17.4q1.66-42.7,0-84.52a17.71,17.71,0,0,0-15.1-16.74c-43.42-6.52-87.67-6.28-132.7.2A17.66,17.66,0,0,0,281.4,93.88a643,643,0,0,0,0,85.35A18.15,18.15,0,0,0,297.72,196.11Z"/><path class="cls-12" d="M444.41,178.76A18.17,18.17,0,0,1,428,196.16a681.06,681.06,0,0,1-130.31,0,18.19,18.19,0,0,1-16.36-16.89q-1-15.61-1.28-31.08-.49-27.32,1.32-54.27A17.64,17.64,0,0,1,296.6,77.7c42.76-6.15,84.84-6.69,126.15-1.13,2.19.29,4.36.6,6.55.93a17.69,17.69,0,0,1,15.09,16.73Q446.13,136.05,444.41,178.76Z"/><g class="cls-13"><text class="cls-14" transform="translate(337.11 109.48)">ERROR</text></g><text class="cls-15" transform="translate(328.98 169.08)">PAGE NOT FOUND</text><g class="cls-16"><text class="cls-14" transform="translate(337.83 109.12)">ERROR</text></g><rect class="cls-17" x="326.18" y="96.82" width="3.79" height="3.79"/><rect class="cls-18" x="326.86" y="97.5" width="3.79" height="3.79"/><rect class="cls-17" x="382.65" y="176.07" width="3.79" height="3.79"/><rect class="cls-18" x="383.33" y="176.75" width="3.79" height="3.79"/><rect class="cls-17" x="402.76" y="99.05" width="3.79" height="3.79"/><rect class="cls-18" x="403.43" y="99.73" width="3.79" height="3.79"/><rect class="cls-17" x="300.72" y="158.05" width="3.79" height="3.79"/><rect class="cls-18" x="301.4" y="158.73" width="3.79" height="3.79"/><rect class="cls-17" x="399.25" y="159.95" width="3.79" height="3.79"/><rect class="cls-18" x="399.93" y="160.63" width="3.79" height="3.79"/><rect class="cls-17" x="389.23" y="109.55" width="4.51" height="4.51"/><rect class="cls-18" x="390.04" y="110.36" width="4.51" height="4.51"/><rect class="cls-17" x="339.05" y="172.69" width="4.51" height="4.51"/><rect class="cls-18" x="339.86" y="173.5" width="4.51" height="4.51"/><rect class="cls-17" x="356.21" y="85.29" width="4.51" height="4.51"/><rect class="cls-18" x="357.02" y="86.1" width="4.51" height="4.51"/><rect class="cls-17" x="371.51" y="93.92" width="2.02" height="2.02"/><rect class="cls-18" x="371.87" y="94.28" width="2.02" height="2.02"/><rect class="cls-17" x="365.69" y="181.68" width="2.02" height="2.02"/><rect class="cls-18" x="366.05" y="182.05" width="2.02" height="2.02"/><rect class="cls-17" x="315.67" y="173.75" width="2.02" height="2.02"/><rect class="cls-18" x="316.03" y="174.12" width="2.02" height="2.02"/><rect class="cls-17" x="386.87" y="154.83" width="2.02" height="2.02"/><rect class="cls-18" x="387.23" y="155.19" width="2.02" height="2.02"/><rect class="cls-17" x="308.95" y="111.43" width="2.02" height="2.02"/><rect class="cls-18" x="309.31" y="111.79" width="2.02" height="2.02"/><rect class="cls-17" x="320.23" y="162.54" width="2.02" height="2.02"/><rect class="cls-18" x="320.59" y="162.9" width="2.02" height="2.02"/><path class="cls-19" d="M302,147.8l7.84-7.9a13.82,13.82,0,0,0,9.75,4.09c3.8,0,6-2,6-4.67,0-2-1.5-3.52-4.61-3.52a10,10,0,0,0-5.94,2.08l-6.86-4.27,6.46-20h28.83l-2.89,10.67H321.74l-1.39,4.27a17,17,0,0,1,6.17-1.1c7.5,0,12.34,4.21,12.34,10.9,0,9.68-7.61,16.43-19.2,16.43A26.12,26.12,0,0,1,302,147.8Z"/><path class="cls-19" d="M341.52,139c0-13.83,9.63-26.17,23-26.17,10.66,0,16.6,7.43,16.6,16,0,13.84-9.63,26.18-23,26.18C347.46,155,341.52,147.51,341.52,139Zm26.06-9c0-3.81-1.9-5.48-4.27-5.48-5.18,0-8.24,7.55-8.24,13.26,0,3.81,1.9,5.48,4.27,5.48C364.53,143.24,367.58,135.69,367.58,130Z"/><path class="cls-19" d="M378,147.05l8.59-7.67a10.43,10.43,0,0,0,8.36,4.38c3.69,0,5.94-1.9,5.94-3.92,0-1.62-1.1-2.65-4.79-2.65h-5.13l-.17-6,10.78-7h-15l2.82-10.49h31l-2.54,9.28-11.71,7.33c5.13,1.55,7.84,5.19,7.84,9.57,0,9.46-7.38,15-18.68,15C388.06,154.89,382,152.35,378,147.05Z"/><path class="cls-8" d="M467.67,53.08v47.86c-27.57,20.9-64,33.6-103.9,33.6-40.56,0-77.51-13.11-105.23-34.61V53.08a1.79,1.79,0,0,1,1.8-1.8H465.87A1.79,1.79,0,0,1,467.67,53.08Z"/><path class="cls-20" d="M444.41,178.76A18.17,18.17,0,0,1,428,196.16a681.06,681.06,0,0,1-130.31,0,18.18,18.18,0,0,1-15.49-12.41,17.58,17.58,0,0,0,6.16,1.75,680.35,680.35,0,0,0,130.32,0,18.18,18.18,0,0,0,16.38-17.4q1.68-42.69,0-84.53a17.56,17.56,0,0,0-.78-4.55,17.66,17.66,0,0,1,10.11,15.21Q446.13,136.05,444.41,178.76Z"/><rect class="cls-21" x="317.15" y="348.99" width="91.91" height="94.57" rx="9.22"/><path class="cls-22" d="M409.06,361.27v10.66a12.28,12.28,0,0,0-12.28-12.28H329.43a12.28,12.28,0,0,0-12.28,12.28V361.27A12.28,12.28,0,0,1,329.43,349h67.35A12.28,12.28,0,0,1,409.06,361.27Z"/><rect class="cls-10" x="227.91" y="242.44" width="270.4" height="45.16" rx="1.35"/><path class="cls-23" d="M409.06,394.33v37a12.28,12.28,0,0,1-12.28,12.28H340.42C370,430.91,393.64,414.93,409.06,394.33Z"/><rect class="cls-7" x="480.99" y="242.3" width="17.32" height="50.61" rx="0.5"/><rect class="cls-24" x="480.99" y="239.63" width="17.32" height="18.78" rx="6.3"/><rect class="cls-10" x="238.56" y="2" width="249.09" height="55.28" rx="1.35"/><rect class="cls-10" x="238.56" y="2" width="249.09" height="55.28" rx="1.8"/><rect class="cls-25" x="267.87" y="11.99" width="189.15" height="35.3" rx="4.86"/><rect class="cls-25" x="267.87" y="11.99" width="189.15" height="35.3" rx="4.86"/><rect class="cls-7" x="238.56" y="2" width="11.99" height="61.94" rx="0.5"/><rect class="cls-7" x="238.56" y="2" width="11.99" height="61.94" rx="0.67"/><path class="cls-8" d="M250.55,46V63.27a.66.66,0,0,1-.67.67H239.23a.66.66,0,0,1-.67-.67V46a6,6,0,1,1,12,0Z"/><rect class="cls-6" x="238.56" y="2" width="11.99" height="61.94" rx="0.5"/><rect class="cls-7" x="475.66" y="2" width="11.99" height="61.94" rx="0.5"/><path class="cls-10" d="M241.58,225.11H484.64a.32.32,0,0,1,.27.16l10.42,16.66a.32.32,0,0,1-.27.5H229.83a.33.33,0,0,1-.28-.5l11.75-16.66A.32.32,0,0,1,241.58,225.11Z"/><path class="cls-26" d="M496.66,242.43H481l-11.26-18.6,0-.05h15.64L497.92,240A1.54,1.54,0,0,1,496.66,242.43Z"/><path class="cls-26" d="M230.18,242.43h13.71l13.26-18.65h-15.7L228.92,240A1.54,1.54,0,0,0,230.18,242.43Z"/><rect class="cls-7" x="227.91" y="242.44" width="17.32" height="50.61" rx="0.5"/><path class="cls-27" d="M395.74,12c-66.6,1.33-94.41,19.65-99.09,35.3H274.34a6.47,6.47,0,0,1-6.47-6.47V18.46A6.47,6.47,0,0,1,274.34,12Z"/><path class="cls-27" d="M422.75,76.57c-91.23,12.9-133.12,43.86-142.67,71.58q-.49-27.32,1.32-54.27A17.64,17.64,0,0,1,296.6,77.7C339.36,71.55,381.44,71,422.75,76.57Z"/><path class="cls-20" d="M457,18.46V40.82a6.47,6.47,0,0,1-6.47,6.47H274.34A6.49,6.49,0,0,1,268,42H443.88a6.47,6.47,0,0,0,6.47-6.47V13.14a7.23,7.23,0,0,0-.1-1.15h.29A6.47,6.47,0,0,1,457,18.46Z"/><rect class="cls-6" x="267.87" y="11.99" width="189.15" height="35.3" rx="4.86"/><path class="cls-6" d="M297.72,196.11a679.44,679.44,0,0,0,130.31,0,18.2,18.2,0,0,0,16.39-17.4q1.66-42.7,0-84.52a17.71,17.71,0,0,0-15.1-16.74c-43.42-6.52-87.67-6.28-132.7.2A17.66,17.66,0,0,0,281.4,93.88a643,643,0,0,0,0,85.35A18.15,18.15,0,0,0,297.72,196.11Z"/><rect class="cls-7" x="475.66" y="2" width="11.99" height="61.94" rx="0.67"/><path class="cls-8" d="M487.65,46V63.27a.66.66,0,0,1-.66.67H476.33a.66.66,0,0,1-.67-.67V46a6,6,0,1,1,12,0Z"/><rect class="cls-6" x="475.66" y="2" width="11.99" height="61.94" rx="0.5"/><circle cx="453.68" cy="209.8" r="2"/><path class="cls-28" d="M478.33,284.39v-3.76a4.79,4.79,0,0,0-4.67-4.9H252.55a4.79,4.79,0,0,0-4.66,4.9v3.76Z"/><circle cx="272.53" cy="209.8" r="2"/><circle cx="467" cy="276.4" r="2"/><circle cx="259.21" cy="276.4" r="2"/><circle cx="453.68" cy="71.27" r="2"/><circle cx="272.53" cy="71.27" r="2"/><circle class="cls-29" cx="431.71" cy="220.79" r="6.33"/><path class="cls-28" d="M467.67,227.78v3.75a4.79,4.79,0,0,1-4.66,4.91H263.21a4.8,4.8,0,0,1-4.67-4.91v-3.75Z"/><circle class="cls-30" cx="295.84" cy="219.45" r="6.33"/><line class="cls-31" x1="431.71" y1="227.11" x2="431.71" y2="244.24"/><line class="cls-31" x1="295.84" y1="227.11" x2="295.84" y2="244.24"/><path class="cls-32" d="M317.9,233.11h14.48a3.41,3.41,0,0,1,3.41,3.41v7.24a0,0,0,0,1,0,0H314.49a0,0,0,0,1,0,0v-7.24A3.41,3.41,0,0,1,317.9,233.11Z"/><path class="cls-33" d="M395.16,233.11h14.48a3.41,3.41,0,0,1,3.41,3.41v7.24a0,0,0,0,1,0,0H391.75a0,0,0,0,1,0,0v-7.24A3.41,3.41,0,0,1,395.16,233.11Z"/><rect class="cls-6" x="480.99" y="242.3" width="17.32" height="50.61" rx="0.5"/><rect class="cls-24" x="227.91" y="239.63" width="17.32" height="18.78" rx="6.5"/><rect class="cls-6" x="227.91" y="242.3" width="17.32" height="50.61" rx="0.5"/><rect class="cls-34" x="247.89" y="245.09" width="230.44" height="6.66"/><circle cx="467" cy="253.75" r="2"/><circle cx="396.41" cy="433.58" r="2"/><circle cx="396.41" cy="360.32" r="2"/><circle cx="328.47" cy="433.58" r="2"/><circle cx="328.47" cy="360.32" r="2"/><circle cx="259.21" cy="253.75" r="2"/><g class="cls-35"><line class="cls-36" x1="378.04" y1="250.42" x2="378.04" y2="281.06"/><line class="cls-36" x1="384.42" y1="250.42" x2="384.42" y2="281.06"/><line class="cls-36" x1="339.8" y1="250.42" x2="339.8" y2="281.06"/><line class="cls-36" x1="358.92" y1="250.42" x2="358.92" y2="281.06"/><line class="cls-36" x1="371.67" y1="250.42" x2="371.67" y2="281.06"/><line class="cls-36" x1="365.29" y1="250.42" x2="365.29" y2="281.06"/><line class="cls-36" x1="346.17" y1="250.42" x2="346.17" y2="281.06"/><line class="cls-36" x1="352.55" y1="250.42" x2="352.55" y2="281.06"/></g><rect class="cls-37" x="370.8" y="362.54" width="15.98" height="46.62" rx="1.8"/><line class="cls-38" x1="378.79" y1="366.96" x2="378.79" y2="382.1"/><line class="cls-38" x1="381.46" y1="389.18" x2="376.13" y2="389.18"/><circle cx="378.79" cy="395.84" r="2.66"/><rect class="cls-33" x="370.8" y="415.82" width="15.98" height="9.32" rx="2.14"/><rect class="cls-37" x="338.83" y="362.54" width="15.98" height="46.62" rx="1.8"/><line class="cls-38" x1="346.82" y1="366.96" x2="346.82" y2="382.1"/><line class="cls-38" x1="349.49" y1="389.18" x2="344.16" y2="389.18"/><circle cx="346.82" cy="395.84" r="2.66"/><rect class="cls-32" x="338.83" y="415.82" width="15.98" height="9.32" rx="2.14"/><rect class="cls-6" x="317.15" y="348.99" width="91.91" height="94.57" rx="9.22"/><line class="cls-39" x1="328.47" y1="456.63" x2="397.07" y2="456.63"/><line class="cls-40" x1="328.47" y1="460.63" x2="397.07" y2="460.63"/><path class="cls-41" d="M397.07,460.88h-68.6a2.67,2.67,0,0,1,0-5.33h68.6a2.67,2.67,0,1,1,0,5.33Z"/><path class="cls-41" d="M397.07,474.2h-68.6a2.66,2.66,0,0,1,0-5.32h68.6a2.66,2.66,0,1,1,0,5.32Z"/><path class="cls-41" d="M397.07,487.52h-68.6a2.66,2.66,0,0,1,0-5.32h68.6a2.66,2.66,0,1,1,0,5.32Z"/><line class="cls-39" x1="328.47" y1="469.95" x2="397.07" y2="469.95"/><line class="cls-39" x1="328.47" y1="483.27" x2="397.07" y2="483.27"/><line class="cls-42" x1="291.84" y1="511.5" x2="291.84" y2="484.86"/><line class="cls-42" x1="432.37" y1="288.39" x2="432.37" y2="301.71"/><line class="cls-42" x1="432.37" y1="307.03" x2="432.37" y2="311.03"/><line class="cls-42" x1="283.06" y1="511.5" x2="283.06" y2="498.18"/><rect class="cls-21" x="617.52" y="373.14" width="51.95" height="51.95" rx="4.15"/><rect class="cls-21" x="633.51" y="389.12" width="19.98" height="19.98" rx="1.1"/><circle cx="660.81" cy="416.43" r="2"/><circle cx="626.18" cy="416.43" r="2"/><circle cx="660.81" cy="381.79" r="2"/><circle cx="626.18" cy="381.79" r="2"/><rect class="cls-43" x="646.83" y="397.28" width="1.33" height="3.66" rx="0.5" transform="translate(1294.99 798.22) rotate(180)"/><rect class="cls-43" x="638.84" y="397.28" width="1.33" height="3.66" rx="0.5" transform="translate(1279 798.22) rotate(180)"/><rect class="cls-12" x="630.18" y="495.1" width="23.98" height="7.49" rx="1.68"/><rect class="cls-6" x="636.84" y="490.19" width="10.66" height="4.41" rx="1.66"/><rect class="cls-43" x="641.5" y="479.53" width="1.33" height="8.41" rx="0.5" transform="translate(1284.33 967.47) rotate(180)"/><line class="cls-44" x1="481.53" y1="511.5" x2="671.47" y2="511.5"/><line class="cls-44" x1="697.32" y1="511.5" x2="727.42" y2="511.5"/><line class="cls-44" x1="681.33" y1="511.5" x2="688.79" y2="511.5"/><line class="cls-44" x1="17.98" y1="511.5" x2="48.08" y2="511.5"/><line class="cls-44" x1="2" y1="511.5" x2="9.45" y2="511.5"/><line class="cls-44" x1="59.28" y1="511.5" x2="249.22" y2="511.5"/><g class="cls-45"><rect class="cls-6" x="81.38" y="54.62" width="62.61" height="27.97" rx="0.64"/><rect class="cls-6" x="46.75" y="82.59" width="62.61" height="27.97" rx="0.64"/><rect class="cls-6" x="109.36" y="82.59" width="62.61" height="27.97" rx="0.64"/></g><g class="cls-45"><rect class="cls-6" x="590.22" y="227.78" width="62.61" height="27.97" rx="0.64"/><rect class="cls-6" x="555.58" y="255.75" width="62.61" height="27.97" rx="0.64"/><rect class="cls-6" x="618.19" y="255.75" width="62.61" height="27.97" rx="0.64"/></g><g class="cls-45"><rect class="cls-6" x="81.38" y="227.78" width="62.61" height="27.97" rx="0.64"/><rect class="cls-6" x="109.36" y="255.75" width="62.61" height="27.97" rx="0.64"/></g><g class="cls-45"><rect class="cls-6" x="555.58" y="57.28" width="62.61" height="27.97" rx="0.64" transform="translate(1173.77 142.53) rotate(180)"/><rect class="cls-6" x="527.61" y="85.25" width="62.61" height="27.97" rx="0.64" transform="translate(1117.83 198.48) rotate(180)"/></g><polygon class="cls-32" points="654.27 404 691.01 404 691.01 385.94 720.66 356.28 679.77 379.21 676.22 393.94 654.27 404"/><polygon class="cls-32" points="635.66 393 598.93 393 591.93 380 569.27 345.28 606.93 380 611.93 371 635.66 393"/></g></g></svg>