<svg xmlns="http://www.w3.org/2000/svg" xmlns:xlink="http://www.w3.org/1999/xlink" width="66" height="86.238" viewBox="0 0 66 86.238"><defs><clipPath id="a"><rect width="51.244" height="86.238" fill="none"/></clipPath></defs><rect width="66" height="66" rx="16" transform="translate(0 20.238)" fill="#3d42df"/><g transform="translate(7.323)" clip-path="url(#a)"><path d="M19.522,53.785a17.967,17.967,0,0,0,2.855,3.186c3.479,3.542,9.264,4.3,8.952,12.673-.11,2.952-3.239,6.628-2.356,9.447,1.67,5.333,8.5,8.33,13.554,5.951a3.833,3.833,0,0,0,1.549-1.163,4.02,4.02,0,0,0,.6-1.955c.53-5.313-2.241-10.924-.19-15.854.557-1.337,1.437-2.512,2.114-3.793,2.517-4.759,2.044-10.485,1.384-15.828-.242-1.961-.545-4.029-1.784-5.568-1.354-1.681-3.56-2.4-5.672-2.847-3.935-.834-15.048-2.714-17.1,1.8-.884,1.951.492,4.374-.694,6.522-1.5,2.717-5.518,3.561-3.219,7.427" transform="translate(-10.78 -21.145)" fill="#fddfa1"/><path d="M8.667,152.673c1.957-4.034,5.282-7.629,9.6-8.849a4.977,4.977,0,0,1,3.257-.018,12.82,12.82,0,0,1,2.287,1.643c2.685,1.91,6.322,1.337,9.6.957a58.173,58.173,0,0,1,9.292-.328,5.232,5.232,0,0,1,2.688.635,5.151,5.151,0,0,1,1.708,2.532,41.718,41.718,0,0,1,2.892,17.322l-31.6,1.578c-3.575.178-10.43,1.31-12.343-2.751-1.6-3.4,1.16-9.687,2.631-12.721" transform="translate(-3.178 -82.186)" fill="#ffbc00"/><path d="M34.279,67.413a2.746,2.746,0,0,0,.4,1.52A2.436,2.436,0,0,0,36,69.7a16.756,16.756,0,0,0,4.754.449,2.094,2.094,0,0,0,1.546-.423,2.1,2.1,0,0,0,.362-1.584q-.071-1.6-.142-3.2a1.672,1.672,0,0,0-.236-.949,1.7,1.7,0,0,0-1.469-.427c-1.3.046-4.866-.474-5.913.234-1.084.733-.693,2.39-.619,3.611" transform="translate(-19.554 -36.317)" fill="#fff"/><path d="M67.425,68.9a1.466,1.466,0,0,0,.18.72,1.43,1.43,0,0,0,.96.478,24.781,24.781,0,0,0,4.468.468A1.307,1.307,0,0,0,74.626,69a23.223,23.223,0,0,0-.144-3.206.945.945,0,0,0-.918-1.06c-1.214-.23-4.772-.995-5.83-.134s-.4,3.115-.309,4.3" transform="translate(-38.444 -36.759)" fill="#fff"/><path d="M.488,145.025,2.679,134.95a20.182,20.182,0,0,1,8.246-12.319c.248-.174.5-.339.758-.5l.192-.122,2.174-1.363,2.221-1.394,3.929-2.461.4-4.169.466-4.918v-.009" transform="translate(-0.279 -61.663)" fill="none" stroke="#000" stroke-miterlimit="10" stroke-width="1"/><path d="M91.888,145.521,89.7,135.445a20.158,20.158,0,0,0-7.509-11.783c-.026-.018-.048-.039-.074-.056-.457-.349-.932-.675-1.42-.98l-1.629-1.019-1.346-.845-5.541-3.476-.719-7.558-.1-1.028-.013-.139" transform="translate(-40.853 -62.159)" fill="none" stroke="#000" stroke-miterlimit="10" stroke-width="1"/><path d="M55.219,56.033c-1.089,9.879-3.337,15.6-5.667,18.9a12.016,12.016,0,0,1-3.363,3.324,6.209,6.209,0,0,1-4.09,1.11,10.129,10.129,0,0,1-5.637-1.612A12.4,12.4,0,0,1,33.783,75.4c-5.859-6.813-6.4-20-6.4-20" transform="translate(-15.679 -31.721)" fill="none" stroke="#000" stroke-miterlimit="10" stroke-width="1"/><path d="M42.3,131.662s-.462,9.09,8.328,9.09c0,0,8.39-.533,8.39-8.057" transform="translate(-24.22 -75.386)" fill="none" stroke="#000" stroke-miterlimit="10" stroke-width="1"/><path d="M38.118,134.289s.067,9.657,10.252,9.657c0,0,9.98-1.143,9.98-8.667" transform="translate(-21.825 -76.891)" fill="none" stroke="#000" stroke-miterlimit="10" stroke-width="1"/><path d="M31.524,134.731v25.775h-4.4V137.489l2.174-1.363Z" transform="translate(-15.533 -77.144)"/><path d="M90.644,139.951v21.915h-4.4V137.107l1.346.845,1.629,1.019c.488.305.963.632,1.42.98" transform="translate(-49.384 -78.504)"/><path d="M22.216,63.518s-1.958-2.046-3.919-.685.063,9.767,5.757,8.763" transform="translate(-10.06 -35.709)" fill="none" stroke="#000" stroke-miterlimit="10" stroke-width="1"/><path d="M22.439,70.527a2.474,2.474,0,0,1,3.277,1.9" transform="translate(-12.848 -40.305)" fill="none" stroke="#000" stroke-miterlimit="10" stroke-width="1"/><path d="M25.719,73.525s.048-1.5,1.184-1.476" transform="translate(-14.726 -41.253)" fill="none" stroke="#000" stroke-miterlimit="10" stroke-width="1"/><path d="M89.317,63.483s1.936-2.067,3.911-.726.04,9.767-5.665,8.822" transform="translate(-50.136 -35.674)" fill="none" stroke="#000" stroke-miterlimit="10" stroke-width="1"/><path d="M93.364,70.475a2.474,2.474,0,0,0-3.258,1.933" transform="translate(-51.592 -40.281)" fill="none" stroke="#000" stroke-miterlimit="10" stroke-width="1"/><path d="M92.891,73.512s-.063-1.5-1.2-1.464" transform="translate(-52.5 -41.253)" fill="none" stroke="#000" stroke-miterlimit="10" stroke-width="1"/><path d="M45.165,19.819s-7.354-2.83-21.939.366c0,0-1.366,5.094-.768,6.958a2.74,2.74,0,0,1-.725,2.944l-1.272-3.635a10.556,10.556,0,0,1-1.639-5.968s-7.053-7.4,1.639-17.18C27.12-4.187,44.7,1.806,47.2,13.792c0,0,6.913,3.843,1.009,14.69,0,0-1.05.151-.976-2.03a10.848,10.848,0,0,0-2.064-6.634" transform="translate(-9.231 0)"/><path d="M39.282,58.36a10.389,10.389,0,0,1,5.036,0" transform="translate(-22.492 -33.411)" fill="none" stroke="#000" stroke-miterlimit="10" stroke-width="2"/><path d="M44.853,68.935c0,.7-.358,1.274-.8,1.274s-.8-.57-.8-1.274.358-1.273.8-1.273.8.57.8,1.273" transform="translate(-24.767 -38.742)"/><path d="M74.85,57.592a8.631,8.631,0,0,0-4.856,0" transform="translate(-39.998 -32.976)" fill="none" stroke="#000" stroke-miterlimit="10" stroke-width="2"/><path d="M73.829,68.935c0,.7.358,1.274.8,1.274s.8-.57.8-1.274-.358-1.273-.8-1.273-.8.57-.8,1.273" transform="translate(-42.273 -38.742)"/><path d="M56,68.171a15.063,15.063,0,0,1-.888,5.851s.5.994,2.6,1.044" transform="translate(-31.558 -39.033)" fill="none" stroke="#000" stroke-miterlimit="10" stroke-width="1"/><path d="M56.641,94.432a7.616,7.616,0,0,0,4.424-.251" transform="translate(-32.431 -53.926)" fill="none" stroke="#000" stroke-miterlimit="10" stroke-width="1"/><path d="M59.572,96.883a2.778,2.778,0,0,0,1.387-.036" transform="translate(-34.109 -55.452)" fill="none" stroke="#000" stroke-miterlimit="10" stroke-width="1"/><path d="M34.593,14.741a15.086,15.086,0,0,0,.286,1.842A18.526,18.526,0,0,0,36.8,21.765a16.955,16.955,0,0,0,2.107,3.023,21.86,21.86,0,0,0,2.674,2.581q-.39-.256-.776-.524a7.943,7.943,0,0,1-.758-.556,14.946,14.946,0,0,1-1.383-1.28,13.934,13.934,0,0,1-2.238-3.038,14.43,14.43,0,0,1-1.4-3.5,12.712,12.712,0,0,1-.44-3.726" transform="translate(-19.801 -8.44)" fill="#fff"/><path d="M47.577,27.711a21.731,21.731,0,0,0,.929,2.017A16.2,16.2,0,0,0,49.653,31.6a11.212,11.212,0,0,0,1.434,1.643,10.3,10.3,0,0,0,1.777,1.306A6.282,6.282,0,0,1,50.869,33.5a8.261,8.261,0,0,1-1.564-1.648,10.034,10.034,0,0,1-1.729-4.137" transform="translate(-27.241 -15.867)" fill="#fff"/><path d="M33.673,31.567a15.81,15.81,0,0,0,.843,1.706,12.571,12.571,0,0,0,1.049,1.554,9.779,9.779,0,0,0,1.277,1.363,12.511,12.511,0,0,0,1.514,1.143,6.038,6.038,0,0,1-1.724-.883,7.063,7.063,0,0,1-.752-.627,8.951,8.951,0,0,1-.651-.731,7.509,7.509,0,0,1-1.557-3.524" transform="translate(-19.28 -18.074)" fill="#fff"/><path d="M39.849,10.186a9.063,9.063,0,0,1-1-2.286,11.963,11.963,0,0,1-.459-2.464,11.859,11.859,0,0,1,.055-2.506A11.028,11.028,0,0,1,39.025.5c-.107.824-.215,1.636-.244,2.454A17.764,17.764,0,0,0,38.82,5.4a17.786,17.786,0,0,0,.354,2.417,16.951,16.951,0,0,0,.675,2.368" transform="translate(-21.96 -0.289)" fill="#fff"/><path d="M23.753,16.149a1.847,1.847,0,0,1-.767-1.024,5.052,5.052,0,0,1-.261-1.258,7.365,7.365,0,0,1,.243-2.511c.061.422.08.837.105,1.249l.078,1.228a10.916,10.916,0,0,0,.154,1.2,2.7,2.7,0,0,0,.448,1.116" transform="translate(-13 -6.502)" fill="#fff"/><path d="M27.317,9.518a2.066,2.066,0,0,1-.331-.695,3.669,3.669,0,0,1-.132-.748,3.318,3.318,0,0,1,.223-1.5,4.759,4.759,0,0,1,.136.742c.032.244.047.485.068.725.029.484.049.956.037,1.472" transform="translate(-15.372 -3.766)" fill="#fff"/><path d="M35.015,63.137v4.426A1.989,1.989,0,0,0,37,69.552H41.3a1.989,1.989,0,0,0,1.99-1.989V63.137Z" transform="translate(-20.049 -36.151)" fill="none" stroke="#000" stroke-miterlimit="10" stroke-width="1"/><path d="M72.424,63.137v4.426a1.989,1.989,0,0,1-1.989,1.989H66.142a1.989,1.989,0,0,1-1.99-1.989V63.137Z" transform="translate(-36.732 -36.151)" fill="none" stroke="#000" stroke-miterlimit="10" stroke-width="1"/><path d="M54.367,65.437s2.428-1.4,4.182,0" transform="translate(-31.129 -37.112)" fill="none" stroke="#000" stroke-miterlimit="10" stroke-width="1"/><path d="M57.821,109.243c-3.1,1.045-7.662,2.535-10.289,3.389L48,107.714a10.133,10.133,0,0,0,5.636,1.611,6.209,6.209,0,0,0,4.09-1.11Z" transform="translate(-27.216 -61.674)"/></g></svg>