<svg xmlns="http://www.w3.org/2000/svg" width="52" height="253" viewBox="0 0 52 253"><g transform="translate(-1474 -625)" opacity="0.5"><circle cx="5" cy="5" r="5" transform="translate(1474 625)" fill="#3d42df"/><circle cx="5" cy="5" r="5" transform="translate(1474 760)" fill="#3d42df"/><circle cx="5" cy="5" r="5" transform="translate(1474 679)" fill="#3d42df"/><circle cx="5" cy="5" r="5" transform="translate(1474 814)" fill="#3d42df"/><circle cx="5" cy="5" r="5" transform="translate(1495 625)" fill="#3d42df"/><circle cx="5" cy="5" r="5" transform="translate(1495 760)" fill="#3d42df"/><circle cx="5" cy="5" r="5" transform="translate(1495 679)" fill="#3d42df"/><circle cx="5" cy="5" r="5" transform="translate(1495 814)" fill="#3d42df"/><circle cx="5" cy="5" r="5" transform="translate(1516 625)" fill="#3d42df"/><circle cx="5" cy="5" r="5" transform="translate(1516 760)" fill="#3d42df"/><circle cx="5" cy="5" r="5" transform="translate(1516 679)" fill="#3d42df"/><circle cx="5" cy="5" r="5" transform="translate(1516 814)" fill="#3d42df"/><circle cx="5" cy="5" r="5" transform="translate(1474 652)" fill="#3d42df"/><circle cx="5" cy="5" r="5" transform="translate(1474 787)" fill="#3d42df"/><circle cx="5" cy="5" r="5" transform="translate(1474 706)" fill="#3d42df"/><circle cx="5" cy="5" r="5" transform="translate(1474 841)" fill="#3d42df"/><circle cx="5" cy="5" r="5" transform="translate(1495 652)" fill="#3d42df"/><circle cx="5" cy="5" r="5" transform="translate(1495 787)" fill="#3d42df"/><circle cx="5" cy="5" r="5" transform="translate(1495 706)" fill="#3d42df"/><circle cx="5" cy="5" r="5" transform="translate(1495 841)" fill="#3d42df"/><circle cx="5" cy="5" r="5" transform="translate(1516 652)" fill="#3d42df"/><circle cx="5" cy="5" r="5" transform="translate(1516 787)" fill="#3d42df"/><circle cx="5" cy="5" r="5" transform="translate(1516 706)" fill="#3d42df"/><circle cx="5" cy="5" r="5" transform="translate(1516 841)" fill="#3d42df"/><circle cx="5" cy="5" r="5" transform="translate(1474 679)" fill="#3d42df"/><circle cx="5" cy="5" r="5" transform="translate(1474 814)" fill="#3d42df"/><circle cx="5" cy="5" r="5" transform="translate(1474 733)" fill="#3d42df"/><circle cx="5" cy="5" r="5" transform="translate(1474 868)" fill="#3d42df"/><circle cx="5" cy="5" r="5" transform="translate(1495 679)" fill="#3d42df"/><circle cx="5" cy="5" r="5" transform="translate(1495 814)" fill="#3d42df"/><circle cx="5" cy="5" r="5" transform="translate(1495 733)" fill="#3d42df"/><circle cx="5" cy="5" r="5" transform="translate(1495 868)" fill="#3d42df"/><circle cx="5" cy="5" r="5" transform="translate(1516 679)" fill="#3d42df"/><circle cx="5" cy="5" r="5" transform="translate(1516 814)" fill="#3d42df"/><circle cx="5" cy="5" r="5" transform="translate(1516 733)" fill="#3d42df"/><circle cx="5" cy="5" r="5" transform="translate(1516 868)" fill="#3d42df"/></g></svg>