<svg xmlns="http://www.w3.org/2000/svg" width="52" height="145" viewBox="0 0 52 145"><g transform="translate(-116 -344)" opacity="0.5"><circle cx="5" cy="5" r="5" transform="translate(116 371)" fill="#3d42df"/><circle cx="5" cy="5" r="5" transform="translate(116 425)" fill="#3d42df"/><circle cx="5" cy="5" r="5" transform="translate(137 371)" fill="#3d42df"/><circle cx="5" cy="5" r="5" transform="translate(137 425)" fill="#3d42df"/><circle cx="5" cy="5" r="5" transform="translate(158 371)" fill="#3d42df"/><circle cx="5" cy="5" r="5" transform="translate(158 425)" fill="#3d42df"/><circle cx="5" cy="5" r="5" transform="translate(116 398)" fill="#3d42df"/><circle cx="5" cy="5" r="5" transform="translate(116 452)" fill="#3d42df"/><circle cx="5" cy="5" r="5" transform="translate(137 398)" fill="#3d42df"/><circle cx="5" cy="5" r="5" transform="translate(137 452)" fill="#3d42df"/><circle cx="5" cy="5" r="5" transform="translate(158 398)" fill="#3d42df"/><circle cx="5" cy="5" r="5" transform="translate(158 452)" fill="#3d42df"/><circle cx="5" cy="5" r="5" transform="translate(116 425)" fill="#3d42df"/><circle cx="5" cy="5" r="5" transform="translate(116 344)" fill="#3d42df"/><circle cx="5" cy="5" r="5" transform="translate(116 479)" fill="#3d42df"/><circle cx="5" cy="5" r="5" transform="translate(137 425)" fill="#3d42df"/><circle cx="5" cy="5" r="5" transform="translate(137 344)" fill="#3d42df"/><circle cx="5" cy="5" r="5" transform="translate(137 479)" fill="#3d42df"/><circle cx="5" cy="5" r="5" transform="translate(158 425)" fill="#3d42df"/><circle cx="5" cy="5" r="5" transform="translate(158 344)" fill="#3d42df"/><circle cx="5" cy="5" r="5" transform="translate(158 479)" fill="#3d42df"/></g></svg>