<svg xmlns="http://www.w3.org/2000/svg" width="473.694" height="355.666" viewBox="0 0 473.694 355.666"><g transform="translate(-181.61 -662.167)"><path d="M562.977,693.464q19.3-2.518,37.117-4.28l-4.568-7.66c1.588-.442,8.464,3.992,8.464,3.992l-5.807-22.151c7.936.891,11.626,23.484,11.626,23.484l9-7.525-4.433,8.523c36.343-3.175,67.7-4.153,94.063-3.908l-3.91-6.556c1.588-.442,8.464,3.992,8.464,3.992l-5.807-22.151c7.936.891,11.626,23.484,11.626,23.484l9-7.525-4.7,9.027c22.092.615,40.093,2.078,53.98,3.672-3.9-10.188-17.533-19.989-17.533-19.989,10.486,2.738,15.939,7.191,18.761,11.318A151.318,151.318,0,0,0,767,617.621s21.141,39.879,17.95,66.454l-.406,4.721c18.412,2.416,27.65,4.819,27.65,4.819Z" transform="translate(-162.509 303.823)" fill="#3f3d56"/><path d="M236.847,0C367.654,0,473.694,8.248,473.694,18.421S367.654,36.843,236.847,36.843,0,28.6,0,18.421,106.04,0,236.847,0Z" transform="translate(181.61 980.99)" fill="#3f3d56"/><path d="M603.068,171.473s5.263,12.5-6.579,18.421,31.58,17.106,36.185,2.632c0,0-11.842-4.605-6.579-18.421Z" transform="translate(-178.689 533.195)" fill="#ffb9b9"/><path d="M528.06,618.937l-.658,13.816,11.184,1.974V620.911Z" transform="translate(-89.536 343.961)" fill="#ffb9b9"/><path d="M430.959,618.937l.658,13.816-11.185,1.974V620.911Z" transform="translate(-34.541 343.961)" fill="#ffb9b9"/><circle cx="18.421" cy="18.421" r="18.421" transform="translate(418.786 675.392)" fill="#ffb9b9"/><path d="M578.159,340l-.658,5.263,3.29,12.5,4.605-11.184Z" transform="translate(-115.293 487.365)" fill="#ffb9b9"/><path d="M531.427,425.976l-3.947,46.711s-4.605,8.553-1.974,15.79c0,0-3.947,9.869-2.632,13.158s1.974,6.579.658,7.895-1.974,38.159,0,41.448,3.29,11.184,3.29,11.184,11.184,2.632,13.816-4.605,1.316-7.895,3.948-9.869,2.632-29.606,2.632-29.606-3.29-3.29-1.316-4.605,3.29,0,1.316-3.29-5.263-3.29-1.974-4.605a31.368,31.368,0,0,0,5.263-2.632l19.079-50s7.237,55.922,8.553,58.554,3.29-.658,1.316,2.632-2.632,1.316-1.974,3.29-3.947,30.264-1.316,36.185a89.161,89.161,0,0,1,3.947,10.527s10.527,4.605,11.842,1.316.658-9.211,2.632-9.869,3.947-1.974,3.947-7.237,3.947-30.922,3.947-30.922-4.605-1.974-3.29-5.263,1.316-2.632.658-5.263-1.974-3.29-.658-5.263,1.316-7.895,1.316-7.895l7.895-51.975L602.306,424Z" transform="translate(-141.589 403.366)" fill="#2f2e41"/><path d="M639.172,722.442s-1.974-1.974-2.632,0-.658,20.4-.658,20.4,5.263,3.948,5.263,5.921,3.947,8.553,13.158,7.237l.273-.041a8.711,8.711,0,0,0,6.477-12.33l-9.382-19.867S645.093,717.179,639.172,722.442Z" transform="translate(-199.991 250.982)" fill="#2f2e41"/><path d="M529.243,722.442s1.974-1.974,2.632,0,.658,20.4.658,20.4-5.263,3.948-5.263,5.921-3.947,8.553-13.158,7.237l-.273-.041a8.711,8.711,0,0,1-6.477-12.33l9.382-19.867S523.322,717.179,529.243,722.442Z" transform="translate(-133.484 250.982)" fill="#2f2e41"/><path d="M602.944,95.693l-3.291-1.318s6.882-7.576,16.457-6.918l-2.693-2.965s6.583-2.635,12.567,4.282c3.146,3.636,6.785,7.911,9.054,12.726h3.525l-1.471,3.239,5.149,3.239-5.285-.582a17.924,17.924,0,0,1-.5,8.389l.142,2.56s-6.126-9.478-6.126-10.8v3.294s-3.291-2.965-3.291-4.941l-1.8,2.306-.9-3.624-11.071,3.624,1.8-2.965-6.882.988,2.693-3.624s-7.779,4.282-8.079,7.906-4.189,8.235-4.189,8.235l-1.8-3.294S594.268,100.634,602.944,95.693Z" transform="translate(-179.777 578.167)" fill="#2f2e41"/><path d="M691.636,233.082h7.33a2.372,2.372,0,0,1,2.315,1.85c1.131,5.009,4.046,19.206,3.513,30.387-.658,13.816.658,23.685,0,25.658s0,2.632,0,4.605,1.974.658,0,3.29-1.974,1.974-1.974,3.947-6.579,32.238-6.579,32.238-4.523-7.434-9.5-6.02l.946-26.876L689,290.978l-1.974-19.737Z" transform="translate(-226.139 501.521)" fill="#3f3d56"/><path d="M583.737,213.429s-11.184-.407-14.8-5.138c0,0-23.356,7.769-25.987,14.348s9.211,36.185,9.211,36.185-20.4,60.528-10.526,60.528,32.238,7.895,45.4,3.29a169.117,169.117,0,0,1,25-6.579s1.316-17.764,0-21.053-4.605-1.316-2.632-5.921,1.316-5.263.658-7.237,1.316-4.605,1.316-7.237-.658-8.553-.658-8.553,17.764-41.448,13.816-45.4-24.041-11.553-24.041-11.553S594.921,216.06,583.737,213.429Z" transform="translate(-150.148 514.267)" fill="#3f3d56"/><circle cx="14.474" cy="14.474" r="14.474" transform="translate(567.145 899.409)" fill="#ffbc00"/><ellipse cx="3.29" cy="7.237" rx="3.29" ry="7.237" transform="translate(568.46 906.646)" fill="#fff"/><circle cx="14.474" cy="14.474" r="14.474" transform="translate(520.433 806.645)" fill="#3f3d56"/><ellipse cx="7.237" cy="3.29" rx="7.237" ry="3.29" transform="matrix(0.81, -0.587, 0.587, 0.81, 521.326, 814.709)" fill="#fff"/><circle cx="9.02" cy="9.02" r="9.02" transform="translate(562.729 732.491)" fill="#3f3d56"/><ellipse cx="4.51" cy="2.05" rx="4.51" ry="2.05" transform="matrix(0.81, -0.587, 0.587, 0.81, 563.286, 737.518)" fill="#fff"/><circle cx="9.02" cy="9.02" r="9.02" transform="translate(494.965 964.733)" fill="#3f3d56"/><ellipse cx="4.51" cy="2.05" rx="4.51" ry="2.05" transform="matrix(0.81, -0.587, 0.587, 0.81, 495.52, 969.759)" fill="#fff"/><circle cx="14.474" cy="14.474" r="14.474" transform="translate(565.829 833.619)" fill="#3f3d56"/><ellipse cx="3.29" cy="7.237" rx="3.29" ry="7.237" transform="translate(567.144 840.855)" fill="#fff"/><circle cx="14.474" cy="14.474" r="14.474" transform="translate(519.117 740.854)" fill="#ffbc00"/><ellipse cx="7.237" cy="3.29" rx="7.237" ry="3.29" transform="matrix(0.81, -0.587, 0.587, 0.81, 520.01, 748.918)" fill="#fff"/><circle cx="9.02" cy="9.02" r="9.02" transform="translate(561.414 666.7)" fill="#ffbc00"/><ellipse cx="4.51" cy="2.05" rx="4.51" ry="2.05" transform="matrix(0.81, -0.587, 0.587, 0.81, 561.97, 671.728)" fill="#fff"/><circle cx="9.02" cy="9.02" r="9.02" transform="translate(493.649 898.942)" fill="#3f3d56"/><ellipse cx="4.51" cy="2.05" rx="4.51" ry="2.05" transform="matrix(0.81, -0.587, 0.587, 0.81, 494.205, 903.969)" fill="#fff"/><rect width="182.241" height="110.614" transform="translate(214.505 848.708)" fill="#f2f2f2"/><path d="M522.986,437.544s-5.921,30.922,3.947,28.29,5.263-28.29,5.263-28.29Z" transform="translate(-141.043 396.404)" fill="#ffb9b9"/><path d="M534.65,233.082l-2.337,1.168a6.59,6.59,0,0,0-3.53,4.679l-9.266,49.417s-2.632,5.921-2.632,6.579,1.316.658,0,2.632-3.29,1.316-1.974,2.632a4.075,4.075,0,0,1,1.316,2.632l1.316,32.238s11.184-3.29,14.474,0c0,0-3.29-9.869-1.316-13.158A17.765,17.765,0,0,0,532.676,314s-1.316,0,1.974-3.29,3.947-4.605,3.29-5.263-1.316-6.579-1.316-7.237,6.579-44.738,6.579-44.738Z" transform="translate(-137.575 501.521)" fill="#3f3d56"/><path d="M176.21,451.823a17.018,17.018,0,1,0-22.088,25.9l25.9,22.088,22.088-25.9a17.018,17.018,0,1,0-25.9-22.088Z" transform="matrix(0.788, -0.616, 0.616, 0.788, -191.783, 600.441)" fill="#3d42df"/><g transform="translate(-3805.379 186.303)"><g transform="translate(4121.026 683.941)"><path d="M5456.581,708.182c-.039-.093-.08-.184-.123-.275-.093-.2-.2-.387-.307-.572l-.069-.113a6.762,6.762,0,0,0-.409-.578h0c-.128-.162-.265-.319-.408-.469a6.715,6.715,0,0,0-3.272-1.9h.1a5.333,5.333,0,0,0-4.733-5.3l0,0c-13.545-1.412-17.213-8.1-18.624-9.757a27.15,27.15,0,0,0,.626,5.562,18.356,18.356,0,0,1-3.332-8.515,23.072,23.072,0,0,0-2.275,10.009c-1.057-3.789-.65-7.932.816-12.332-7.09,4.9-12.963,14.393-14.924,22.828-.09.39-.173.778-.247,1.162a26.16,26.16,0,0,0-.371,2.623s0,.007,0,.014c-.024.159-.047.319-.072.478a8.039,8.039,0,0,0-.05.9V741.3a10.353,10.353,0,0,0,10.426,10.28h27.324a10.353,10.353,0,0,0,10.426-10.28V710.7A6.49,6.49,0,0,0,5456.581,708.182Zm-5.054,33.123a4.806,4.806,0,0,1-4.84,4.771h-27.325c-.059,0-.114,0-.171,0h-.009c-.036,0-.071,0-.107-.005l-.112-.007c-.069-.005-.138-.012-.207-.019a.259.259,0,0,1-.026,0,4.8,4.8,0,0,1-4.236-4.736v-1.456a.4.4,0,0,1,.026.043v-25.53a4.684,4.684,0,0,1,.134-1.117,4.828,4.828,0,0,1,4.706-3.656h27.327a4.826,4.826,0,0,1,4.709,3.666,4.7,4.7,0,0,1,.131,1.107Z" transform="translate(-5408.91 -683.941)" fill="#070707"/><path d="M5457.086,1085.831v3.531q-2.771-.546-5.56-.964l-.131-.019a124.1,124.1,0,0,0-36.742-.01l-.134.02q-2.812.421-5.609.973v-2.291a8.038,8.038,0,0,1,.05-.9c.024-.159.048-.319.072-.478,0-.007,0-.009,0-.014a26.157,26.157,0,0,1,.371-2.623c.073-.384.156-.772.247-1.162a124.058,124.058,0,0,1,46.021-.125h0a6.772,6.772,0,0,1,.409.578l.069.113c.111.185.214.376.307.572.043.091.083.182.123.274A6.49,6.49,0,0,1,5457.086,1085.831Z" transform="translate(-5408.91 -1059.068)" fill="#3d42df"/><g transform="translate(46.367 18.19)"><path d="M6302.767,1038.161a6.359,6.359,0,1,0,11.7-4.989Z" transform="translate(-6302.576 -1033.173)" fill="#3d42df"/><g transform="translate(0 4.529)"><path d="M6299.532,1120.126a9.294,9.294,0,0,0,17.741,5.545Z" transform="translate(-6299.106 -1120.126)" fill="#3d42df"/></g></g><path d="M5916.993,1367.921a8.185,8.185,0,0,0-5.88,2.487c-.593.592-.909,1.271-.307,1.994s1.294.484,2,.015c2.448-1.627,4.816-1.323,6.888.839a2.3,2.3,0,0,0,3.4.187,2.256,2.256,0,0,0-.293-3.383A8.65,8.65,0,0,0,5916.993,1367.921Z" transform="translate(-5884.357 -1332.295)"/><g transform="translate(10.599 33.624)"><g transform="translate(3.539 10.187)"><path d="M5680.35,1525.072" transform="translate(-5680.35 -1525.072)"/></g><path d="M5616.859,1388.335l-1.494,1.494-.49.49h-1.882a.59.59,0,0,1-.59-.59v-2.789a.59.59,0,0,1,.59-.59h1.882l.49.49Z" transform="translate(-5612.403 -1383.388)"/><path d="M5673.243,1330.076v1.882l-.49.49-1.494,1.494-1.984-1.984v-1.882a.59.59,0,0,1,.59-.59h2.789A.59.59,0,0,1,5673.243,1330.076Z" transform="translate(-5666.313 -1329.486)"/><path d="M5673.243,1435.841v1.882a.59.59,0,0,1-.59.59h-2.789a.59.59,0,0,1-.59-.59v-1.882l.49-.49,1.495-1.495,1.494,1.495Z" transform="translate(-5666.313 -1428.421)"/><path d="M5721.237,1386.94v2.789a.59.59,0,0,1-.59.59h-1.882l-.49-.49-1.495-1.494,1.495-1.494.49-.49h1.882A.59.59,0,0,1,5721.237,1386.94Z" transform="translate(-5711.344 -1383.388)"/></g><path d="M5885.084,1636.956a11.035,11.035,0,0,1-2.648,2.5,12.6,12.6,0,0,1-3.316,1.587c-.292.1-.592.167-.89.246-.3.061-.6.134-.905.177l-.456.067c-.151.024-.306.031-.458.046s-.306.028-.458.035l-.459.013-.229,0-.229-.006-.458-.017c-.154-.005-.288-.019-.433-.03l-.427-.036c-.285-.026-.569-.052-.854-.085s-.569-.066-.854-.109a.749.749,0,0,1,0-1.481c.285-.043.57-.078.854-.109s.57-.06.854-.085l.849-.069.4-.038.2-.018.2-.028.392-.05c.13-.019.26-.046.39-.066.26-.037.517-.1.773-.149.129-.023.256-.058.383-.091l.381-.093.377-.111c.125-.036.252-.069.375-.114a18.166,18.166,0,0,0,2.895-1.226,25.813,25.813,0,0,0,2.717-1.708l.015-.01a.748.748,0,0,1,1.032,1.058Z" transform="translate(-5847.282 -1586.184)"/></g><g transform="translate(4101.047 723.58)"><path d="M5025.332,1444.966" transform="translate(-5025.332 -1444.966)" fill="none" stroke="#000" stroke-miterlimit="10" stroke-width="9"/></g><g transform="translate(4075.257 723.58)"><path d="M4530.2,1444.966" transform="translate(-4530.198 -1444.966)" fill="none" stroke="#000" stroke-miterlimit="10" stroke-width="31"/></g><g transform="translate(4083.163 723.58)"><path d="M4681.982,1444.966" transform="translate(-4681.982 -1444.966)" fill="none" stroke="#000" stroke-miterlimit="10" stroke-width="31"/></g><g transform="translate(4050.327 703.333)"><g transform="translate(0 6.136)"><path d="M4082.122,1174.512v8.663h-10.111a5.282,5.282,0,0,1-3.071-.971,8.8,8.8,0,0,1-8.686,7.229c-.076,0-.15,0-.225,0a8.64,8.64,0,0,1-7.064-4,8.8,8.8,0,0,1-.675-8.235l1.361-3.159,2.292.989-1.362,3.159a6.3,6.3,0,0,0,.486,5.9,6.065,6.065,0,0,0,5.024,2.846l.163,0a6.323,6.323,0,0,0,6.343-6.224l.084-2.963c0-.029,0-.059,0-.089v-.02l.14-3.181,2.493.109-.14,3.176a2.836,2.836,0,0,0,2.833,2.932h1.836l.04-6.152,2.5.016-.04,6.136h3.283v-6.167Z" transform="translate(-4051.57 -1174.041)"/></g><g transform="translate(38.801 3.246)"><path d="M4805.135,1136.732h-2.307a6.326,6.326,0,0,1-6.318-6.318v-11.852h2.512v11.852a3.811,3.811,0,0,0,3.806,3.806h2.307a4.481,4.481,0,0,0,2.44-.72l1.832-1.185h-6.378l1.033-11.675h6.185a4.675,4.675,0,0,1,4.67,4.67c0,.03-.043,3.062-1.008,4.223l-1.933-1.605a.288.288,0,0,0-.02.026,7.99,7.99,0,0,0,.448-2.644,2.16,2.16,0,0,0-2.158-2.158h-3.885l-.588,6.651h4.473a2.264,2.264,0,0,1,1.23,4.165l-2.537,1.641A6.99,6.99,0,0,1,4805.135,1136.732Z" transform="translate(-4796.51 -1118.562)" fill="#070707"/></g><g transform="translate(27.227 10.121)"><path d="M4575.461,1261.8l-1.168-2.224,4.69-2.464a4.677,4.677,0,0,0,2.453-3.493l.483-3.072,2.488.034-.483,3.382a7.194,7.194,0,0,1-3.772,5.373Z" transform="translate(-4574.293 -1250.546)" fill="#070707"/></g><circle cx="1.738" cy="1.738" r="1.738" transform="translate(49.04 0)" fill="#070707"/></g><g transform="translate(4050.259 729.077)"><g transform="translate(0 0.114)"><path d="M4102.28,1558.638a4.735,4.735,0,0,0,4.2-2.541l1.178-2.242-2.225-1.168-1.177,2.242a2.232,2.232,0,0,1-1.98,1.2h-15.669v5.113l13.686,4.785a1.3,1.3,0,0,1,.871,1.227v.9h-14.436a1.939,1.939,0,0,1-1.937-1.937v-2.145h-2.512v2.15a1.94,1.94,0,0,1-1.934,1.937h0a1.5,1.5,0,0,1-1.131-.512l-1.219-1.394a5.672,5.672,0,0,0-5.511-6.928l-7.308-.031v5.7a5.638,5.638,0,0,0,.141,1.256l-1.22,1.395a1.5,1.5,0,0,1-1.13.512h0l-1.664,0-1.524,0h-3.048V1559.3h-2.512v7.184a6.874,6.874,0,0,1-2.026,4.892l-1.932,1.932,1.776,1.776,1.932-1.932a9.455,9.455,0,0,0,1.787-2.481h4.019l3.188,0h.006a4.012,4.012,0,0,0,3.02-1.37l.55-.627a5.653,5.653,0,0,0,4.31,1.992h1.619a5.654,5.654,0,0,0,4.311-1.992l.549.627a4.015,4.015,0,0,0,3.021,1.37h.005a4.434,4.434,0,0,1,6.38,0h16.948v-3.415a3.815,3.815,0,0,0-2.553-3.6l-12-4.2v-.818Zm-29.814,9.516h-1.619a3.161,3.161,0,0,1-3.158-3.158v-3.181l4.787.022a3.159,3.159,0,0,1-.01,6.317Z" transform="translate(-4050.259 -1552.687)" fill="#3d42df"/></g><g transform="translate(36.351)"><rect width="13.672" height="2.512" fill="#3d42df"/></g><g transform="translate(26.728 19.03)"><circle cx="1.738" cy="1.738" r="1.738" transform="translate(4.229)" fill="#3d42df"/><circle cx="1.738" cy="1.738" r="1.738" fill="#3d42df"/></g></g></g></g></svg>