<svg xmlns="http://www.w3.org/2000/svg" xmlns:xlink="http://www.w3.org/1999/xlink" width="78.785" height="83.785" viewBox="0 0 78.785 83.785"><defs><clipPath id="a"><rect width="39.624" height="30.782" fill="#fff"/></clipPath></defs><g transform="translate(-23.203 0.008)"><g transform="translate(101.988 55.758) rotate(135)"><g clip-path="url(#a)"><path d="M30.127,18.993H23.414v2.292a.655.655,0,0,1-.655.655H20.467v2.292a5.245,5.245,0,0,0,5.239,5.24.655.655,0,1,1,0,1.31,6.556,6.556,0,0,1-6.549-6.549V21.941H16.865a.654.654,0,0,1-.654-.655V18.993H9.5A9.5,9.5,0,1,1,17.509,4.421h4.608a9.491,9.491,0,1,1,8.01,14.572M17.52,20.631H22.1V18.993H17.52ZM30.127,1.31A8.185,8.185,0,0,0,23.048,5.4a.593.593,0,0,1-.054.061.573.573,0,0,1-.089.1.612.612,0,0,1-.1.069.624.624,0,0,1-.11.055.651.651,0,0,1-.132.026.624.624,0,0,1-.08.016H17.145a.58.58,0,0,1-.082-.016.5.5,0,0,1-.243-.081.488.488,0,0,1-.19-.17.6.6,0,0,1-.053-.06A8.183,8.183,0,1,0,9.5,17.684H30.127a8.187,8.187,0,1,0,0-16.374m3.685,10.315A2.129,2.129,0,1,1,35.94,9.5a2.131,2.131,0,0,1-2.128,2.129m0-2.948a.819.819,0,1,0,.818.819.82.82,0,0,0-.818-.819m-7.368,2.948A2.129,2.129,0,1,1,28.572,9.5a2.131,2.131,0,0,1-2.128,2.129m0-2.948a.819.819,0,1,0,.819.819.819.819,0,0,0-.819-.819m3.684-.737a2.128,2.128,0,1,1,2.129-2.128,2.13,2.13,0,0,1-2.129,2.128m0-2.947a.819.819,0,1,0,.819.819.819.819,0,0,0-.819-.819m0,6.058A2.129,2.129,0,1,1,28,13.181a2.132,2.132,0,0,1,2.128-2.129m0,2.947a.819.819,0,1,0-.819-.819.82.82,0,0,0,.819.819m-16.21-2.374H11.626v2.292a.655.655,0,0,1-.655.655H8.023a.655.655,0,0,1-.655-.655V11.626H5.076a.655.655,0,0,1-.655-.655V8.023a.655.655,0,0,1,.655-.655H7.368V5.076a.655.655,0,0,1,.655-.655H10.97a.655.655,0,0,1,.655.655V7.368h2.292a.655.655,0,0,1,.655.655V10.97a.655.655,0,0,1-.655.655m-.655-2.948H10.97a.655.655,0,0,1-.655-.655V5.731H8.678V8.023a.654.654,0,0,1-.655.655H5.731v1.637H8.023a.655.655,0,0,1,.655.655v2.292h1.637V10.97a.656.656,0,0,1,.655-.655h2.292Z" fill="#fff"/></g></g><g transform="translate(44.97 -0.008) rotate(45)"><g clip-path="url(#a)"><path d="M30.127,11.789H23.414V9.5a.655.655,0,0,0-.655-.655H20.467V6.549a5.245,5.245,0,0,1,5.239-5.24.655.655,0,1,0,0-1.31,6.556,6.556,0,0,0-6.549,6.549V8.842H16.865a.654.654,0,0,0-.654.655v2.292H9.5a9.5,9.5,0,1,0,8.012,14.572h4.608a9.491,9.491,0,1,0,8.01-14.572M17.52,10.152H22.1v1.637H17.52ZM30.127,29.472a8.185,8.185,0,0,1-7.079-4.093.593.593,0,0,0-.054-.061.573.573,0,0,0-.089-.1.612.612,0,0,0-.1-.069.624.624,0,0,0-.11-.055.651.651,0,0,0-.132-.026.624.624,0,0,0-.08-.016H17.145a.58.58,0,0,0-.082.016.5.5,0,0,0-.243.081.488.488,0,0,0-.19.17.6.6,0,0,0-.053.06A8.183,8.183,0,1,1,9.5,13.1H30.127a8.187,8.187,0,1,1,0,16.374m3.685-10.315a2.129,2.129,0,1,0,2.128,2.129,2.131,2.131,0,0,0-2.128-2.129m0,2.948a.819.819,0,1,1,.818-.819.82.82,0,0,1-.818.819m-7.368-2.948a2.129,2.129,0,1,0,2.128,2.129,2.131,2.131,0,0,0-2.128-2.129m0,2.948a.819.819,0,1,1,.819-.819.819.819,0,0,1-.819.819m3.684.737a2.128,2.128,0,1,0,2.129,2.128,2.13,2.13,0,0,0-2.129-2.128m0,2.947a.819.819,0,1,1,.819-.819.819.819,0,0,1-.819.819m0-6.058A2.129,2.129,0,1,0,28,17.6a2.132,2.132,0,0,0,2.128,2.129m0-2.947a.819.819,0,1,1-.819.819.82.82,0,0,1,.819-.819m-16.21,2.374H11.626V16.865a.655.655,0,0,0-.655-.655H8.023a.655.655,0,0,0-.655.655v2.292H5.076a.655.655,0,0,0-.655.655v2.947a.655.655,0,0,0,.655.655H7.368v2.292a.655.655,0,0,0,.655.655H10.97a.655.655,0,0,0,.655-.655V23.414h2.292a.655.655,0,0,0,.655-.655V19.812a.655.655,0,0,0-.655-.655M13.263,22.1H10.97a.655.655,0,0,0-.655.655v2.293H8.678V22.759a.654.654,0,0,0-.655-.655H5.731V20.467H8.023a.655.655,0,0,0,.655-.655V17.52h1.637v2.292a.656.656,0,0,0,.655.655h2.292Z" fill="#fff"/></g></g></g></svg>