<svg xmlns="http://www.w3.org/2000/svg" viewBox="0 0 186.76 153.69"><defs><style>.cls-1{fill:#e52421;}.cls-2{fill:#f1f1f1;}.cls-3{fill:#1d1d1b;}</style></defs><g id="Layer_2" data-name="Layer 2"><g id="Layer_2-2" data-name="Layer 2"><path class="cls-1" d="M103.8,91.64a2,2,0,0,1-2-2V79a2,2,0,0,1,4,0V89.64A2,2,0,0,1,103.8,91.64Z"/><path class="cls-1" d="M110.67,91.64a2,2,0,0,1-1.41-3.42l7.54-7.53a2,2,0,1,1,2.82,2.82l-7.53,7.54A2,2,0,0,1,110.67,91.64Z"/><path class="cls-1" d="M97.21,91.64a2,2,0,0,1-1.41-.59l-7.54-7.54a2,2,0,0,1,2.83-2.82l7.53,7.53a2,2,0,0,1-1.41,3.42Z"/><path class="cls-1" d="M21.06,90.15H14.93a1,1,0,0,1,0-2h6.13a1,1,0,1,1,0,2Z"/><path class="cls-1" d="M21.06,90.15H14.93a1,1,0,0,1,0-2h6.13a1,1,0,1,1,0,2Z"/><path class="cls-1" d="M18,93.21a1,1,0,0,1-1-1V86.08a1,1,0,0,1,2,0v6.13A1,1,0,0,1,18,93.21Z"/><path class="cls-1" d="M18,93.21a1,1,0,0,1-1-1V86.08a1,1,0,0,1,2,0v6.13A1,1,0,0,1,18,93.21Z"/><circle class="cls-2" cx="137.14" cy="36.47" r="14.04"/><path class="cls-2" d="M2.59,54.38C-7.6,98.35,13,118.93,53,124.64a153.53,153.53,0,0,1,50,16.3c28.64,15.12,55.88,21.8,77-8.81,17.1-29.36-.06-49.88-30.56-66.95a151.5,151.5,0,0,1-41-33.57C75.56-6.66,50.75-5.86,29.3,11.26A77.28,77.28,0,0,0,2.59,54.38Z"/><path class="cls-3" d="M147.92,145.84H85V101.35h62.91Zm-59.91-3h56.91V104.35H88Z"/><polygon class="cls-3" points="88.07 145.84 57.54 145.84 57.54 101.35 75.95 101.35 75.95 104.35 60.54 104.35 60.54 142.84 85.07 142.84 85.07 102.85 88.07 102.85 88.07 145.84"/><path class="cls-3" d="M147.15,104.41H110.23l15.61-17.93h36.92Zm-30.33-3h29l10.39-11.93h-29Z"/><path class="cls-3" d="M91.15,104.41H58.42l-16-17.93H75.14Zm-31.39-3H84.45L73.8,89.48H49.11Z"/><polygon class="cls-3" points="63.26 67.07 57.26 67.07 57.26 61.07 60.26 61.07 60.26 64.07 63.26 64.07 63.26 67.07"/><rect class="cls-3" x="66.54" y="64.07" width="9.84" height="3"/><polygon class="cls-3" points="85.67 67.07 79.67 67.07 79.67 64.07 82.67 64.07 82.67 61.07 85.67 61.07 85.67 67.07"/><rect class="cls-3" x="82.66" y="47.95" width="3" height="9.84"/><polygon class="cls-3" points="85.67 44.67 82.67 44.67 82.67 41.67 79.67 41.67 79.67 38.67 85.67 38.67 85.67 44.67"/><rect class="cls-3" x="66.54" y="38.67" width="9.84" height="3"/><polygon class="cls-3" points="60.26 44.67 57.26 44.67 57.26 38.67 63.26 38.67 63.26 41.67 60.26 41.67 60.26 44.67"/><rect class="cls-3" x="57.26" y="47.95" width="3" height="9.84"/><polygon class="cls-3" points="63.26 29.16 57.26 29.16 57.26 23.16 60.26 23.16 60.26 26.16 63.26 26.16 63.26 29.16"/><rect class="cls-3" x="66.54" y="26.16" width="9.84" height="3"/><polygon class="cls-3" points="85.67 29.16 79.67 29.16 79.67 26.16 82.67 26.16 82.67 23.16 85.67 23.16 85.67 29.16"/><rect class="cls-3" x="82.66" y="10.04" width="3" height="9.84"/><polygon class="cls-3" points="85.67 6.75 82.67 6.75 82.67 3.75 79.67 3.75 79.67 0.76 85.67 0.76 85.67 6.75"/><rect class="cls-3" x="66.54" y="0.75" width="9.84" height="3"/><polygon class="cls-3" points="60.26 6.75 57.26 6.75 57.26 0.76 63.26 0.76 63.26 3.75 60.26 3.75 60.26 6.75"/><rect class="cls-3" x="57.26" y="10.04" width="3" height="9.84"/><path class="cls-3" d="M133.31,9.11H94.51a2,2,0,0,1,0-4h38.8a2,2,0,1,1,0,4Z"/><path class="cls-3" d="M121.57,23.66H94.51a2,2,0,0,1,0-4h27.06a2,2,0,0,1,0,4Z"/><path class="cls-3" d="M133.31,48.55H94.51a2,2,0,0,1,0-4h38.8a2,2,0,0,1,0,4Z"/><path class="cls-3" d="M121.57,63.11H94.51a2,2,0,0,1,0-4h27.06a2,2,0,0,1,0,4Z"/><path class="cls-3" d="M175.53,146H154.25a2,2,0,0,1,0-4h21.28a2,2,0,0,1,0,4Z"/><path class="cls-3" d="M50.93,146H29.65a2,2,0,0,1,0-4H50.93a2,2,0,1,1,0,4Z"/><path class="cls-3" d="M22.16,146H14.68a2,2,0,0,1,0-4h7.48a2,2,0,0,1,0,4Z"/><path class="cls-1" d="M103.8,91.64a2,2,0,0,1-2-2V79a2,2,0,0,1,4,0V89.64A2,2,0,0,1,103.8,91.64Z"/><path class="cls-1" d="M110.67,91.64a2,2,0,0,1-1.41-3.42l7.54-7.53a2,2,0,1,1,2.82,2.82l-7.53,7.54A2,2,0,0,1,110.67,91.64Z"/><path class="cls-1" d="M97.21,91.64a2,2,0,0,1-1.41-.59l-7.54-7.54a2,2,0,0,1,2.83-2.82l7.53,7.53a2,2,0,0,1-1.41,3.42Z"/><circle class="cls-3" cx="109.95" cy="115.87" r="3.96"/><circle class="cls-3" cx="124.89" cy="115.87" r="3.96"/><path class="cls-1" d="M123.87,136a2,2,0,0,1-2-1.85c-.21-2.83-1.57-4.76-3.73-5.31a5.86,5.86,0,0,0-6.25,2.79,2,2,0,0,1-3.37-2.15A9.84,9.84,0,0,1,119.11,125c3.89,1,6.41,4.3,6.75,8.88A2,2,0,0,1,124,136Z"/><path class="cls-3" d="M141,75.44a4.76,4.76,0,1,1,4.75-4.76A4.77,4.77,0,0,1,141,75.44Zm0-6.52a1.76,1.76,0,1,0,1.75,1.76A1.76,1.76,0,0,0,141,68.92Z"/><path class="cls-1" d="M40.12,25.33A5.33,5.33,0,1,1,45.45,20,5.33,5.33,0,0,1,40.12,25.33Zm0-7.66A2.33,2.33,0,1,0,42.45,20,2.33,2.33,0,0,0,40.12,17.67Z"/><path class="cls-1" d="M147,36.36h-6.13a1,1,0,0,1,0-2H147a1,1,0,0,1,0,2Z"/><path class="cls-1" d="M147,36.36h-6.13a1,1,0,0,1,0-2H147a1,1,0,0,1,0,2Z"/><path class="cls-1" d="M144,39.42a1,1,0,0,1-1-1V32.3a1,1,0,0,1,2,0v6.12A1,1,0,0,1,144,39.42Z"/><path class="cls-1" d="M144,39.42a1,1,0,0,1-1-1V32.3a1,1,0,0,1,2,0v6.12A1,1,0,0,1,144,39.42Z"/><path class="cls-1" d="M21.06,90.15H14.93a1,1,0,0,1,0-2h6.13a1,1,0,1,1,0,2Z"/><path class="cls-1" d="M21.06,90.15H14.93a1,1,0,0,1,0-2h6.13a1,1,0,1,1,0,2Z"/><path class="cls-1" d="M18,93.21a1,1,0,0,1-1-1V86.08a1,1,0,0,1,2,0v6.13A1,1,0,0,1,18,93.21Z"/><path class="cls-1" d="M18,93.21a1,1,0,0,1-1-1V86.08a1,1,0,0,1,2,0v6.13A1,1,0,0,1,18,93.21Z"/><circle class="cls-2" cx="165.74" cy="58.17" r="7.91"/></g></g></svg>