<svg xmlns="http://www.w3.org/2000/svg" width="216.027" height="108" viewBox="0 0 216.027 108">
  <g id="Group_653" data-name="Group 653" transform="translate(-4050.259 -683.941)">
    <g id="Group_639" data-name="Group 639" transform="translate(4163.249 683.941)">
      <path id="Path_817" data-name="Path 817" d="M5485.022,722.645c-.062-.148-.127-.294-.2-.438-.148-.313-.311-.618-.489-.913-.037-.061-.073-.121-.111-.18a10.712,10.712,0,0,0-.652-.922h0q-.309-.389-.651-.749a10.719,10.719,0,0,0-5.225-3.032h.163a8.514,8.514,0,0,0-7.558-8.462l0,0c-21.627-2.254-27.483-12.93-29.736-15.579a43.223,43.223,0,0,0,1,8.88,29.3,29.3,0,0,1-5.32-13.595,36.824,36.824,0,0,0-3.632,15.981c-1.687-6.049-1.038-12.664,1.3-19.69-11.32,7.816-20.7,22.98-23.829,36.449-.144.623-.277,1.242-.394,1.855a41.893,41.893,0,0,0-.592,4.187c0,.007,0,.011,0,.022-.039.255-.076.509-.114.763a12.785,12.785,0,0,0-.08,1.433v46.876a16.53,16.53,0,0,0,16.646,16.414h43.627a16.53,16.53,0,0,0,16.646-16.414V726.672A10.364,10.364,0,0,0,5485.022,722.645Zm-8.069,52.886a7.673,7.673,0,0,1-7.728,7.618H5425.6c-.095,0-.182,0-.273,0h-.015c-.057,0-.114,0-.17-.008l-.179-.011c-.111-.008-.221-.019-.331-.031a.386.386,0,0,1-.042-.008,7.671,7.671,0,0,1-6.762-7.561V773.2c.015.022.03.046.042.068V732.507a7.513,7.513,0,0,1,.213-1.784,7.71,7.71,0,0,1,7.515-5.838h43.63a7.707,7.707,0,0,1,7.519,5.854,7.537,7.537,0,0,1,.209,1.768Z" transform="translate(-5408.91 -683.941)" fill="#070707"/>
      <path id="Path_818" data-name="Path 818" d="M5485.829,1089.5v5.637q-4.424-.872-8.876-1.538l-.209-.031a198.153,198.153,0,0,0-58.665-.016l-.213.032q-4.491.672-8.956,1.553v-3.657a12.781,12.781,0,0,1,.08-1.433c.038-.255.075-.509.114-.764,0-.012,0-.015,0-.022a41.9,41.9,0,0,1,.592-4.187c.117-.614.25-1.232.394-1.855a198.075,198.075,0,0,1,73.48-.2h0a10.721,10.721,0,0,1,.652.922c.038.06.074.12.111.181a10.353,10.353,0,0,1,.489.913c.069.145.134.29.2.438A10.364,10.364,0,0,1,5485.829,1089.5Z" transform="translate(-5408.91 -1046.77)" fill="#3d42df"/>
      <g id="Group_636" data-name="Group 636" transform="translate(74.031 29.043)">
        <path id="Path_819" data-name="Path 819" d="M6302.767,1041.138a10.154,10.154,0,0,0,18.681-7.965Z" transform="translate(-6302.463 -1033.173)" fill="#3d42df"/>
        <g id="Group_635" data-name="Group 635" transform="translate(0 7.231)">
          <path id="Path_820" data-name="Path 820" d="M6299.786,1120.126a14.839,14.839,0,0,0,28.327,8.854Z" transform="translate(-6299.107 -1120.126)" fill="#3d42df"/>
        </g>
      </g>
      <path id="Path_821" data-name="Path 821" d="M5920.877,1367.921a13.071,13.071,0,0,0-9.39,3.97c-.946.945-1.45,2.03-.489,3.184.978,1.175,2.066.772,3.193.024,3.908-2.6,7.689-2.112,11,1.339a3.678,3.678,0,0,0,5.424.3,3.6,3.6,0,0,0-.469-5.4A13.809,13.809,0,0,0,5920.877,1367.921Z" transform="translate(-5868.769 -1311.039)"/>
      <g id="Group_638" data-name="Group 638" transform="translate(16.923 53.685)">
        <g id="Group_637" data-name="Group 637" transform="translate(5.651 16.266)">
          <path id="Path_822" data-name="Path 822" d="M5680.35,1525.072" transform="translate(-5680.35 -1525.072)"/>
        </g>
        <path id="Path_823" data-name="Path 823" d="M5619.519,1389.519l-2.386,2.386-.783.782h-3a.942.942,0,0,1-.942-.942v-4.453a.942.942,0,0,1,.942-.942h3l.783.783Z" transform="translate(-5612.403 -1381.621)"/>
        <path id="Path_824" data-name="Path 824" d="M5675.611,1330.428v3.005l-.783.782-2.386,2.386-3.168-3.168v-3.005a.942.942,0,0,1,.942-.942h4.452A.942.942,0,0,1,5675.611,1330.428Z" transform="translate(-5664.544 -1329.486)"/>
        <path id="Path_825" data-name="Path 825" d="M5675.611,1437.025v3.005a.942.942,0,0,1-.942.942h-4.452a.942.942,0,0,1-.942-.942v-3.005l.782-.782,2.387-2.386,2.386,2.386Z" transform="translate(-5664.544 -1425.177)"/>
        <path id="Path_826" data-name="Path 826" d="M5723.9,1387.292v4.453a.942.942,0,0,1-.942.942h-3l-.783-.782-2.386-2.386,2.386-2.386.783-.783h3A.942.942,0,0,1,5723.9,1387.292Z" transform="translate(-5708.1 -1381.621)"/>
      </g>
      <path id="Path_827" data-name="Path 827" d="M5893.267,1637.669a17.634,17.634,0,0,1-4.229,3.989,20.119,20.119,0,0,1-5.294,2.533c-.467.153-.946.267-1.421.392-.481.1-.959.214-1.445.282l-.728.106c-.242.039-.488.049-.732.074s-.487.045-.732.056l-.733.021-.366.007-.366-.009-.731-.027c-.246-.009-.46-.03-.691-.047l-.682-.057c-.455-.041-.91-.083-1.364-.137s-.91-.1-1.364-.174a1.2,1.2,0,0,1,0-2.365c.455-.07.909-.124,1.364-.175s.909-.1,1.364-.136l1.354-.111.632-.061.315-.029.313-.044.626-.08c.208-.031.415-.073.623-.1.415-.06.824-.157,1.234-.239.207-.037.409-.093.611-.145l.609-.148.6-.177c.2-.057.4-.11.6-.181a29.024,29.024,0,0,0,4.621-1.958,41.154,41.154,0,0,0,4.338-2.728l.023-.017a1.195,1.195,0,0,1,1.648,1.689Z" transform="translate(-5832.911 -1556.605)"/>
    </g>
    <g id="Group_640" data-name="Group 640" transform="translate(4131.349 747.23)">
      <path id="Path_828" data-name="Path 828" d="M5025.332,1444.966" transform="translate(-5025.332 -1444.966)" fill="none" stroke="#000" stroke-miterlimit="10" stroke-width="9"/>
    </g>
    <g id="Group_641" data-name="Group 641" transform="translate(4090.172 747.23)">
      <path id="Path_829" data-name="Path 829" d="M4530.2,1444.966" transform="translate(-4530.198 -1444.966)" fill="none" stroke="#000" stroke-miterlimit="10" stroke-width="31"/>
    </g>
    <g id="Group_642" data-name="Group 642" transform="translate(4102.795 747.23)">
      <path id="Path_830" data-name="Path 830" d="M4681.982,1444.966" transform="translate(-4681.982 -1444.966)" fill="none" stroke="#000" stroke-miterlimit="10" stroke-width="31"/>
    </g>
    <g id="Group_647" data-name="Group 647" transform="translate(4050.368 714.902)">
      <g id="Group_644" data-name="Group 644" transform="translate(0 9.797)">
        <g id="Group_643" data-name="Group 643">
          <path id="Path_831" data-name="Path 831" d="M4100.351,1174.793v13.833h-16.144a8.434,8.434,0,0,1-4.9-1.55,14.056,14.056,0,0,1-13.869,11.543c-.121,0-.24,0-.36-.005a13.794,13.794,0,0,1-11.279-6.379,14.042,14.042,0,0,1-1.077-13.148l2.174-5.045,3.66,1.579-2.175,5.043a10.066,10.066,0,0,0,.775,9.422,9.685,9.685,0,0,0,8.021,4.544c.088,0,.174,0,.261,0a10.1,10.1,0,0,0,10.127-9.937l.134-4.731c0-.046,0-.094,0-.141v-.032l.224-5.079,3.981.175-.224,5.072a4.528,4.528,0,0,0,4.524,4.682h2.931l.064-9.823,3.985.026-.063,9.8h5.241v-9.847Z" transform="translate(-4051.57 -1174.041)"/>
        </g>
      </g>
      <g id="Group_645" data-name="Group 645" transform="translate(61.951 5.183)">
        <path id="Path_832" data-name="Path 832" d="M4810.281,1147.573H4806.6a10.1,10.1,0,0,1-10.088-10.089v-18.923h4.011v18.923a6.084,6.084,0,0,0,6.077,6.077h3.683a7.155,7.155,0,0,0,3.9-1.15l2.924-1.892h-10.183l1.648-18.641h9.875a7.465,7.465,0,0,1,7.457,7.457c0,.048-.069,4.889-1.609,6.742l-3.085-2.563c-.021.026-.032.042-.032.042a12.738,12.738,0,0,0,.715-4.221,3.449,3.449,0,0,0-3.445-3.446h-6.2l-.939,10.619h7.142a3.615,3.615,0,0,1,1.964,6.65l-4.05,2.62A11.16,11.16,0,0,1,4810.281,1147.573Z" transform="translate(-4796.51 -1118.562)" fill="#070707"/>
      </g>
      <g id="Group_646" data-name="Group 646" transform="translate(43.471 16.159)">
        <path id="Path_833" data-name="Path 833" d="M4576.158,1268.513l-1.865-3.551,7.489-3.934a7.468,7.468,0,0,0,3.917-5.577l.772-4.9,3.974.055-.772,5.4a11.486,11.486,0,0,1-6.023,8.579Z" transform="translate(-4574.293 -1250.546)" fill="#070707"/>
      </g>
      <circle id="Ellipse_326" data-name="Ellipse 326" cx="2.775" cy="2.775" r="2.775" transform="translate(78.299 0)" fill="#070707"/>
    </g>
    <g id="Group_652" data-name="Group 652" transform="translate(4050.259 756.007)">
      <g id="Group_650" data-name="Group 650" transform="translate(0 0)">
        <g id="Group_648" data-name="Group 648" transform="translate(0 0.182)">
          <path id="Path_834" data-name="Path 834" d="M4133.318,1562.188a7.559,7.559,0,0,0,6.712-4.058l1.881-3.579-3.552-1.865-1.878,3.579a3.564,3.564,0,0,1-3.163,1.911H4108.3v8.163l21.852,7.641a2.078,2.078,0,0,1,1.391,1.959v1.441h-23.05a3.1,3.1,0,0,1-3.092-3.093v-3.425h-4.012v3.433a3.1,3.1,0,0,1-3.087,3.093h0a2.4,2.4,0,0,1-1.8-.818l-1.948-2.225a9.055,9.055,0,0,0-8.8-11.062l-11.669-.05v9.105a8.994,8.994,0,0,0,.225,2.006l-1.949,2.227a2.4,2.4,0,0,1-1.8.818h0l-2.656,0-2.434,0h-4.866v-14.144h-4.011v11.47a10.976,10.976,0,0,1-3.235,7.81l-3.085,3.085,2.836,2.836,3.085-3.085a15.1,15.1,0,0,0,2.853-3.962h6.417l5.09.008h.01a6.406,6.406,0,0,0,4.821-2.187l.877-1a9.027,9.027,0,0,0,6.882,3.18h2.584a9.028,9.028,0,0,0,6.884-3.18l.876,1a6.411,6.411,0,0,0,4.822,2.187h.009a7.079,7.079,0,0,1,10.186-.008h27.061v-5.453a6.092,6.092,0,0,0-4.077-5.745l-19.166-6.7v-1.306Zm-47.6,15.193h-2.584a5.048,5.048,0,0,1-5.043-5.042v-5.079l7.644.035a5.043,5.043,0,0,1-.017,10.086Z" transform="translate(-4050.259 -1552.687)" fill="#3d42df"/>
        </g>
        <g id="Group_649" data-name="Group 649" transform="translate(58.039)">
          <rect id="Rectangle_649" data-name="Rectangle 649" width="21.829" height="4.011" fill="#3d42df"/>
        </g>
      </g>
      <g id="Group_651" data-name="Group 651" transform="translate(42.675 30.384)">
        <circle id="Ellipse_327" data-name="Ellipse 327" cx="2.775" cy="2.775" r="2.775" transform="translate(6.752)" fill="#3d42df"/>
        <circle id="Ellipse_328" data-name="Ellipse 328" cx="2.775" cy="2.775" r="2.775" fill="#3d42df"/>
      </g>
    </g>
  </g>
</svg>
