<svg xmlns="http://www.w3.org/2000/svg" width="403.265" height="346.733" viewBox="0 0 403.265 346.733"><g transform="translate(-1134.735 -300.852)"><ellipse cx="77.5" cy="16.5" rx="77.5" ry="16.5" transform="translate(1383 614.585)" fill="#f2f2f2"/><path d="M255.354,505.528c.463,1.079.953,2.17,1.456,3.241l-1.078.506c-.509-1.084-1-2.186-1.472-3.277Z" transform="translate(903.14 -2.667)" fill="#e6e6e6"/><path d="M439.627,282.126c.68,1.449,1.333,2.926,1.942,4.389l-1.1.457c-.911-2.191-1.919-4.4-2.981-6.536l1.067-.53Q439.1,281.006,439.627,282.126Zm-4.526-8.61-1.028.6c-1.207-2.062-2.5-4.1-3.837-6.07l.984-.67C432.574,269.365,433.88,271.43,435.1,273.516Zm9.029,19.795c.774,2.288,1.477,4.628,2.09,6.956l-1.152.3c-.606-2.3-1.3-4.614-2.067-6.877Zm-17.2-31.792-.937.736c-1.474-1.874-3.033-3.72-4.633-5.487l.882-.8c1.619,1.788,3.2,3.655,4.687,5.55Zm20.9,45.832c.452,2.367.827,4.783,1.115,7.178l-1.182.142c-.285-2.369-.656-4.756-1.1-7.1Zm-30.646-56.594-.825.859c-1.718-1.652-3.515-3.264-5.339-4.792l.765-.913C413.627,247.455,415.444,249.085,417.182,250.756Zm32.379,71.02c.122,2.414.16,4.861.115,7.272l-1.191-.022c.045-2.383.006-4.8-.114-7.189Zm-43.5-80.331-.7.963c-1.929-1.4-3.931-2.752-5.949-4.016l.632-1.01C402.086,238.662,404.109,240.029,406.061,241.446Zm43.229,94.863c-.211,2.407-.507,4.834-.882,7.215l-1.176-.185c.37-2.354.664-4.754.872-7.134ZM393.763,233.741l-.562,1.05c-2.1-1.125-4.27-2.192-6.443-3.17l.488-1.086C389.445,231.524,391.638,232.6,393.763,233.741ZM447.035,350.66c-.536,2.35-1.161,4.714-1.857,7.025l-1.14-.344c.688-2.285,1.305-4.622,1.836-6.946ZM380.526,227.779l-.414,1.117c-2.236-.829-4.53-1.591-6.817-2.266l.337-1.142C375.946,226.17,378.265,226.941,380.526,227.779Zm62.322,136.786c-.851,2.258-1.792,4.514-2.793,6.705l-1.083-.5c.991-2.167,1.92-4.4,2.762-6.63ZM366.6,223.671l-.259,1.162c-2.326-.517-4.7-.96-7.063-1.318l.179-1.177C361.84,222.7,364.244,223.148,366.6,223.671Zm70.215,154.1c-1.15,2.12-2.388,4.226-3.678,6.26l-1.006-.638c1.276-2.011,2.5-4.094,3.638-6.19ZM352.232,221.5l-.1,1.186c-2.38-.195-4.8-.309-7.181-.34l.016-1.19C347.382,221.183,349.825,221.3,352.232,221.5Zm76.8,168.525c-1.427,1.942-2.941,3.858-4.5,5.7l-.908-.77c1.539-1.817,3.035-3.712,4.446-5.632ZM337.7,221.309l.067,1.189c-2.384.134-4.794.353-7.164.651l-.148-1.182C332.85,221.666,335.288,221.445,337.7,221.309ZM419.664,401.09c-1.682,1.729-3.446,3.422-5.242,5.03l-.794-.888c1.776-1.59,3.519-3.263,5.182-4.972ZM323.282,223.124l.23,1.169c-2.34.461-4.694,1.009-6.994,1.629l-.31-1.15C318.535,224.146,320.915,223.591,323.282,223.124Zm85.565,187.65c-1.9,1.48-3.882,2.914-5.883,4.26l-.665-.988c1.978-1.331,3.935-2.748,5.817-4.211ZM309.264,226.9l.388,1.126c-2.251.776-4.507,1.641-6.706,2.57l-.463-1.1C304.706,228.561,306.987,227.687,309.264,226.9ZM396.8,418.88c-2.085,1.2-4.241,2.354-6.409,3.417l-.524-1.069c2.144-1.052,4.276-2.189,6.338-3.379ZM296.428,233.617c-2.132,1.075-4.251,2.235-6.3,3.449l-.607-1.024c2.071-1.228,4.215-2.4,6.37-3.489Zm-12.349,7.32c-1.966,1.356-3.907,2.8-5.769,4.278l-.742-.931c1.883-1.5,3.846-2.955,5.834-4.327Zm-11.228,8.943c-1.756,1.609-3.479,3.3-5.12,5.025l-.863-.821c1.659-1.745,3.4-3.455,5.178-5.082Zm-9.881,10.393c-1.521,1.838-3,3.75-4.383,5.684l-.968-.694c1.4-1.956,2.9-3.89,4.433-5.748ZM254.6,271.93c-1.256,2.03-2.456,4.127-3.567,6.232l-1.053-.556c1.123-2.129,2.337-4.249,3.607-6.3Zm-6.7,12.694c-.967,2.179-1.871,4.42-2.688,6.661l-1.119-.408c.826-2.266,1.74-4.533,2.718-6.737Zm-4.915,13.491c-.662,2.294-1.254,4.638-1.757,6.967l-1.164-.252c.509-2.355,1.107-4.726,1.777-7.046Zm-3.036,14.037c-.344,2.364-.61,4.768-.791,7.143l-1.188-.09c.183-2.4.452-4.833.8-7.225Zm-1.089,14.326c-.017,2.388.049,4.806.2,7.186l-1.189.073c-.149-2.408-.216-4.853-.2-7.269Zm.888,14.343c.311,2.364.71,4.747,1.183,7.084l-1.167.237c-.479-2.364-.882-4.774-1.2-7.165Zm2.853,14.07c.633,2.3,1.355,4.6,2.145,6.854l-1.124.394c-.8-2.277-1.529-4.609-2.169-6.931Z" transform="translate(911.139 134.42)" fill="#e6e6e6"/><path d="M515.484,613.259l.45,1.1c-1.113.454-2.24.891-3.349,1.3l-.412-1.117C513.269,614.141,514.383,613.708,515.484,613.259Z" transform="translate(778.81 -54.6)" fill="#e6e6e6"/><path d="M210.5,115.5V403.472H596.362V115.5Zm49.722,3.626a6.215,6.215,0,1,1-6.215,6.215A6.215,6.215,0,0,1,260.222,119.126Zm-37.291,12.43a6.215,6.215,0,1,1,6.215-6.215A6.215,6.215,0,0,1,222.93,131.556Zm12.43-6.215a6.215,6.215,0,1,1,6.215,6.215A6.215,6.215,0,0,1,235.361,125.341ZM449.268,322.674H241.576V168.329H449.268Z" transform="translate(924.235 185.352)" fill="#f2f2f2"/><rect width="12" transform="translate(1500 306.585)" fill="#fff"/><rect width="12" height="2" transform="translate(1500 310.585)" fill="#fff"/><rect width="12" transform="translate(1500 316.585)" fill="#fff"/><rect width="94" height="5" transform="translate(1406 350.585)" fill="#fff"/><rect width="94" height="4" transform="translate(1406 367.585)" fill="#fff"/><rect width="94" height="6" transform="translate(1406 382.585)" fill="#fff"/><rect width="94" height="4" transform="translate(1406 399.585)" fill="#fff"/><rect width="94" height="6" transform="translate(1406 414.585)" fill="#fff"/><rect width="94" height="4" transform="translate(1406 431.585)" fill="#fff"/><rect width="94" height="4" transform="translate(1406 448.585)" fill="#fff"/><rect width="94" height="6" transform="translate(1406 463.585)" fill="#fff"/><rect width="94" height="6" transform="translate(1406 478.585)" fill="#fff"/><rect width="94" height="4" transform="translate(1406 495.585)" fill="#fff"/><ellipse cx="6.5" cy="6" rx="6.5" ry="6" transform="translate(1171 512.585)" fill="#fff"/><ellipse cx="7.5" cy="6" rx="7.5" ry="6" transform="translate(1192 512.585)" fill="#fff"/><ellipse cx="6.5" cy="6" rx="6.5" ry="6" transform="translate(1215 512.585)" fill="#fff"/><rect width="94" height="27" transform="translate(1406 548.585)" fill="#8efaab"/><path d="M824.459,554.946l1.048,36.7,11.184,42.987s-2.447,7.339-.7,9.087,9.786,4.893,9.786,4.893l-6.64-91.566Z" transform="translate(628.268 -26.489)" fill="#2f2e41"/><path d="M842.071,725.251s3.988,8.774-1.6,9.572-31.374,2.925-29.779-1.6,21.005-8.774,21.005-8.774Z" transform="translate(634.936 -108.204)" fill="#2f2e41"/><path d="M861,492.088s-4.194,22.717-6.99,26.561,1.4,31.8,1.4,31.8,6.291,40.191,3.495,46.482-2.1,4.194-1.748,7.689,1.048,6.291,0,9.436a27.649,27.649,0,0,0-1.4,4.543c-.349,1.747,0,11.184,0,11.184s-15.028,5.242-17.475-2.447c0,0,3.495-4.893,2.447-8.737a46.55,46.55,0,0,1-1.748-11.883v-7.339l-16.076-60.112L819.061,517.6s1.048-22.018,4.893-24.115S861,492.088,861,492.088Z" transform="translate(630.87 3.866)" fill="#2f2e41"/><path d="M849.418,753.7s5.242,11.533-2.1,12.582-41.24,3.844-39.143-2.1,27.61-11.533,27.61-11.533Z" transform="translate(636.161 -121.797)" fill="#2f2e41"/><circle cx="13.98" cy="13.98" r="13.98" transform="translate(1464.955 367.357)" fill="#ffb9b9"/><path d="M877.833,282.252l-.26,17.853-17.139.058s4.35-13.976,2.4-16.9S877.833,282.252,877.833,282.252Z" transform="translate(610.926 105.262)" fill="#ffb9b9"/><path d="M832.336,326.34s12.232-15.727,21.668-9.087,12.931,22.367,12.931,22.367l-2.1,44.036s-5.242,6.291-2.1,10.485,4.893,3.145,2.446,6.291-5.242,5.592-4.194,6.64-1.048,1.747-1.048,1.747L822.9,409.868s1.048-1.4-2.1-5.592.7-9.786,0-11.883-1.4.349-1.747-4.543S832.336,326.34,832.336,326.34Z" transform="translate(630.876 88.881)" fill="#3f3d56"/><path d="M840.211,507.158s-.7,8.737-5.941,10.135c-1.966.524-3.44-.475-4.515-1.929a8.583,8.583,0,0,1-.274-9.629l1.295-2.072Z" transform="translate(626.496 -1.769)" fill="#ffb9b9"/><path d="M880.363,301.075s.349,6.99,0,8.038-.7,2.1,0,3.145.349,4.543-.349,4.893,1.4,3.495.7,5.592a15.164,15.164,0,0,1-1.747,3.495c-.35.7-.913,1.951-.913,1.951s-10.271-21.872-18.659-16.63a60.785,60.785,0,0,1-15.028,6.99S848.909,294.085,880.363,301.075Z" transform="translate(618.671 96.497)" fill="#3f3d56"/><path d="M858.752,333.542s11.184,1.048,10.485,15.727,1.048,37.745,1.048,37.745-19.222,29.357-22.367,31.454-3.495,1.747-3.145,3.495.7,3.145-.7,4.543a12.064,12.064,0,0,1-2.8,2.1s-11.183-3.844-10.135-7.339,5.941-9.087,5.941-9.087,8.388-13.63,8.737-15.727.349-1.747,1.4-2.8,3.844-5.242,3.844-7.339v-6.64l-2.93-35.486a10.288,10.288,0,0,1,2.728-7.967A8.9,8.9,0,0,1,858.752,333.542Z" transform="translate(625.079 80.282)" fill="#3f3d56"/><path d="M851.465,240.265a5.7,5.7,0,0,1-5.279-1.209,4.31,4.31,0,0,1-.853-5.162,6.807,6.807,0,0,1,4.025-2.561,35.639,35.639,0,0,1,10.584-1.614,9.5,9.5,0,0,1,4.962,1.031c.724.438,1.338,1.04,2.055,1.491a25.636,25.636,0,0,0,4.345,1.682,11.146,11.146,0,0,1,6.352,6.727,13.422,13.422,0,0,1,.617,3.16,17.31,17.31,0,0,1-1.51,8.581c-1.95,4.252-5.661,7.827-6.186,12.476-2-1.677-2.584-4.491-4.131-6.591a8.544,8.544,0,0,0-4.665-3.166,2.715,2.715,0,0,1-1.413-.631,2.34,2.34,0,0,1-.442-1.273l-.959-6.906c-.2-1.406-.459-2.942-1.537-3.864a5.466,5.466,0,0,0-2.29-.994,36.937,36.937,0,0,0-5.978-.975" transform="translate(618.455 130.291)" fill="#2f2e41"/><path d="M885.24,446.5l-19.619,25.46S883.686,456.859,885.24,446.5Z" transform="translate(608.425 25.787)" opacity="0.1"/><path d="M646.209,276.575l.186,24.045L635,317.712l9.323-19.164Z" transform="translate(828.625 167.524)" opacity="0.1"/><g transform="translate(-2855.761 -294.983)"><g transform="translate(4131.471 683.941)"><path d="M5463.616,711.76c-.045-.106-.091-.211-.141-.315-.106-.225-.224-.444-.351-.656l-.08-.13a7.627,7.627,0,0,0-.469-.663h0q-.222-.28-.468-.539a7.7,7.7,0,0,0-3.755-2.179h.117a6.12,6.12,0,0,0-5.433-6.082l0,0c-15.544-1.62-19.753-9.294-21.373-11.2a31.1,31.1,0,0,0,.719,6.383,21.064,21.064,0,0,1-3.824-9.771,26.483,26.483,0,0,0-2.61,11.486c-1.212-4.348-.746-9.1.937-14.152-8.136,5.618-14.875,16.517-17.127,26.2q-.156.672-.283,1.334a30.005,30.005,0,0,0-.425,3.01c0,.005,0,.008,0,.016-.028.183-.054.366-.082.549a9.227,9.227,0,0,0-.057,1.03v33.692a11.881,11.881,0,0,0,11.964,11.8h31.357a11.881,11.881,0,0,0,11.964-11.8V714.654A7.455,7.455,0,0,0,5463.616,711.76Zm-5.8,38.012a5.515,5.515,0,0,1-5.555,5.475H5420.9c-.068,0-.13,0-.2,0h-.011c-.041,0-.082,0-.123-.006l-.128-.008c-.08-.006-.159-.014-.238-.022-.011,0-.021,0-.03-.005a5.514,5.514,0,0,1-4.861-5.435V748.1a.541.541,0,0,1,.03.049v-29.3a5.39,5.39,0,0,1,.153-1.282,5.541,5.541,0,0,1,5.4-4.2h31.36a5.54,5.54,0,0,1,5.4,4.208,5.4,5.4,0,0,1,.15,1.271Z" transform="translate(-5408.91 -683.941)" fill="#070707"/><path d="M5464.2,1086.739v4.051q-3.179-.627-6.379-1.106l-.15-.022a142.427,142.427,0,0,0-42.166-.011l-.153.023q-3.229.483-6.437,1.117v-2.629a9.23,9.23,0,0,1,.057-1.03c.028-.183.054-.366.082-.549,0-.008,0-.011,0-.016a30.007,30.007,0,0,1,.425-3.01q.127-.662.283-1.334a142.367,142.367,0,0,1,52.814-.143h0a7.638,7.638,0,0,1,.469.663l.08.13c.127.212.245.432.351.656.05.1.1.208.141.315A7.455,7.455,0,0,1,5464.2,1086.739Z" transform="translate(-5408.91 -1056.026)" fill="#3d42df"/><g transform="translate(53.211 20.875)"><path d="M6302.768,1038.9a7.3,7.3,0,1,0,13.427-5.725Z" transform="translate(-6302.549 -1033.173)" fill="#3d42df"/><g transform="translate(0 5.198)"><path d="M6299.6,1120.126a10.666,10.666,0,0,0,20.36,6.364Z" transform="translate(-6299.106 -1120.126)" fill="#3d42df"/></g></g><path d="M5917.953,1367.921a9.4,9.4,0,0,0-6.749,2.854c-.68.679-1.042,1.459-.352,2.289s1.485.555,2.3.017c2.809-1.867,5.526-1.518,7.9.963a2.643,2.643,0,0,0,3.9.214,2.588,2.588,0,0,0-.336-3.883A9.928,9.928,0,0,0,5917.953,1367.921Z" transform="translate(-5880.5 -1327.037)"/><g transform="translate(12.164 38.587)"><g transform="translate(4.061 11.691)"><path d="M5680.35,1525.072" transform="translate(-5680.35 -1525.072)"/></g><path d="M5617.517,1388.627l-1.715,1.715-.562.562h-2.16a.677.677,0,0,1-.677-.677v-3.2a.677.677,0,0,1,.677-.677h2.16l.562.563Z" transform="translate(-5612.403 -1382.951)"/><path d="M5673.828,1330.163v2.16l-.562.562-1.715,1.715-2.277-2.277v-2.16a.677.677,0,0,1,.678-.677h3.2A.677.677,0,0,1,5673.828,1330.163Z" transform="translate(-5665.874 -1329.486)"/><path d="M5673.828,1436.134v2.16a.677.677,0,0,1-.677.677h-3.2a.678.678,0,0,1-.678-.677v-2.16l.563-.562,1.715-1.715,1.716,1.715Z" transform="translate(-5665.874 -1427.618)"/><path d="M5721.9,1387.027v3.2a.677.677,0,0,1-.678.677h-2.16l-.562-.562-1.715-1.715,1.715-1.715.563-.563h2.16A.677.677,0,0,1,5721.9,1387.027Z" transform="translate(-5710.542 -1382.951)"/></g><path d="M5887.108,1637.133a12.66,12.66,0,0,1-3.04,2.867,14.443,14.443,0,0,1-3.806,1.821c-.335.11-.68.192-1.021.282-.347.07-.689.154-1.039.2l-.523.077c-.174.028-.351.035-.525.053s-.351.032-.526.04l-.527.015-.264,0-.264-.007-.525-.02c-.177-.006-.331-.021-.5-.034l-.489-.041c-.327-.029-.654-.059-.981-.1s-.653-.076-.979-.125a.86.86,0,0,1,0-1.7c.326-.05.653-.089.979-.125s.654-.069.981-.1l.973-.079.455-.044.226-.021.227-.032.45-.058c.149-.022.3-.052.447-.075.3-.043.593-.113.888-.172.147-.027.293-.067.438-.1l.438-.107.433-.127c.145-.041.29-.079.431-.13a20.86,20.86,0,0,0,3.322-1.407,29.455,29.455,0,0,0,3.117-1.96l.018-.012a.859.859,0,0,1,1.185,1.214Z" transform="translate(-5843.727 -1578.867)"/></g><g transform="translate(4108.543 729.431)"><path d="M5025.332,1444.966" transform="translate(-5025.332 -1444.966)" fill="none" stroke="#000" stroke-miterlimit="10" stroke-width="9"/></g><g transform="translate(4078.947 729.431)"><path d="M4530.2,1444.966" transform="translate(-4530.198 -1444.966)" fill="none" stroke="#000" stroke-miterlimit="10" stroke-width="31"/></g><g transform="translate(4088.02 729.431)"><path d="M4681.982,1444.966" transform="translate(-4681.982 -1444.966)" fill="none" stroke="#000" stroke-miterlimit="10" stroke-width="31"/></g><g transform="translate(4050.337 706.195)"><g transform="translate(0 7.041)"><path d="M4086.631,1174.582v9.942h-11.6a6.064,6.064,0,0,1-3.524-1.114,10.1,10.1,0,0,1-9.968,8.3c-.087,0-.173,0-.259,0a9.915,9.915,0,0,1-8.107-4.585,10.093,10.093,0,0,1-.774-9.451l1.563-3.626,2.63,1.135-1.563,3.625a7.232,7.232,0,0,0,.557,6.772,6.96,6.96,0,0,0,5.766,3.266l.188,0a7.256,7.256,0,0,0,7.279-7.142l.1-3.4c0-.033,0-.068,0-.1v-.023l.161-3.651,2.861.126-.161,3.645a3.254,3.254,0,0,0,3.251,3.365h2.107l.046-7.06,2.864.018-.045,7.042h3.767v-7.078Z" transform="translate(-4051.57 -1174.041)"/></g><g transform="translate(44.528 3.725)"><path d="M4806.408,1139.414h-2.647a7.259,7.259,0,0,1-7.251-7.251v-13.6h2.883v13.6a4.373,4.373,0,0,0,4.368,4.368h2.647a5.145,5.145,0,0,0,2.8-.827l2.1-1.36h-7.319l1.185-13.4h7.1a5.366,5.366,0,0,1,5.359,5.359c0,.035-.05,3.514-1.157,4.846l-2.217-1.843c-.016.019-.023.03-.023.03a9.156,9.156,0,0,0,.514-3.034,2.479,2.479,0,0,0-2.476-2.476h-4.458l-.675,7.632h5.133a2.6,2.6,0,0,1,1.412,4.78l-2.912,1.883A8.018,8.018,0,0,1,4806.408,1139.414Z" transform="translate(-4796.51 -1118.562)" fill="#070707"/></g><g transform="translate(31.245 11.614)"><path d="M4575.634,1263.46l-1.341-2.552,5.384-2.828a5.366,5.366,0,0,0,2.814-4.008l.555-3.525,2.856.039-.555,3.881a8.257,8.257,0,0,1-4.33,6.166Z" transform="translate(-4574.293 -1250.546)" fill="#070707"/></g><circle cx="1.995" cy="1.995" r="1.995" transform="translate(56.278 0)" fill="#070707"/></g><g transform="translate(4050.259 735.739)"><g transform="translate(0 0)"><g transform="translate(0 0.131)"><path d="M4109.958,1559.516a5.436,5.436,0,0,0,4.825-2.916l1.352-2.573-2.554-1.34-1.35,2.573a2.561,2.561,0,0,1-2.273,1.374h-17.982v5.867l15.707,5.492a1.494,1.494,0,0,1,1,1.408v1.036h-16.568a2.225,2.225,0,0,1-2.223-2.223v-2.462h-2.883v2.468a2.226,2.226,0,0,1-2.219,2.222h0a1.722,1.722,0,0,1-1.3-.588l-1.4-1.6a6.445,6.445,0,0,0,.162-1.442,6.52,6.52,0,0,0-6.486-6.508l-8.387-.036v6.544a6.465,6.465,0,0,0,.162,1.441l-1.4,1.6a1.721,1.721,0,0,1-1.3.588h0l-1.909,0-1.75,0h-3.5v-10.166H4054.8v8.245a7.89,7.89,0,0,1-2.325,5.614l-2.217,2.217,2.039,2.039,2.217-2.217a10.844,10.844,0,0,0,2.051-2.848h4.612l3.659.006h.007a4.6,4.6,0,0,0,3.465-1.572l.631-.72a6.488,6.488,0,0,0,4.947,2.286h1.857a6.489,6.489,0,0,0,4.948-2.286l.629.72a4.609,4.609,0,0,0,3.466,1.572h.006a5.088,5.088,0,0,1,7.321-.006h19.45V1569.4a4.378,4.378,0,0,0-2.93-4.129l-13.776-4.817v-.938Zm-34.215,10.92h-1.857a3.628,3.628,0,0,1-3.625-3.624v-3.65l5.494.025a3.625,3.625,0,0,1-.012,7.25Z" transform="translate(-4050.259 -1552.687)" fill="#3d42df"/></g><g transform="translate(41.716)"><rect width="15.69" height="2.883" fill="#3d42df"/></g></g><g transform="translate(30.673 21.839)"><circle cx="1.995" cy="1.995" r="1.995" transform="translate(4.853)" fill="#3d42df"/><circle cx="1.995" cy="1.995" r="1.995" fill="#3d42df"/></g></g></g></g></svg>