<svg xmlns="http://www.w3.org/2000/svg" width="23.402" height="23.583" viewBox="0 0 23.402 23.583"><path d="M64.3,93.347H77.427l-.227-3.08L66.421,87.82A2.121,2.121,0,0,0,64.3,89.941Z" transform="translate(-61.949 -84.609)"/><path d="M385.151,541.67a1.989,1.989,0,0,1-1.421,1.687,1.019,1.019,0,0,1,.116-.049A2,2,0,0,0,385.151,541.67Z" transform="translate(-369.7 -521.865)"/><path d="M9.974.012a4.479,4.479,0,0,0-.809,2.011A2.4,2.4,0,0,1,10.554.78S8.992,3.5,14.145,4.149a17.4,17.4,0,0,0,1.755.235h0a6.37,6.37,0,0,1,2.245.679,1.03,1.03,0,0,1,.5,1.2h0a.156.156,0,0,0,.154.2l.053,0a1.027,1.027,0,0,1,.963.6A8.355,8.355,0,0,1,20.5,9.426a1.039,1.039,0,0,1,.008.131V19.584c0,.05,0,.1,0,.149s-.006.107-.01.161a4,4,0,0,1-3.984,3.689h-8.4a1.005,1.005,0,0,1,0-2.011h8.4a1.94,1.94,0,0,0,.554-.08A1.989,1.989,0,0,0,18.486,19.8c0-.024.005-.049.007-.073v0a.694.694,0,0,0,0-.078c0-.027,0-.054,0-.081V9.707c0-.057,0-.114,0-.17s0-.084-.007-.125V9.4c0-.034,0-.067-.009-.1-.006-.071-.015-.141-.026-.211a.164.164,0,0,0,0-.019q0-.028-.009-.056c0-.018-.006-.037-.01-.053-.007-.039-.014-.079-.023-.118-.019-.088-.04-.174-.065-.259-.011-.042-.023-.083-.037-.123s-.027-.082-.042-.122c-.027-.081-.058-.16-.092-.238s-.069-.155-.107-.231l0-.005c-.017-.037-.037-.073-.057-.11a2.195,2.195,0,0,0-.123-.21s-.007-.011-.011-.016a1.177,1.177,0,0,0-.065-.1c-.047-.07-.1-.138-.15-.205l-.047-.058a2.2,2.2,0,0,0-1.7-.777h0a11.789,11.789,0,0,1-4.617-.929A11.776,11.776,0,0,1,8.185,3.538a6.077,6.077,0,0,0-.7.661c-.094.1-.187.208-.28.321-.046.056-.093.113-.139.173s-.091.117-.134.177c-.031.04-.06.081-.09.121s-.062.087-.093.131c-.11.161-.216.325-.316.493-.033.053-.064.107-.094.162l-.091.163h0c-.03.055-.059.11-.087.166s-.056.112-.083.167-.055.113-.081.17q-.115.252-.216.512c0,.005,0,.011-.006.017-.022.055-.044.11-.063.168s-.042.118-.062.178c-.041.119-.079.239-.113.361s-.069.242-.1.364c-.016.067-.033.134-.048.2s-.024.113-.037.171-.024.124-.037.186-.023.124-.033.186-.024.152-.037.228l-.01.073c-.01.07-.018.14-.024.21s-.015.138-.021.208c-.015.174-.026.348-.03.525,0,.058,0,.115,0,.174v6.389a1.063,1.063,0,0,1-1.944.554.269.269,0,0,1-.065-.162V10.3c0-.133,0-.265.008-.4,0-.047,0-.094.007-.14s0-.1.008-.152.008-.127.014-.19A11.319,11.319,0,0,1,3.51,7.475,15.954,15.954,0,0,1,8.405,0a5.509,5.509,0,0,0-.658,2.016A5.9,5.9,0,0,1,9.974.012Z" transform="translate(-3.035)"/><path d="M385.151,541.67a1.989,1.989,0,0,1-1.421,1.687,1.019,1.019,0,0,1,.116-.049A2,2,0,0,0,385.151,541.67Z" transform="translate(-369.7 -521.865)"/><path d="M385.151,541.67a1.989,1.989,0,0,1-1.421,1.687,1.019,1.019,0,0,1,.116-.049A2,2,0,0,0,385.151,541.67Z" transform="translate(-369.7 -521.865)"/><path d="M3.15,265.5v9.877c0,.05,0,.1,0,.149s.006.108.01.161a4,4,0,0,0,3.984,3.689h8.4a1.005,1.005,0,0,0,0-2.011h-8.4a1.943,1.943,0,0,1-.554-.08A1.989,1.989,0,0,1,5.172,275.6c0-.024-.005-.049-.007-.073v0a.693.693,0,0,1,0-.078V265.5" transform="translate(-3.035 -255.793)"/><path d="M385.151,541.67a1.989,1.989,0,0,1-1.421,1.687,1.019,1.019,0,0,1,.116-.049A2,2,0,0,0,385.151,541.67Z" transform="translate(-369.7 -521.865)"/><path d="M275.8,347.3a2.311,2.311,0,0,0-1.66.7c-.167.167-.256.359-.086.563s.366.137.565,0a1.392,1.392,0,0,1,1.944.237.65.65,0,0,0,.959.053.64.64,0,0,0-.083-.955A2.446,2.446,0,0,0,275.8,347.3Z" transform="translate(-263.946 -334.602)"/><path d="M122.448,351.49l-.422.422-.138.139h-.531a.167.167,0,0,1-.167-.167V351.1a.167.167,0,0,1,.167-.166h.531l.138.138Z" transform="translate(-116.759 -338.099)"/><path d="M145.181,328.226v.532l-.139.138-.422.422-.56-.56v-.532a.167.167,0,0,1,.167-.166h.787A.167.167,0,0,1,145.181,328.226Z" transform="translate(-138.793 -316.065)"/><path d="M145.181,370.562v.531a.167.167,0,0,1-.167.167h-.787a.167.167,0,0,1-.167-.167v-.531l.138-.138.422-.423.422.422Z" transform="translate(-138.793 -356.472)"/><path d="M164.428,351.077v.787a.167.167,0,0,1-.167.167h-.531l-.138-.139-.422-.422.422-.422.138-.138h.531a.167.167,0,0,1,.167.167Z" transform="translate(-157.204 -338.08)"/><path d="M465.25,179.579a2.269,2.269,0,1,0,4.174-1.779Z" transform="translate(-448.24 -171.299)" fill="#0600fc"/><path d="M465.487,220.13a3.315,3.315,0,1,0,6.152,2.474Z" transform="translate(-448.236 -212.082)" fill="#0600fc"/><path d="M239.319,471.728a3.817,3.817,0,0,1-.914.863,4.349,4.349,0,0,1-1.146.548c-.1.033-.2.058-.307.085s-.208.046-.313.061l-.158.023c-.052.008-.106.011-.158.016s-.106.01-.158.012l-.159,0h-.079l-.079,0-.158-.006c-.053,0-.1-.007-.15-.01l-.146-.012c-.1-.009-.2-.018-.3-.029s-.2-.023-.3-.037a.259.259,0,0,1,0-.512c.1-.015.2-.027.3-.037s.2-.021.3-.03l.292-.024.137-.014.068-.006.068-.01.136-.017.135-.023c.09-.013.178-.034.268-.052.045-.008.088-.02.132-.031l.132-.032.131-.038c.043-.012.087-.024.13-.039a6.287,6.287,0,0,0,1-.424,8.909,8.909,0,0,0,.939-.59l.005,0a.258.258,0,0,1,.357.366Z" transform="translate(-226.005 -454.083)"/><path d="M.2,194.085l1.143-.24a36.724,36.724,0,0,1,15.149.016l1.056.224-.2,2.245-1-.214a36.725,36.725,0,0,0-15.15-.034L0,196.33" transform="translate(0 -186.005)" fill="#0600fc"/></svg>