<svg xmlns="http://www.w3.org/2000/svg" viewBox="0 0 202.9 157.61">


<defs>

<style>.cls-1{fill:#f1f1f1;}.cls-2{fill:#1d1d1b;}.cls-3{fill:#e41d20;}.cls-4{fill:#e52421;}</style>

</defs>

<g id="Layer_2" data-name="Layer 2">
<g id="Layer_2-2" data-name="Layer 2">
<path class="cls-1" d="M199.35,89.19c14.91,92.5-19.56,61.14-58.08,45.81a65.88,65.88,0,0,0-27.74-4.54c-24.27,1.25-44.5,4-63.09,3.82a48.56,48.56,0,0,1-42-24.55C-9.34,78.13,1.31,36.16,37.34,17.14a40.33,40.33,0,0,1,40.61,2c20.64,13.3,47.49,35.17,71.16,25.08a22.23,22.23,0,0,1,20.55,1.27C183.87,54.42,193.66,69.13,199.35,89.19Z"/><circle class="cls-1" cx="152.96" cy="16.85" r="14.04"/><circle class="cls-1" cx="111.77" cy="5.02" r="5.02"/><path class="cls-2" d="M153.05,78.48a2,2,0,0,1-2-2V44.66a9,9,0,0,0-9-9H71.79a2,2,0,1,1,0-3.93h70.26a13,13,0,0,1,13,13V76.51A2,2,0,0,1,153.05,78.48Z"/><path class="cls-2" d="M153.05,115a2,2,0,0,1-2-2V98.34a2,2,0,0,1,3.94,0V113A2,2,0,0,1,153.05,115Z"/><path class="cls-2" d="M130.9,140.18H88.79a4.26,4.26,0,0,1-4.26-4.26V108.35h-.67a2,2,0,1,1,0-3.93h4.6v31.5a.35.35,0,0,0,.33.33H130.9a2,2,0,1,1,0,3.93Z"/><path class="cls-2" d="M88.46,108H84.52V48.49A12.94,12.94,0,0,0,73.6,35.77l.6-3.89A16.87,16.87,0,0,1,88.46,48.49Z"/><rect class="cls-2" x="42.78" y="104.42" width="41.08" height="3.94"/><path class="cls-2" d="M88.46,108H84.52V48.49A12.94,12.94,0,0,0,73.6,35.77l.6-3.89A16.87,16.87,0,0,1,88.46,48.49Z"/><path class="cls-2" d="M42.87,108.26a16,16,0,0,1-16-16h3.94a12.07,12.07,0,0,0,24.11.75c0-.26,0-.5,0-.75V47.55A16.88,16.88,0,0,1,69.13,31.88l.6,3.89A12.91,12.91,0,0,0,58.84,47.71V92.3c0,.34,0,.67,0,1A16,16,0,0,1,42.87,108.26Z"/><path class="cls-2" d="M42.87,108.26a16,16,0,0,1-16-16V10a4.27,4.27,0,0,1,4.27-4.26h62A4.27,4.27,0,0,1,97.32,10V35.62H71.79V31.69H93.38V10a.35.35,0,0,0-.33-.33h-62a.34.34,0,0,0-.33.33V92.3a12.07,12.07,0,0,0,24.11.75c0-.26,0-.5,0-.75V47.55A16.88,16.88,0,0,1,69.13,31.88l.6,3.89A12.91,12.91,0,0,0,58.84,47.71V92.3c0,.34,0,.67,0,1A16,16,0,0,1,42.87,108.26Z"/><path class="cls-2" d="M58.8,93.3l-3.93-.14V48.49c0-.33,0-.66,0-1l3.94.15V92.3C58.84,92.64,58.83,93,58.8,93.3Z"/><path class="cls-2" d="M73.61,35.77a14.71,14.71,0,0,0-1.85-.15h-.1a12.85,12.85,0,0,0-1.94.14l-.59-3.89a16.79,16.79,0,0,1,2.53-.2h.13a19.26,19.26,0,0,1,2.39.2Z"/><rect class="cls-2" x="26.95" y="47.66" width="3.67" height="44.65"/><path class="cls-2" d="M106.62,52.57H96a2,2,0,0,1,0-3.94h10.59a2,2,0,0,1,0,3.94Z"/><path class="cls-2" d="M103.69,63.54H95.9a2,2,0,0,1,0-3.94h7.79a2,2,0,0,1,0,3.94Z"/><path class="cls-2" d="M116.83,63.67h-7.78a2,2,0,1,1,0-3.94h7.78a2,2,0,0,1,0,3.94Z"/><path class="cls-2" d="M153.05,93.2a2,2,0,0,1-2-2V83.45a2,2,0,0,1,3.94,0v7.78A2,2,0,0,1,153.05,93.2Z"/><path class="cls-2" d="M103.69,117.42H95.26a2,2,0,0,1,0-3.94h8.43a2,2,0,0,1,0,3.94Z"/><path class="cls-2" d="M105.69,128.52H97.26a2,2,0,1,1,0-3.94h8.43a2,2,0,0,1,0,3.94Z"/><path class="cls-2" d="M114.43,117.29h-5.55a2,2,0,1,1,0-3.94h5.55a2,2,0,0,1,0,3.94Z"/><path class="cls-2" d="M137.9,117.29H121.52a2,2,0,1,1,0-3.94H137.9a2,2,0,0,1,0,3.94Z"/><path class="cls-2" d="M114.66,97.63a2,2,0,0,1-.88-.21,2,2,0,0,1-.88-2.64c1.35-2.69,4.54-4.37,8.34-4.39s7,1.65,8.45,4.37a2,2,0,1,1-3.5,1.8c-.71-1.37-2.65-2.24-4.92-2.23s-4.19.9-4.84,2.21A2,2,0,0,1,114.66,97.63Z"/><circle class="cls-2" cx="135.73" cy="80.47" r="4.09"/><circle class="cls-2" cx="105.73" cy="80.47" r="4.09"/><path class="cls-2" d="M59.39,24.51H38.2a2,2,0,0,1,0-4H59.39a2,2,0,0,1,0,4Z"/><path class="cls-2" d="M75.35,24.48h-8.3a2,2,0,1,1,0-3.94h8.3a2,2,0,0,1,0,3.94Z"/><path class="cls-2" d="M46.75,36h-8.3a2,2,0,0,1,0-3.94h8.3a2,2,0,0,1,0,3.94Z"/><path class="cls-2" d="M44.62,46.91H37.3a2,2,0,0,1,0-3.94h7.32a2,2,0,1,1,0,3.94Z"/><path class="cls-2" d="M56.71,46.91H50.66a2,2,0,0,1,0-3.94h6.05a2,2,0,1,1,0,3.94Z"/><path class="cls-2" d="M56.58,57.67H38.2a2,2,0,0,1,0-3.94H56.58a2,2,0,0,1,0,3.94Z"/><path class="cls-2" d="M56.58,91.12H38.2a2,2,0,1,1,0-3.94H56.58a2,2,0,1,1,0,3.94Z"/><path class="cls-2" d="M46.75,69.16h-8.3a2,2,0,0,1,0-3.94h8.3a2,2,0,0,1,0,3.94Z"/><path class="cls-2" d="M44.62,80.1H37.3a2,2,0,0,1,0-3.94h7.32a2,2,0,1,1,0,3.94Z"/><path class="cls-2" d="M56.71,80.1H50.66a2,2,0,0,1,0-3.94h6.05a2,2,0,1,1,0,3.94Z"/><path class="cls-3" d="M179.86,93.51a4.41,4.41,0,1,1,4.4-4.4A4.42,4.42,0,0,1,179.86,93.51Zm0-6.81a2.41,2.41,0,1,0,2.4,2.41A2.41,2.41,0,0,0,179.86,86.7Z"/><path class="cls-3" d="M15.26,73.61a4.08,4.08,0,1,1,4.07-4.08A4.08,4.08,0,0,1,15.26,73.61Zm0-6.3a2.23,2.23,0,1,0,2.22,2.22A2.22,2.22,0,0,0,15.26,67.31Z"/><path class="cls-2" d="M153.9,157.61a1.53,1.53,0,0,1-1.53-1.5,1.47,1.47,0,0,1,1.46-1.5h.07a18.26,18.26,0,0,0,2.77-.21,1.49,1.49,0,0,1,1.71,1.25,1.5,1.5,0,0,1-1.26,1.71A21.62,21.62,0,0,1,153.9,157.61Zm-7.07-1.32a1.52,1.52,0,0,1-.55-.1,21.91,21.91,0,0,1-3-1.43,1.5,1.5,0,0,1,1.51-2.6,17.1,17.1,0,0,0,2.55,1.23,1.51,1.51,0,0,1,.86,1.94A1.5,1.5,0,0,1,146.83,156.29Zm16.8-1.27a1.5,1.5,0,0,1-.75-2.8,17.9,17.9,0,0,0,2.34-1.6A1.5,1.5,0,0,1,167.1,153a19.6,19.6,0,0,1-2.73,1.86A1.42,1.42,0,0,1,163.63,155Zm-25-4.71a1.48,1.48,0,0,1-1.16-.56,20.18,20.18,0,0,1-1.87-2.72,1.5,1.5,0,0,1,2.6-1.5,18.6,18.6,0,0,0,1.6,2.34,1.5,1.5,0,0,1-.22,2.11A1.52,1.52,0,0,1,138.65,150.31Zm32.16-2.42a1.51,1.51,0,0,1-1.29-2.26,17.1,17.1,0,0,0,1.23-2.55,1.5,1.5,0,0,1,2.8,1.09,20.84,20.84,0,0,1-1.44,3A1.5,1.5,0,0,1,170.81,147.89Zm-36.26-6.84a1.51,1.51,0,0,1-1.48-1.27,22,22,0,0,1-.25-3.25,1.52,1.52,0,0,1,1.5-1.52,1.48,1.48,0,0,1,1.5,1.48v0a18.52,18.52,0,0,0,.22,2.79,1.5,1.5,0,0,1-1.26,1.71Zm38.92-3a1.46,1.46,0,0,1-1.5-1.45v-.11a17.74,17.74,0,0,0-.22-2.81,1.5,1.5,0,0,1,3-.46,21.25,21.25,0,0,1,.25,3.29A1.53,1.53,0,0,1,173.47,138.07ZM135.63,131a1.47,1.47,0,0,1-.54-.1,1.5,1.5,0,0,1-.86-1.94,21.47,21.47,0,0,1,1.43-3,1.5,1.5,0,0,1,2.6,1.51A17.1,17.1,0,0,0,137,130,1.5,1.5,0,0,1,135.63,131Zm35.23-2.73a1.5,1.5,0,0,1-1.3-.75,18.68,18.68,0,0,0-1.61-2.34,1.5,1.5,0,1,1,2.33-1.88,20.18,20.18,0,0,1,1.87,2.72,1.5,1.5,0,0,1-.54,2.05A1.59,1.59,0,0,1,170.86,128.25ZM141.6,122.8a1.48,1.48,0,0,1-1.16-.56,1.51,1.51,0,0,1,.22-2.11,21.86,21.86,0,0,1,2.72-1.87,1.51,1.51,0,0,1,2.05.55,1.49,1.49,0,0,1-.55,2,17.57,17.57,0,0,0-2.33,1.61A1.52,1.52,0,0,1,141.6,122.8Zm22.1-1.72a1.43,1.43,0,0,1-.75-.2,18.75,18.75,0,0,0-2.56-1.22,1.5,1.5,0,0,1,1.08-2.8,20.84,20.84,0,0,1,3,1.42,1.5,1.5,0,0,1-.75,2.8Zm-12.84-2.39a1.5,1.5,0,0,1-.23-3,20.9,20.9,0,0,1,3.27-.25,1.51,1.51,0,0,1,1.51,1.5,1.49,1.49,0,0,1-1.49,1.5h0a18.78,18.78,0,0,0-2.81.21A.93.93,0,0,1,150.86,118.69Z"/><path class="cls-2" d="M154,143.71a4.43,4.43,0,0,1-4.43-4.42v-5.81a4.43,4.43,0,0,1,8.85,0v5.81A4.43,4.43,0,0,1,154,143.71Zm0-11.49a1.25,1.25,0,0,0-1.26,1.26v5.81a1.26,1.26,0,1,0,2.51,0v-5.81A1.25,1.25,0,0,0,154,132.22Z"/><path class="cls-4" d="M120.5,25.78a2,2,0,0,1-2-2V13.12a2,2,0,0,1,4,0V23.78A2,2,0,0,1,120.5,25.78Z"/><path class="cls-4" d="M127.37,25.78A2,2,0,0,1,126,22.36l7.54-7.54a2,2,0,0,1,2.82,2.83l-7.53,7.54A2,2,0,0,1,127.37,25.78Z"/><path class="cls-4" d="M113.91,25.78a2,2,0,0,1-1.41-.59L105,17.65a2,2,0,0,1,2.83-2.83l7.53,7.54a2,2,0,0,1-1.41,3.42Z"/><path class="cls-4" d="M183.17,71.08h-3.68a.6.6,0,1,1,0-1.2h3.68a.6.6,0,1,1,0,1.2Z"/><path class="cls-4" d="M183.17,71.08h-3.68a.6.6,0,1,1,0-1.2h3.68a.6.6,0,1,1,0,1.2Z"/><path class="cls-4" d="M181.33,72.92a.6.6,0,0,1-.6-.6V68.64a.6.6,0,0,1,.6-.6.59.59,0,0,1,.6.6v3.68A.6.6,0,0,1,181.33,72.92Z"/><path class="cls-4" d="M181.33,72.92a.6.6,0,0,1-.6-.6V68.64a.6.6,0,0,1,.6-.6.59.59,0,0,1,.6.6v3.68A.6.6,0,0,1,181.33,72.92Z"/><path class="cls-4" d="M64.41,125.84H58.94a.9.9,0,0,1,0-1.79h5.47a.9.9,0,0,1,0,1.79Z"/><path class="cls-4" d="M64.41,125.84H58.94a.9.9,0,0,1,0-1.79h5.47a.9.9,0,0,1,0,1.79Z"/><path class="cls-4" d="M61.67,128.57a.89.89,0,0,1-.89-.89v-5.47a.9.9,0,0,1,1.79,0v5.47A.89.89,0,0,1,61.67,128.57Z"/><path class="cls-4" d="M61.67,128.57a.89.89,0,0,1-.89-.89v-5.47a.9.9,0,0,1,1.79,0v5.47A.89.89,0,0,1,61.67,128.57Z"/></g></g></svg>