<svg xmlns="http://www.w3.org/2000/svg" viewBox="0 0 230.57 204.78"><defs><style>.cls-1{fill:#f1f1f1;}.cls-2{fill:#1d1d1b;}.cls-3{fill:#e52421;}.cls-4{fill:#eaeaea;}</style></defs><g id="Layer_2" data-name="Layer 2"><g id="Layer_2-2" data-name="Layer 2"><path class="cls-1" d="M192.5,168.86c24.59-58.67,12.5-91.63-38.32-97.46A135.33,135.33,0,0,0,129,71.15c-16.47,1.2-30.54-3-43.81-8.86a66.73,66.73,0,0,0-26.79-5.83c-23-.09-37.08,11.2-46.78,28.15a28.68,28.68,0,0,0-3.35,20.68Q12,121.35,34,130.17a87.52,87.52,0,0,1,34.73,25.21c32.33,38.81,64.8,61.09,97.62,43.05A60,60,0,0,0,192.5,168.86Z"/><path class="cls-2" d="M36.85,169.93H30.56v-3h6.29a4.13,4.13,0,0,0,1.77-.4l1.28,2.72A7.11,7.11,0,0,1,36.85,169.93Zm-9.21,0H18.87v-3h8.77Zm-11.7,0H7.17l-.07-3h8.84ZM3.56,169A7.18,7.18,0,0,1,0,162.76V159.9H3v2.86a4.19,4.19,0,0,0,2.07,3.6Zm39.14-2-2.45-1.74a4.09,4.09,0,0,0,.77-2.41v-5.28h3v5.28A7.18,7.18,0,0,1,42.7,166.91ZM3,157H0V148.2H3Zm41-2.42H41v-8.78h3ZM3,145.28H0v-8.77H3Zm41-2.42H41v-8.77h3ZM3,133.58H0v-8.77H3Zm41-2.42H41v-8.77h3ZM3,121.88H0v-8.77H3Zm41-2.42H41v-8.77h3ZM3,110.19H0V105a7.15,7.15,0,0,1,1.35-4.19l2.43,1.75A4.17,4.17,0,0,0,3,105Zm41-2.42H41V105a4.18,4.18,0,0,0-2.09-3.62l1.5-2.6A7.21,7.21,0,0,1,44,105Zm-38.6-6.61L4.16,98.44a7.1,7.1,0,0,1,3-.66h6.32v3H7.17A4.21,4.21,0,0,0,5.42,101.16Zm31.47-.38H28.11v-3h8.74Zm-11.7,0H16.41v-3h8.78Z"/><path class="cls-3" d="M214.69,79.62h-6.13a1,1,0,0,1,0-2h6.13a1,1,0,0,1,0,2Z"/><path class="cls-3" d="M214.69,79.62h-6.13a1,1,0,0,1,0-2h6.13a1,1,0,0,1,0,2Z"/><path class="cls-3" d="M211.63,82.68a1,1,0,0,1-1-1V75.55a1,1,0,0,1,2,0v6.13A1,1,0,0,1,211.63,82.68Z"/><path class="cls-3" d="M211.63,82.68a1,1,0,0,1-1-1V75.55a1,1,0,0,1,2,0v6.13A1,1,0,0,1,211.63,82.68Z"/><path class="cls-3" d="M175.54,50.79A4.83,4.83,0,1,1,180.37,46,4.84,4.84,0,0,1,175.54,50.79Zm0-7.66A2.83,2.83,0,1,0,178.37,46,2.83,2.83,0,0,0,175.54,43.13Z"/><path class="cls-3" d="M214.69,79.62h-6.13a1,1,0,0,1,0-2h6.13a1,1,0,0,1,0,2Z"/><path class="cls-3" d="M214.69,79.62h-6.13a1,1,0,0,1,0-2h6.13a1,1,0,0,1,0,2Z"/><path class="cls-3" d="M211.63,82.68a1,1,0,0,1-1-1V75.55a1,1,0,0,1,2,0v6.13A1,1,0,0,1,211.63,82.68Z"/><path class="cls-3" d="M211.63,82.68a1,1,0,0,1-1-1V75.55a1,1,0,0,1,2,0v6.13A1,1,0,0,1,211.63,82.68Z"/><path class="cls-3" d="M70.86,164.06H64.73a1,1,0,0,1,0-2h6.13a1,1,0,1,1,0,2Z"/><path class="cls-3" d="M70.86,164.06H64.73a1,1,0,0,1,0-2h6.13a1,1,0,1,1,0,2Z"/><path class="cls-3" d="M67.8,167.13a1,1,0,0,1-1-1V160a1,1,0,0,1,2,0v6.13A1,1,0,0,1,67.8,167.13Z"/><path class="cls-3" d="M67.8,167.13a1,1,0,0,1-1-1V160a1,1,0,0,1,2,0v6.13A1,1,0,0,1,67.8,167.13Z"/><path class="cls-3" d="M70.86,164.06H64.73a1,1,0,0,1,0-2h6.13a1,1,0,1,1,0,2Z"/><path class="cls-3" d="M70.86,164.06H64.73a1,1,0,0,1,0-2h6.13a1,1,0,1,1,0,2Z"/><path class="cls-3" d="M67.8,167.13a1,1,0,0,1-1-1V160a1,1,0,0,1,2,0v6.13A1,1,0,0,1,67.8,167.13Z"/><path class="cls-3" d="M67.8,167.13a1,1,0,0,1-1-1V160a1,1,0,0,1,2,0v6.13A1,1,0,0,1,67.8,167.13Z"/><path class="cls-3" d="M53.24,36.36H47.12a1,1,0,1,1,0-2h6.12a1,1,0,0,1,0,2Z"/><path class="cls-3" d="M53.24,36.36H47.12a1,1,0,1,1,0-2h6.12a1,1,0,0,1,0,2Z"/><path class="cls-3" d="M50.18,39.43a1,1,0,0,1-1-1V32.3a1,1,0,0,1,2,0v6.13A1,1,0,0,1,50.18,39.43Z"/><path class="cls-3" d="M50.18,39.43a1,1,0,0,1-1-1V32.3a1,1,0,0,1,2,0v6.13A1,1,0,0,1,50.18,39.43Z"/><path class="cls-3" d="M53.24,36.36H47.12a1,1,0,1,1,0-2h6.12a1,1,0,0,1,0,2Z"/><path class="cls-3" d="M53.24,36.36H47.12a1,1,0,1,1,0-2h6.12a1,1,0,0,1,0,2Z"/><path class="cls-3" d="M50.18,39.43a1,1,0,0,1-1-1V32.3a1,1,0,0,1,2,0v6.13A1,1,0,0,1,50.18,39.43Z"/><path class="cls-3" d="M50.18,39.43a1,1,0,0,1-1-1V32.3a1,1,0,0,1,2,0v6.13A1,1,0,0,1,50.18,39.43Z"/><path class="cls-2" d="M25.44,124.92H14.84a2,2,0,1,1,0-4h10.6a2,2,0,1,1,0,4Z"/><path class="cls-2" d="M32.05,136.37H15.1a2,2,0,1,1,0-3.94H32.05a2,2,0,1,1,0,3.94Z"/><path class="cls-2" d="M21.27,147.31H14a2,2,0,1,1,0-3.94h7.32a2,2,0,1,1,0,3.94Z"/><path class="cls-2" d="M223.41,169.93h-6.29v-3h6.29a4.12,4.12,0,0,0,1.76-.4l1.28,2.72A7.1,7.1,0,0,1,223.41,169.93Zm-9.22,0h-8.77v-3h8.77Zm-11.69,0h-8.78l-.07-3h8.85Zm-12.39-1a7.2,7.2,0,0,1-3.56-6.19V159.9h3v2.86a4.21,4.21,0,0,0,2.07,3.6Zm39.14-2-2.44-1.74a4.16,4.16,0,0,0,.76-2.42v-5.27h3v5.28A7.11,7.11,0,0,1,229.25,166.91ZM189.55,157h-3V148.2h3Zm41-2.42h-3v-8.77h3Zm-41-9.28h-3v-8.77h3Zm41-2.42h-3v-8.77h3Zm-41-9.28h-3v-8.77h3Zm41-2.42h-3v-8.77h3Zm-41-9.28h-3v-8.77h3Zm41-2.41h-3v-8.78h3Zm-41-9.28h-3V105a7.15,7.15,0,0,1,1.35-4.19l2.44,1.75a4.11,4.11,0,0,0-.79,2.44Zm41-2.42h-3V105a4.18,4.18,0,0,0-2.09-3.62l1.5-2.6a7.19,7.19,0,0,1,3.59,6.22ZM192,101.16l-1.25-2.73a7.23,7.23,0,0,1,3-.65H200v3h-6.32A4.21,4.21,0,0,0,192,101.16Zm31.47-.38h-8.77v-3h8.74Zm-11.7,0H203v-3h8.77Z"/><path class="cls-2" d="M212,124.92h-10.6a2,2,0,0,1,0-4H212a2,2,0,0,1,0,4Z"/><path class="cls-2" d="M218.61,136.37h-17a2,2,0,0,1,0-3.94h17a2,2,0,1,1,0,3.94Z"/><path class="cls-2" d="M160.55,190.42a2,2,0,0,1-1.55-.75l-16.35-20.79a2,2,0,0,1,3.1-2.44l16.35,20.8a2,2,0,0,1-.33,2.76A1.94,1.94,0,0,1,160.55,190.42Z"/><path class="cls-2" d="M207.82,147.31H200.5a2,2,0,1,1,0-3.94h7.32a2,2,0,1,1,0,3.94Z"/><circle class="cls-1" cx="120.63" cy="51.32" r="14.04"/><circle class="cls-1" cx="79.86" cy="43.66" r="6.13"/><circle class="cls-4" cx="138.87" cy="5.02" r="5.02"/><path class="cls-3" d="M113.76,69.2a2,2,0,0,1-2-2V56.54a2,2,0,0,1,4,0V67.2A2,2,0,0,1,113.76,69.2Z"/><path class="cls-3" d="M120.63,69.2a2,2,0,0,1-1.42-3.41l7.54-7.54a2,2,0,1,1,2.83,2.83L122,68.62A2,2,0,0,1,120.63,69.2Z"/><path class="cls-3" d="M107.17,69.2a2,2,0,0,1-1.42-.58l-7.54-7.54A2,2,0,0,1,101,58.25l7.54,7.54a2,2,0,0,1,0,2.83A2,2,0,0,1,107.17,69.2Z"/><path class="cls-2" d="M114.8,178.06a51,51,0,1,1,51-50.95A51,51,0,0,1,114.8,178.06Zm0-98a47,47,0,1,0,47,47A47.07,47.07,0,0,0,114.8,80.1Z"/><path class="cls-3" d="M132,127.4a2,2,0,0,1-1.41-.58,2,2,0,0,1,0-2.83l12.64-12.64a2,2,0,0,1,2.82,2.83l-12.64,12.64A2,2,0,0,1,132,127.4Z"/><path class="cls-3" d="M132,127.4a2,2,0,0,1-1.41-.58,2,2,0,0,1,0-2.83l12.64-12.64a2,2,0,0,1,2.82,2.83l-12.64,12.64A2,2,0,0,1,132,127.4Z"/><path class="cls-3" d="M144.65,127.4a2,2,0,0,1-1.41-.58L130.6,114.18a2,2,0,0,1,2.82-2.83L146.06,124a2,2,0,0,1,0,2.83A2,2,0,0,1,144.65,127.4Z"/><path class="cls-3" d="M144.65,127.4a2,2,0,0,1-1.41-.58L130.6,114.18a2,2,0,0,1,2.82-2.83L146.06,124a2,2,0,0,1,0,2.83A2,2,0,0,1,144.65,127.4Z"/><path class="cls-3" d="M132,127.4a2,2,0,0,1-1.41-.58,2,2,0,0,1,0-2.83l12.64-12.64a2,2,0,0,1,2.82,2.83l-12.64,12.64A2,2,0,0,1,132,127.4Z"/><path class="cls-2" d="M132,127.4a2,2,0,0,1-1.41-.58,2,2,0,0,1,0-2.83l12.64-12.64a2,2,0,0,1,2.82,2.83l-12.64,12.64A2,2,0,0,1,132,127.4Z"/><path class="cls-3" d="M144.65,127.4a2,2,0,0,1-1.41-.58L130.6,114.18a2,2,0,0,1,2.82-2.83L146.06,124a2,2,0,0,1,0,2.83A2,2,0,0,1,144.65,127.4Z"/><path class="cls-2" d="M144.65,127.4a2,2,0,0,1-1.41-.58L130.6,114.18a2,2,0,0,1,2.82-2.83L146.06,124a2,2,0,0,1,0,2.83A2,2,0,0,1,144.65,127.4Z"/><path class="cls-3" d="M86,127.4a2,2,0,0,1-1.41-.58,2,2,0,0,1,0-2.83l12.64-12.64a2,2,0,0,1,2.82,2.83L87.4,126.82A2,2,0,0,1,86,127.4Z"/><path class="cls-3" d="M86,127.4a2,2,0,0,1-1.41-.58,2,2,0,0,1,0-2.83l12.64-12.64a2,2,0,0,1,2.82,2.83L87.4,126.82A2,2,0,0,1,86,127.4Z"/><path class="cls-3" d="M98.63,127.4a2,2,0,0,1-1.41-.58L84.58,114.18a2,2,0,0,1,2.82-2.83L100,124a2,2,0,0,1,0,2.83A2,2,0,0,1,98.63,127.4Z"/><path class="cls-3" d="M98.63,127.4a2,2,0,0,1-1.41-.58L84.58,114.18a2,2,0,0,1,2.82-2.83L100,124a2,2,0,0,1,0,2.83A2,2,0,0,1,98.63,127.4Z"/><path class="cls-3" d="M86,127.4a2,2,0,0,1-1.41-.58,2,2,0,0,1,0-2.83l12.64-12.64a2,2,0,0,1,2.82,2.83L87.4,126.82A2,2,0,0,1,86,127.4Z"/><path class="cls-2" d="M86,127.4a2,2,0,0,1-1.41-.58,2,2,0,0,1,0-2.83l12.64-12.64a2,2,0,0,1,2.82,2.83L87.4,126.82A2,2,0,0,1,86,127.4Z"/><path class="cls-3" d="M98.63,127.4a2,2,0,0,1-1.41-.58L84.58,114.18a2,2,0,0,1,2.82-2.83L100,124a2,2,0,0,1,0,2.83A2,2,0,0,1,98.63,127.4Z"/><path class="cls-2" d="M98.63,127.4a2,2,0,0,1-1.41-.58L84.58,114.18a2,2,0,0,1,2.82-2.83L100,124a2,2,0,0,1,0,2.83A2,2,0,0,1,98.63,127.4Z"/><path class="cls-3" d="M105.62,147.69a1.91,1.91,0,0,1-.62-.1,2,2,0,0,1-1.28-2.51,11.23,11.23,0,0,1,10.7-7.78h1.2a11.23,11.23,0,0,1,10.7,7.78,2,2,0,1,1-3.79,1.23,7.25,7.25,0,0,0-6.91-5h-1.2a7.25,7.25,0,0,0-6.91,5A2,2,0,0,1,105.62,147.69Z"/></g></g></svg>