<svg xmlns="http://www.w3.org/2000/svg" xmlns:xlink="http://www.w3.org/1999/xlink" width="537.336" height="560.526" viewBox="0 0 537.336 560.526"><defs><clipPath id="a"><rect width="93.957" height="93.957" transform="translate(25.932 226.166)" fill="#fff"/></clipPath><clipPath id="b"><rect width="93.957" height="93.957" transform="translate(443.379 102.594)" fill="#fff"/></clipPath><clipPath id="c"><rect width="93.957" height="93.957" transform="translate(208.996)" fill="#fff"/></clipPath><clipPath id="d"><rect width="93.957" height="93.958" transform="translate(419.379 361.487)" fill="#fff"/></clipPath><clipPath id="e"><path d="M80.851,0A80.851,80.851,0,0,0,0,80.85V326.517A80.846,80.846,0,0,0,26.919,386.75L42.274,400.5a136.961,136.961,0,0,0,183.152-.385l14.826-13.387a80.849,80.849,0,0,0,26.666-60.007V80.85A80.85,80.85,0,0,0,186.068,0Z" fill="none"/></clipPath></defs><g transform="translate(-921 -3585)"><path d="M74,469.519a265.3,265.3,0,0,0,295.089,61.439c95.12-40.232,161.862-134.418,161.862-244.194" transform="translate(921 3585)" fill="none" stroke="#3d42df" stroke-miterlimit="10" stroke-width="1.821"/><path d="M.911,286.764A263.985,263.985,0,0,0,26.585,400.7" transform="translate(921 3585)" fill="none" stroke="#3d42df" stroke-miterlimit="10" stroke-width="1.821"/><path d="M265.931,21.742A264.3,264.3,0,0,0,72.109,106.016" transform="translate(921 3585)" fill="none" stroke="#3d42df" stroke-miterlimit="10" stroke-width="1.821"/><path d="M509.23,181.513A265.969,265.969,0,0,0,369.247,42.636" transform="translate(921 3585)" fill="none" stroke="#3d42df" stroke-miterlimit="10" stroke-width="1.821"/><path d="M265.931,518.083A231.515,231.515,0,0,0,465.911,403.1" transform="translate(921 3585)" fill="none" stroke="#3d42df" stroke-miterlimit="10" stroke-width="1.589"/><path d="M52.791,376.8a231.343,231.343,0,0,0,37.075,60" transform="translate(921 3585)" fill="none" stroke="#3d42df" stroke-miterlimit="10" stroke-width="1.589"/><path d="M380.386,85.7A231.239,231.239,0,0,0,34.613,286.764" transform="translate(921 3585)" fill="none" stroke="#3d42df" stroke-miterlimit="10" stroke-width="1.589"/><path d="M497.251,286.764a230.237,230.237,0,0,0-39.506-129.333" transform="translate(921 3585)" fill="none" stroke="#3d42df" stroke-miterlimit="10" stroke-width="1.589"/><path d="M265.931,84.861a201.01,201.01,0,0,0-95.191,23.8" transform="translate(921 3585)" fill="none" stroke="#3d42df" stroke-miterlimit="10" stroke-width="1.387"/><path d="M429.927,168.964a202.81,202.81,0,0,0-72.465-62.212" transform="translate(921 3585)" fill="none" stroke="#3d42df" stroke-miterlimit="10" stroke-width="1.387"/><path d="M95.826,395.571A201.886,201.886,0,0,0,467.835,286.764" transform="translate(921 3585)" fill="none" stroke="#3d42df" stroke-miterlimit="10" stroke-width="1.387"/><path d="M95.574,178.352A202.3,202.3,0,0,0,78.367,361.636" transform="translate(921 3585)" fill="none" stroke="#3d42df" stroke-miterlimit="10" stroke-width="1.387"/><path d="M442.159,286.764A176.051,176.051,0,0,0,324.2,120.4" transform="translate(921 3585)" fill="none" stroke="#3d42df" stroke-miterlimit="10" stroke-width="1.211"/><path d="M265.931,462.991A176.322,176.322,0,0,0,436.938,329.515" transform="translate(921 3585)" fill="none" stroke="#3d42df" stroke-miterlimit="10" stroke-width="1.211"/><path d="M89.705,286.764a175.436,175.436,0,0,0,21.27,84" transform="translate(921 3585)" fill="none" stroke="#3d42df" stroke-miterlimit="10" stroke-width="1.211"/><path d="M265.931,110.536a176.075,176.075,0,0,0-147.472,79.713" transform="translate(921 3585)" fill="none" stroke="#3d42df" stroke-miterlimit="10" stroke-width="1.211"/><circle cx="153.817" cy="153.817" r="153.817" transform="translate(1033.115 3717.947)" fill="none" stroke="#3d42df" stroke-miterlimit="10" stroke-width="1.057"/><path d="M148.712,505.841l23.4,20.949a132.3,132.3,0,0,0,176.917-.371l22.81-20.6a66.081,66.081,0,0,0,21.8-49.044V189.573a66.079,66.079,0,0,0-66.08-66.079H192.79a66.079,66.079,0,0,0-66.079,66.079V456.612a66.077,66.077,0,0,0,22,49.229" transform="translate(921 3585)" fill="#3d42df"/><g transform="translate(921 3585)"><g clip-path="url(#a)"><path d="M25.931,273.145a46.979,46.979,0,1,0,46.98-46.979,46.98,46.98,0,0,0-46.98,46.979" fill="#fff"/></g></g><path d="M100.3,256.217a23.5,23.5,0,0,1-6.472,1.768,11.142,11.142,0,0,0,4.941-6.187,22.467,22.467,0,0,1-7.121,2.709,11.237,11.237,0,0,0-19.427,7.658,11.466,11.466,0,0,0,.26,2.553,31.82,31.82,0,0,1-23.147-11.712,11.173,11.173,0,0,0,3.451,14.959,11.106,11.106,0,0,1-5.074-1.379v.123a11.255,11.255,0,0,0,9,11,11.2,11.2,0,0,1-2.943.369,9.912,9.912,0,0,1-2.126-.19,11.335,11.335,0,0,0,10.494,7.8,22.62,22.62,0,0,1-13.928,4.767,21.159,21.159,0,0,1-2.687-.153,31.688,31.688,0,0,0,17.228,5.022c20.664,0,31.962-17.06,31.962-31.849,0-.495-.016-.973-.041-1.447a22.383,22.383,0,0,0,5.63-5.811" transform="translate(921 3585)" fill="#3d42df"/><g transform="translate(921 3585)"><g clip-path="url(#b)"><path d="M443.379,149.572a46.979,46.979,0,1,0,46.979-46.979,46.979,46.979,0,0,0-46.979,46.979" fill="#fff"/></g></g><g transform="translate(921 3585)"><g clip-path="url(#c)"><path d="M209,46.978A46.979,46.979,0,1,0,255.975,0,46.979,46.979,0,0,0,209,46.978" fill="#fff"/></g></g><g transform="translate(921 3585)"><g clip-path="url(#d)"><path d="M419.379,408.466a46.979,46.979,0,1,0,46.979-46.979,46.979,46.979,0,0,0-46.979,46.979" fill="#fff"/></g></g><path d="M512.419,140.434a16.232,16.232,0,0,0-1.031-5.382,11.357,11.357,0,0,0-6.491-6.49,16.282,16.282,0,0,0-5.381-1.031c-2.374-.113-3.128-.139-9.151-.139s-6.776.026-9.142.13a16.226,16.226,0,0,0-5.381,1.031,11.36,11.36,0,0,0-6.49,6.491,16.257,16.257,0,0,0-1.032,5.381c-.112,2.374-.138,3.128-.138,9.151s.026,6.776.131,9.142a16.176,16.176,0,0,0,1.031,5.381,11.356,11.356,0,0,0,6.489,6.493,16.226,16.226,0,0,0,5.381,1.031c2.365.1,3.121.13,9.143.13s6.775-.026,9.142-.13a16.206,16.206,0,0,0,5.381-1.031,11.34,11.34,0,0,0,6.491-6.49,16.251,16.251,0,0,0,1.031-5.381c.1-2.366.129-3.12.129-9.142s-.008-6.776-.112-9.142Zm-3.993,18.111a12.177,12.177,0,0,1-.763,4.116,7.361,7.361,0,0,1-4.214,4.212,12.194,12.194,0,0,1-4.114.762c-2.34.1-3.042.13-8.961.13s-6.629-.026-8.96-.13a12.152,12.152,0,0,1-4.116-.762,6.829,6.829,0,0,1-2.548-1.655,6.9,6.9,0,0,1-1.655-2.548,12.235,12.235,0,0,1-.762-4.117c-.1-2.34-.13-3.042-.13-8.96s.026-6.629.13-8.96a12.185,12.185,0,0,1,.762-4.116,6.74,6.74,0,0,1,1.664-2.548,6.908,6.908,0,0,1,2.548-1.655,12.205,12.205,0,0,1,4.116-.762c2.34-.1,3.042-.13,8.96-.13s6.629.026,8.961.13a12.166,12.166,0,0,1,4.116.763,6.838,6.838,0,0,1,2.547,1.655,6.918,6.918,0,0,1,1.656,2.548,12.26,12.26,0,0,1,.763,4.116c.1,2.34.129,3.041.129,8.96s-.026,6.612-.129,8.952Z" transform="translate(921 3585)" fill="#3d42df" stroke="#3d42df" stroke-width="1"/><path d="M490.366,138.181a11.4,11.4,0,1,0,11.4,11.4,11.4,11.4,0,0,0-11.4-11.4m0,18.787a7.392,7.392,0,1,1,7.393-7.392,7.393,7.393,0,0,1-7.393,7.392" transform="translate(921 3585)" fill="#3d42df" stroke="#3d42df" stroke-width="1"/><path d="M504.874,137.73a2.66,2.66,0,1,1-2.661-2.66,2.66,2.66,0,0,1,2.661,2.66" transform="translate(921 3585)" fill="#3d42df" stroke="#3d42df" stroke-width="1"/><path d="M458.121,412.576l-.889,12.5a3.107,3.107,0,0,0,2.482-1.2l5.961-5.7,12.352,9.045c2.265,1.262,3.861.6,4.472-2.083l8.109-37.992c.719-3.348-1.212-4.658-3.418-3.837l-47.655,18.245c-3.253,1.261-3.2,3.076-.553,3.9l12.184,3.79,28.3-17.709c1.332-.882,2.543-.394,1.547.488Z" transform="translate(921 3585)" fill="#3d42df"/><path d="M263.078,32.034h4.085V24.919a52.838,52.838,0,0,0-5.951-.315c-5.891,0-9.925,3.7-9.925,10.514v6.267h-6.5v7.954h6.5V69.353h7.969V49.341h6.236l.99-7.954h-7.228V35.9c0-2.3.621-3.873,3.824-3.873Z" transform="translate(921 3585)" fill="#3d42df"/><g transform="translate(1048 3710.001)"><g clip-path="url(#e)"><path d="M48.144,181.558c3.974,6.68,10.071,11.768,15.518,17.312,18.908,19.252,50.348,23.37,48.654,68.875-.6,16.043-17.6,36.022-12.805,51.343,9.077,28.985,46.18,45.277,73.662,32.344,3.211-1.511,6.364-3.426,8.418-6.319,2.169-3.056,2.9-6.892,3.271-10.621,2.879-28.878-12.177-59.372-1.031-86.168,3.025-7.269,7.806-13.656,11.487-20.615,13.679-25.864,11.106-56.983,7.525-86.022-1.314-10.657-2.961-21.9-9.7-30.264-7.358-9.138-19.351-13.034-30.827-15.469-21.388-4.536-81.784-14.75-92.913,9.793-4.808,10.6,2.67,23.774-3.77,35.447-8.145,14.763-29.994,19.353-17.494,40.364" fill="#fddfa1"/><path d="M30.461,387.249c10.637-21.929,28.71-41.461,52.161-48.1,5.789-1.638,12.156-2.427,17.7-.1,4.718,1.982,8.258,5.961,12.428,8.927,14.591,10.382,34.36,7.267,52.148,5.205a316.04,316.04,0,0,1,50.5-1.784c5.062.227,10.377.658,14.606,3.45,4.693,3.1,7.2,8.539,9.279,13.765a226.658,226.658,0,0,1,15.716,94.139l-171.763,8.58c-19.43.97-56.684,7.117-67.082-14.953-8.711-18.493,6.3-52.649,14.3-69.135" fill="#ffbc00"/><path d="M80.665,173.165c.164,2.886.449,5.944,2.182,8.258,1.685,2.252,4.452,3.4,7.15,4.189,8.331,2.444,17.154,2.45,25.837,2.439,2.987,0,6.323-.15,8.4-2.3,2.109-2.18,2.107-5.581,1.972-8.611q-.386-8.7-.772-17.4c-.08-1.8-.2-3.717-1.283-5.156-1.733-2.309-5.094-2.42-7.979-2.317-7.077.251-26.447-2.579-32.139,1.271-5.891,3.985-3.769,12.989-3.367,19.626" fill="#fff"/><path d="M158.137,178.833a7.952,7.952,0,0,0,.981,3.913c1.115,1.657,3.259,2.214,5.218,2.6a134.771,134.771,0,0,0,24.287,2.542c2.279.031,4.78-.077,6.475-1.6,1.852-1.661,2.112-4.426,2.174-6.912a126.02,126.02,0,0,0-.78-17.426c-.186-1.632-.481-3.41-1.716-4.493a6.719,6.719,0,0,0-3.27-1.267c-6.6-1.246-25.935-5.4-31.69-.725-5.724,4.652-2.151,16.929-1.679,23.366" fill="#fff"/><path d="M1.767,457.225l11.908-54.76a109.682,109.682,0,0,1,44.817-66.952c1.349-.947,2.722-1.847,4.119-2.723l1.042-.663,11.813-7.41,12.074-7.575,21.355-13.376,2.154-22.657,2.533-26.729v-.047" fill="none" stroke="#000" stroke-miterlimit="10" stroke-width="2.323"/><path d="M278,457.225,266.1,402.465a109.555,109.555,0,0,0-40.815-64.04c-.142-.1-.26-.213-.4-.307-2.485-1.9-5.066-3.67-7.718-5.328l-8.854-5.54-7.316-4.592-30.114-18.892-3.906-41.076-.521-5.587-.071-.758" fill="none" stroke="#000" stroke-miterlimit="10" stroke-width="2.323"/><path d="M215.525,136.291c-5.918,53.693-18.135,84.8-30.8,102.748-6.226,8.807-12.548,14.465-18.277,18.064-12.477,7.835-22.231,6.037-22.231,6.037a55.081,55.081,0,0,1-30.634-8.76,67.427,67.427,0,0,1-14.561-12.832c-31.842-37.027-34.777-108.69-34.777-108.69" fill="none" stroke="#000" stroke-miterlimit="10" stroke-width="2.323"/><path d="M98.918,310.012s-2.511,49.4,45.261,49.4c0,0,45.6-2.9,45.6-43.792" fill="none" stroke="#000" stroke-miterlimit="10" stroke-width="2.323"/><path d="M89.18,316.115S89.543,368.6,144.9,368.6c0,0,54.238-6.21,54.238-47.1" fill="none" stroke="#000" stroke-miterlimit="10" stroke-width="2.323"/><path d="M87.541,317.142V457.225H63.653v-125.1l11.814-7.41Z"/><path d="M224.877,338.117V457.224H200.989V322.657l7.316,4.593,8.854,5.54c2.652,1.657,5.233,3.432,7.718,5.327"/><path d="M66.7,155.3s-10.642-11.121-21.3-3.724.344,53.079,31.288,47.622" fill="none" stroke="#000" stroke-miterlimit="10" stroke-width="2.323"/><path d="M52.758,168.409s13.6-4.812,17.813,10.319" fill="none" stroke="#000" stroke-miterlimit="10" stroke-width="2.323"/><path d="M60.378,179.554s.259-8.167,6.437-8.023" fill="none" stroke="#000" stroke-miterlimit="10" stroke-width="2.323"/><path d="M213.572,155.3s10.523-11.232,21.258-3.947.214,53.08-30.786,47.948" fill="none" stroke="#000" stroke-miterlimit="10" stroke-width="2.323"/><path d="M227.654,168.263s-13.651-4.669-17.7,10.505" fill="none" stroke="#000" stroke-miterlimit="10" stroke-width="2.323"/><path d="M220.152,179.487s-.345-8.165-6.521-7.956" fill="none" stroke="#000" stroke-miterlimit="10" stroke-width="2.323"/><path d="M195.931,111.87S155.96,96.489,76.693,113.861c0,0-7.429,27.686-4.172,37.82a14.893,14.893,0,0,1-3.942,16l-6.915-19.756s-8.4-10.723-8.906-32.438c0,0-38.329-40.23,8.906-93.371,36.191-40.714,131.734-8.143,145.3,57,0,0,37.57,20.887,5.484,79.839,0,0-5.708.82-5.3-11.03a58.981,58.981,0,0,0-11.219-36.057"/><path d="M88.35,141.915s8.64-2.983,16.333-3.2,9.517,1.645,14.437,2.336" fill="none" stroke="#000" stroke-miterlimit="10" stroke-width="4.646"/><path d="M109.8,168.26c0,3.822-1.945,6.922-4.344,6.922s-4.343-3.1-4.343-6.922,1.945-6.922,4.343-6.922c1.48,0,2.788,1.18,3.692,3.273a9.648,9.648,0,0,1,.652,3.649" transform="translate(-13)"/><path d="M190.049,143.467s-17.024-8.037-31.793-6.18" transform="translate(-23.653 36.264) rotate(-11)" fill="none" stroke="#000" stroke-miterlimit="10" stroke-width="4.646"/><path d="M172.137,168.26c0,3.822,1.944,6.922,4.343,6.922s4.343-3.1,4.343-6.922-1.945-6.922-4.343-6.922-4.343,3.1-4.343,6.922" transform="translate(-10)"/><path d="M133.489,162.523c.271,1.086,1.021,14.286-4.824,31.8,0,0,2.721,5.4,14.122,5.673" fill="none" stroke="#000" stroke-miterlimit="10" stroke-width="2.323"/><path d="M132.21,224.311s12.307,3.428,24.043-1.367" fill="none" stroke="#000" stroke-miterlimit="10" stroke-width="2.323"/><path d="M139.018,229.331s4.884,1.06,7.538-.195" fill="none" stroke="#000" stroke-miterlimit="10" stroke-width="2.323"/><path d="M81.026,38.4a97.192,97.192,0,0,0,4.1,19.761A99.149,99.149,0,0,0,93.008,76.6a97.371,97.371,0,0,0,11.439,16.455,118.771,118.771,0,0,0,14.581,13.982,77.978,77.978,0,0,1-15.923-12.763,81.725,81.725,0,0,1-6.593-7.882,83.315,83.315,0,0,1-5.536-8.671,89.434,89.434,0,0,1-4.4-9.3,84.361,84.361,0,0,1-3.182-9.765A78.5,78.5,0,0,1,81.454,48.6a57.152,57.152,0,0,1-.428-10.2" fill="#fff"/><path d="M111.155,68.533A119.9,119.9,0,0,0,116.2,79.5a83.561,83.561,0,0,0,6.231,10.17,54.276,54.276,0,0,0,3.675,4.662,51.838,51.838,0,0,0,13.78,11.358,32.154,32.154,0,0,1-10.843-5.7,43.882,43.882,0,0,1-8.5-8.963,60.9,60.9,0,0,1-3.3-5.218,58.806,58.806,0,0,1-2.68-5.539,48.441,48.441,0,0,1-3.408-11.739" fill="#fff"/><path d="M78.855,77.49a89.081,89.081,0,0,0,4.579,9.27,68.384,68.384,0,0,0,5.7,8.445,53.11,53.11,0,0,0,6.941,7.409,70.015,70.015,0,0,0,8.23,6.214,32.413,32.413,0,0,1-9.367-4.8l-1.088-.771c-.346-.277-.67-.579-1.006-.869-.662-.589-1.346-1.16-1.993-1.769a49.417,49.417,0,0,1-3.542-3.975,43.793,43.793,0,0,1-5.488-9.063,35.991,35.991,0,0,1-2.97-10.088" fill="#fff"/><path d="M97.855,57.947a48.771,48.771,0,0,1-5.416-12.423,65.167,65.167,0,0,1-2.491-13.392c-.126-1.132-.14-2.271-.174-3.409-.009-1.137-.125-2.274-.043-3.411l.155-3.407c.033-1.136.23-2.263.356-3.39a58.659,58.659,0,0,1,1.186-6.693,33.854,33.854,0,0,1,.9-3.271q.5-1.621,1.043-3.219-.186,1.689-.414,3.354c-.137,1.113-.36,2.206-.409,3.328-.194,2.226-.46,4.432-.506,6.656a96.961,96.961,0,0,0,.214,13.271,97.02,97.02,0,0,0,1.927,13.135,94.577,94.577,0,0,0,3.667,12.871" fill="#fff"/><path d="M59.07,56.59a11.126,11.126,0,0,1-1.408-1.041,10.67,10.67,0,0,1-1.17-1.352A14.331,14.331,0,0,1,54.9,51.024a27.5,27.5,0,0,1-1.419-6.835A41.247,41.247,0,0,1,53.56,37.3a36.488,36.488,0,0,1,1.24-6.759c.332,2.294.436,4.548.573,6.79.122,2.242.276,4.462.423,6.67a59.254,59.254,0,0,0,.838,6.521A14.673,14.673,0,0,0,59.07,56.59" fill="#fff"/><path d="M81.97,150.827v24.055a10.81,10.81,0,0,0,10.811,10.81h23.335a10.811,10.811,0,0,0,10.811-10.81V150.827Z" fill="none" stroke="#000" stroke-miterlimit="10" stroke-width="2.323"/><path d="M194.615,150.827v24.055a10.81,10.81,0,0,1-10.81,10.81H160.469a10.81,10.81,0,0,1-10.81-10.81V150.827Z" fill="none" stroke="#000" stroke-miterlimit="10" stroke-width="2.323"/><path d="M126.927,158.1s13.193-7.6,22.731,0" fill="none" stroke="#000" stroke-miterlimit="10" stroke-width="2.323"/><path d="M166.968,262.69c-16.855,5.683-41.644,13.779-55.919,18.419l2.533-26.729a55.066,55.066,0,0,0,30.635,8.76s9.754,1.8,22.23-6.037Z"/></g></g></g></svg>