<svg id="Group_225" data-name="Group 225" xmlns="http://www.w3.org/2000/svg" width="64.682" height="51.339" viewBox="0 0 64.682 51.339">
  <g id="Group_205" data-name="Group 205" transform="translate(0 0)">
    <path id="Path_598" data-name="Path 598" d="M303.5,273.338A13.652,13.652,0,0,1,298,274.6c-1.926.028-3.852.028-5.805.028H288.34V268h4.127c1.568.027,3.164.027,4.732,0a8.225,8.225,0,0,0,8.226-6.3,8.118,8.118,0,0,0-1.045-6.438,7.992,7.992,0,0,0-5.337-3.632,4,4,0,0,1-3.439-3.246,15.975,15.975,0,0,0-31.2.193,14.81,14.81,0,0,0-.3,2.531l-.055.715a3.412,3.412,0,0,1-3.577,3.466,4.131,4.131,0,0,1-.55.055,6.394,6.394,0,0,0-5.557,6.3,6.255,6.255,0,0,0,5.282,6.245,23.916,23.916,0,0,0,2.806.11c1.953.027,3.8.027,5.64,0h3.632v6.52l-1.293.083a5.4,5.4,0,0,1-.578.028h-9.574a12.935,12.935,0,0,1-12.518-11.28l-.11-.5.055-2.916c.083-.3.165-.605.22-.908a14.966,14.966,0,0,1,.688-2.229,12.537,12.537,0,0,1,8.886-7.731,21.822,21.822,0,0,1,4.76-11.472,22.721,22.721,0,0,1,31.171-4.1,21.864,21.864,0,0,1,8.281,11.94,14.906,14.906,0,0,1,1.788,27.9Z" transform="translate(-247.65 -229.069)" fill="#7007fa"/>
  </g>
  <g id="Group_206" data-name="Group 206" transform="translate(21.404 23.438)">
    <path id="Path_599" data-name="Path 599" d="M277.55,247l-4.842,4.87-2.944-2.944V265.49h-6.685v-16.37l-2.779,2.889-4.87-4.815,3.109-3.109c1.843-1.843,3.687-3.687,5.557-5.53a3.215,3.215,0,0,1,4.457-.138,4.24,4.24,0,0,1,.523.468l7.236,7.181Z" transform="translate(-255.43 -237.588)" fill="#7007fa"/>
  </g>
</svg>
