<svg width="96" height="102" viewBox="0 0 96 102" fill="none" xmlns="http://www.w3.org/2000/svg">
<g clip-path="url(#clip0_21_722)">
<path opacity="0.5" d="M47.3621 102C69.9473 102 88.2562 99.7234 88.2562 96.9152C88.2562 94.1069 69.9473 91.8304 47.3621 91.8304C24.7769 91.8304 6.46802 94.1069 6.46802 96.9152C6.46802 99.7234 24.7769 102 47.3621 102Z" fill="#222221"/>
<path opacity="0.83" d="M47.9999 96.9152C74.1528 96.9152 91.2733 73.8627 95.4003 47.7493C99.5465 21.4714 81.9667 1.52588e-05 47.9999 1.52588e-05C14.0332 1.52588e-05 -3.55301 21.4714 0.599551 47.7493C4.72022 73.8627 21.8216 96.9152 47.9999 96.9152Z" fill="#F8F8F8"/>
<path d="M10.206 19.5804C4.54164 27.2582 2.34098 37.099 4.03135 47.7998C7.85859 72.0223 23.7161 93.3988 48 93.3988C72.2838 93.3988 88.1414 72.0223 91.9622 47.7998C93.6717 36.9788 91.4073 27.0305 85.5835 19.34L10.206 19.5804Z" fill="#C3E0DF"/>
<path d="M47.8341 31.0212C47.8341 31.0212 45.002 29.01 39.6566 31.875C34.3112 34.74 33.3927 37.782 31.007 38.5725C28.6214 39.3631 31.1219 42.519 40.6708 38.5725C50.2198 34.6261 47.8341 31.0212 47.8341 31.0212Z" fill="#65B29E"/>
<path d="M46.4372 31.5967C46.4372 31.5967 44.7341 30.3824 41.5064 32.109C38.2788 33.8356 37.7366 35.6697 36.295 36.1503C34.8534 36.631 36.3652 38.5283 42.1188 36.1503C47.8724 33.7723 46.4372 31.5967 46.4372 31.5967Z" fill="#2F7765"/>
<path d="M36.6905 54.2697C36.6905 54.2697 35.4147 43.1957 42.8268 34.2909C50.2389 25.3862 60.9042 25.6139 61.3252 26.0692C61.7462 26.5246 64.3997 46.4717 43.2542 55.7117L36.6905 54.2697Z" fill="#F1A652"/>
<path d="M64.0872 54.2697C64.0872 54.2697 66.4728 47.5912 64.7697 42.6328C63.0665 37.6745 60.6809 35.9859 58.6333 36.7132C56.5857 37.4405 55.9032 41.7727 57.836 45.4092C59.7687 49.0458 62.939 53.34 62.6136 54.8958C62.2883 56.4516 63.7172 55.4903 64.0872 54.2697Z" fill="#65B29E"/>
<path d="M62.231 47.003C62.231 47.003 63.5577 43.2842 62.6137 40.5205C61.6696 37.7567 60.3301 36.8144 59.1883 37.2255C58.0465 37.6365 57.6701 40.0398 58.7482 42.07C59.8262 44.1001 61.5994 46.497 61.4081 47.3635C61.2167 48.2299 62.0268 47.6734 62.231 47.003Z" fill="#2F7765"/>
<path d="M55.4504 29.3326C55.4504 29.4439 55.4171 29.5527 55.3547 29.6453C55.2923 29.7379 55.2037 29.81 55.0999 29.8526C54.9962 29.8952 54.8821 29.9064 54.7719 29.8847C54.6618 29.8629 54.5607 29.8093 54.4813 29.7306C54.4019 29.6519 54.3478 29.5516 54.3259 29.4424C54.304 29.3332 54.3152 29.22 54.3582 29.1172C54.4012 29.0143 54.4739 28.9264 54.5673 28.8646C54.6607 28.8027 54.7704 28.7697 54.8827 28.7697C55.0333 28.7697 55.1777 28.829 55.2841 28.9346C55.3906 29.0401 55.4504 29.1833 55.4504 29.3326V29.3326Z" fill="#3C2914"/>
<path d="M58.4037 30.1168C58.9587 30.7493 58.6461 31.9256 57.702 32.7478C56.758 33.5699 55.5397 33.7217 54.9847 33.0893C54.4298 32.4568 54.7359 31.2805 55.68 30.4583C56.624 29.6362 57.836 29.4844 58.4037 30.1168Z" fill="#ED943B"/>
<path d="M49.7669 30.3318C50.8178 31.6044 51.9836 32.7792 53.2497 33.8419C53.8735 34.3714 54.532 34.8594 55.2208 35.3028C55.9033 35.7645 56.6368 36.1313 57.3831 36.5677C56.5392 36.4283 55.7218 36.1617 54.9592 35.7772C54.5637 35.6064 54.2129 35.3597 53.8365 35.1447C53.4602 34.9297 53.1349 34.6514 52.8096 34.3731C52.1534 33.827 51.5589 33.2121 51.0363 32.5391C50.5079 31.868 50.0803 31.1245 49.7669 30.3318V30.3318Z" fill="#B57D3E"/>
<path d="M45.3337 37.5606C45.3337 38.035 45.3337 38.4966 45.3337 38.9394C45.3238 39.1507 45.3345 39.3625 45.3656 39.5718C45.3757 39.6326 45.3928 39.692 45.4166 39.7489C45.4166 39.7489 45.4166 39.7489 45.372 39.7109C45.3273 39.673 45.372 39.7109 45.4166 39.7109C45.8057 39.673 46.265 39.5465 46.6924 39.4643C47.151 39.3672 47.6155 39.2996 48.0829 39.2619C47.7042 39.5483 47.2906 39.7863 46.8519 39.9702C46.4081 40.1719 45.9378 40.3103 45.4549 40.3813C45.3559 40.4004 45.2541 40.4004 45.1551 40.3813C45.0265 40.3386 44.9163 40.2539 44.8425 40.141C44.7565 39.9973 44.7103 39.8337 44.7086 39.6667C44.6973 39.4135 44.7231 39.16 44.7851 38.9141C44.8894 38.4354 45.0749 37.9777 45.3337 37.5606V37.5606Z" fill="#B57D3E"/>
<path d="M49.1609 40.5141C49.1609 41.0011 49.1163 41.4628 49.1035 41.9118C49.083 42.1221 49.083 42.3339 49.1035 42.5443C49.1108 42.5967 49.1259 42.6479 49.1482 42.696H49.2311C50.1781 42.6079 51.1328 42.6462 52.0696 42.8099C51.1725 43.1204 50.2368 43.3076 49.2885 43.3664H49.1864C49.1249 43.3722 49.063 43.3722 49.0015 43.3664C48.8734 43.3366 48.7589 43.2654 48.6761 43.1641C48.5714 43.0178 48.5136 42.8437 48.5103 42.6644C48.496 42.4062 48.5262 42.1474 48.5996 41.8992C48.6991 41.4072 48.8894 40.9376 49.1609 40.5141Z" fill="#B57D3E"/>
<path d="M45.0275 41.8549C44.9574 42.4178 44.8426 42.9554 44.7277 43.4929C44.6767 43.7586 44.6129 44.0179 44.5747 44.2772C44.5747 44.41 44.53 44.5365 44.5236 44.6566C44.5046 44.7442 44.5046 44.8347 44.5236 44.9223C44.5236 44.9223 44.5236 44.9222 44.5236 44.8906C44.4954 44.8596 44.457 44.8394 44.4152 44.8337C44.3259 44.8337 44.4152 44.8337 44.4981 44.8337L44.8999 44.7452C45.1742 44.6946 45.4421 44.6377 45.7164 44.5997C46.2709 44.5084 46.832 44.4619 47.394 44.4606C46.8927 44.7113 46.3723 44.9228 45.8376 45.093C45.5761 45.1879 45.3082 45.2574 45.0403 45.346L44.6384 45.4535C44.534 45.4894 44.4234 45.5045 44.3131 45.4978C44.2019 45.4783 44.0994 45.4253 44.0197 45.346C43.9679 45.2836 43.9269 45.213 43.8985 45.1373C43.8612 44.9536 43.8612 44.7644 43.8985 44.5807C43.9158 44.4335 43.9435 44.2877 43.9814 44.1443C44.0584 43.8699 44.15 43.5997 44.2557 43.3348C44.4564 42.8145 44.7153 42.3181 45.0275 41.8549V41.8549Z" fill="#B57D3E"/>
<path d="M46.5648 46.1365C46.5648 46.6298 46.5648 47.0979 46.5648 47.5659C46.5408 48.0031 46.56 48.4415 46.6222 48.875C46.6298 48.946 46.6515 49.0147 46.686 49.0774C46.686 49.109 46.686 49.0774 46.686 49.0774L46.7816 49.1217C46.9752 49.1712 47.1753 49.1904 47.3749 49.1786C47.815 49.1786 48.287 49.0774 48.7782 49.0268C48.3913 49.3447 47.9382 49.5737 47.4514 49.6972C47.184 49.7733 46.9027 49.7885 46.6286 49.7415C46.5443 49.7255 46.4627 49.6978 46.3862 49.6592C46.2896 49.6047 46.2051 49.5316 46.1374 49.4442C46.0461 49.3076 45.9812 49.1553 45.946 48.9952C45.8724 48.4909 45.9006 47.9771 46.029 47.4836C46.142 47.0116 46.3224 46.558 46.5648 46.1365V46.1365Z" fill="#B57D3E"/>
<path d="M40.2179 42.9996C40.2753 43.4993 40.2817 43.9862 40.2945 44.4669C40.2945 44.7009 40.2945 44.9412 40.2945 45.1689C40.2903 45.3826 40.3182 45.5958 40.3774 45.8013C40.3722 45.82 40.3722 45.8396 40.3774 45.8583C40.3774 45.8583 40.3774 45.8583 40.3455 45.8583C40.3136 45.8583 40.2881 45.8583 40.3455 45.8583C40.428 45.8706 40.5118 45.8706 40.5943 45.8583C40.8094 45.8239 41.0223 45.7775 41.2321 45.7191C41.6914 45.6053 42.1634 45.4725 42.6673 45.3839C42.2857 45.7227 41.8558 46.004 41.3916 46.2188C41.1576 46.3337 40.9117 46.4228 40.6581 46.4844C40.5027 46.5288 40.3396 46.5395 40.1797 46.516C40.0391 46.4913 39.9123 46.4172 39.8224 46.3073C39.7613 46.2293 39.7138 46.1416 39.6821 46.048C39.5665 45.5293 39.5665 44.9919 39.6821 44.4732C39.7886 43.9591 39.969 43.4628 40.2179 42.9996V42.9996Z" fill="#B57D3E"/>
<path d="M37.1434 52.9985C33.3927 53.4539 22.804 61.7072 28.6214 75.7031C34.6429 90.1987 51.3744 85.4617 52.0505 84.1083C52.7267 82.7548 43.8347 80.0543 45.7802 67.2031C45.7802 67.2031 46.6158 72.8382 49.161 74.9822C51.7061 77.1261 55.1059 79.3776 55.4504 84.1083C55.4504 84.1083 62.837 84.5636 62.9518 73.5149C63.0666 62.4662 52.2291 68.6325 47.5216 59.2344C44.1792 52.5558 40.1605 52.638 37.1434 52.9985Z" fill="#F06B51"/>
<path d="M36.9966 55.0729C36.9966 55.0729 32.742 56.4643 30.5031 63.2947C28.2642 70.125 31.8873 74.7418 32.2062 74.2106C32.5251 73.6793 27.9452 64.0916 36.9966 57.0019C36.9966 57.0019 31.377 62.4915 33.3863 71.548C33.3863 71.548 34.3176 71.7757 34.1134 71.1306C33.9093 70.4855 34.2219 62.6559 38.5403 57.8494C37.2466 60.6495 36.5769 63.6932 36.5769 66.7731C36.5769 69.853 37.2466 72.8967 38.5403 75.6968C38.5403 75.6968 37.5325 63.9334 40.1924 58.4439C40.1924 58.4439 40.8749 69.0625 40.1924 71.2191C39.5099 73.3758 43.4966 70.2136 41.8955 58.6526C41.8955 58.6526 43.2478 62.7697 43.2669 64.8821C43.2669 66.8363 44.7787 63.7817 42.8714 57.2928C42.6857 56.6154 42.3193 56.0001 41.8109 55.5115C41.3024 55.023 40.6706 54.6792 39.9819 54.5164C39.4723 54.4022 38.9446 54.3927 38.4312 54.4885C37.9178 54.5842 37.4296 54.7831 36.9966 55.0729V55.0729Z" fill="#F7E17F"/>
<path d="M68.5714 65.0718C69.5261 65.0718 70.3 64.3045 70.3 63.3579C70.3 62.4113 69.5261 61.644 68.5714 61.644C67.6167 61.644 66.8428 62.4113 66.8428 63.3579C66.8428 64.3045 67.6167 65.0718 68.5714 65.0718Z" fill="#9BCCCA"/>
<path d="M25.2853 50.1715C26.24 50.1715 27.014 49.4042 27.014 48.4576C27.014 47.511 26.24 46.7437 25.2853 46.7437C24.3306 46.7437 23.5567 47.511 23.5567 48.4576C23.5567 49.4042 24.3306 50.1715 25.2853 50.1715Z" fill="#9BCCCA"/>
<path d="M69.6175 54.5859C70.1953 54.5859 70.6636 54.1216 70.6636 53.5487C70.6636 52.9759 70.1953 52.5115 69.6175 52.5115C69.0398 52.5115 68.5714 52.9759 68.5714 53.5487C68.5714 54.1216 69.0398 54.5859 69.6175 54.5859Z" fill="#9BCCCA"/>
<path d="M66.4282 29.3326C66.4282 29.5377 66.3669 29.7383 66.2519 29.9088C66.137 30.0794 65.9736 30.2123 65.7825 30.2908C65.5913 30.3693 65.3809 30.3899 65.178 30.3499C64.9751 30.3098 64.7886 30.2111 64.6423 30.066C64.496 29.921 64.3965 29.7362 64.3561 29.535C64.3157 29.3338 64.3364 29.1252 64.4156 28.9357C64.4948 28.7461 64.6288 28.5842 64.8009 28.4702C64.9729 28.3562 65.1752 28.2954 65.3821 28.2954C65.6595 28.2954 65.9256 28.4047 66.1218 28.5992C66.318 28.7937 66.4282 29.0575 66.4282 29.3326V29.3326Z" fill="#9BCCCA"/>
<path d="M28.4237 33.747C28.4237 33.9522 28.3623 34.1527 28.2474 34.3233C28.1324 34.4938 27.9691 34.6268 27.7779 34.7053C27.5868 34.7838 27.3764 34.8043 27.1735 34.7643C26.9706 34.7243 26.7842 34.6255 26.6379 34.4804C26.4916 34.3354 26.3919 34.1506 26.3516 33.9494C26.3112 33.7482 26.3319 33.5396 26.4111 33.3501C26.4903 33.1606 26.6244 32.9986 26.7964 32.8846C26.9684 32.7706 27.1707 32.7098 27.3776 32.7098C27.5152 32.709 27.6516 32.7352 27.7789 32.7871C27.9062 32.8389 28.0219 32.9153 28.1192 33.0117C28.2165 33.1082 28.2935 33.2229 28.3458 33.3491C28.3981 33.4753 28.4245 33.6106 28.4237 33.747V33.747Z" fill="#9BCCCA"/>
<path d="M22.4851 41.4122C23.0628 41.4122 23.5312 40.9478 23.5312 40.375C23.5312 39.8022 23.0628 39.3378 22.4851 39.3378C21.9073 39.3378 21.439 39.8022 21.439 40.375C21.439 40.9478 21.9073 41.4122 22.4851 41.4122Z" fill="#9BCCCA"/>
<path d="M27.0713 29.4844C27.0713 29.6595 27.019 29.8307 26.9208 29.9763C26.8227 30.1219 26.6832 30.2354 26.5201 30.3024C26.3569 30.3694 26.1773 30.387 26.0041 30.3528C25.8308 30.3186 25.6717 30.2343 25.5469 30.1105C25.422 29.9866 25.3369 29.8289 25.3024 29.6571C25.268 29.4854 25.2857 29.3073 25.3533 29.1455C25.4209 28.9838 25.5353 28.8455 25.6822 28.7482C25.829 28.6509 26.0017 28.599 26.1783 28.599C26.4151 28.599 26.6423 28.6922 26.8097 28.8583C26.9772 29.0243 27.0713 29.2496 27.0713 29.4844V29.4844Z" fill="#9BCCCA"/>
<path d="M72.488 59.0889C73.0658 59.0889 73.5341 58.6246 73.5341 58.0517C73.5341 57.4789 73.0658 57.0145 72.488 57.0145C71.9103 57.0145 71.4419 57.4789 71.4419 58.0517C71.4419 58.6246 71.9103 59.0889 72.488 59.0889Z" fill="#9BCCCA"/>
<path d="M66.8428 4.71168C66.8428 5.67299 58.1294 6.45089 47.3749 6.45089C36.6203 6.45089 27.9134 5.67299 27.9134 4.71168C27.9134 3.75037 36.6267 2.99777 47.3749 2.99777C58.1231 2.99777 66.8428 3.75037 66.8428 4.71168Z" fill="#FBEBD1"/>
<path d="M48 22.7362C68.8766 22.7362 85.8004 21.3233 85.8004 19.5804C85.8004 17.8374 68.8766 16.4245 48 16.4245C27.1234 16.4245 10.1996 17.8374 10.1996 19.5804C10.1996 21.3233 27.1234 22.7362 48 22.7362Z" fill="#9BCCCA"/>
<path opacity="0.48" d="M23.0783 33.083C22.2363 42.9301 27.7156 50.8925 23.4993 50.5383C19.2829 50.1842 8.9111 41.2731 9.75309 31.4576C10.5951 21.6421 22.3383 14.5335 26.5802 14.8877C30.8221 15.2418 23.9203 23.2359 23.0783 33.083Z" fill="white"/>
<path opacity="0.48" d="M67.1617 26.006C61.2678 20.3836 55.125 17.0696 58.5951 13.49C62.0651 9.91034 69.6558 11.5926 75.5498 17.1897C81.4437 22.7868 83.402 30.2686 79.9319 33.8482C76.4619 37.4278 73.0557 31.6284 67.1617 26.006Z" fill="white"/>
<path opacity="0.48" d="M88.4094 40.5015C88.4094 47.6544 83.7274 53.4539 77.9482 53.4539C72.1691 53.4539 76.328 47.6038 76.328 40.4509C76.328 33.298 72.6921 21.8761 78.4712 21.8761C84.2504 21.8761 88.4094 33.3549 88.4094 40.5015Z" fill="white"/>
</g>
<defs>
<clipPath id="clip0_21_722">
<rect width="96" height="102" fill="white"/>
</clipPath>
</defs>
</svg>
