<svg width="118" height="130" viewBox="0 0 118 130" fill="none" xmlns="http://www.w3.org/2000/svg">
<path opacity="0.5" d="M58.9898 130C83.0415 130 102.539 127.551 102.539 124.531C102.539 121.51 83.0415 119.061 58.9898 119.061C34.9381 119.061 15.4403 121.51 15.4403 124.531C15.4403 127.551 34.9381 130 58.9898 130Z" fill="#222221"/>
<path d="M36.5731 77.1497H13.6062L13.3685 70.0068H36.7294L36.5731 77.1497Z" fill="#A14142"/>
<path d="M13.3685 70.0068L21.9751 73.3333L18.5855 75.2993L13.3685 74.4286V70.0068Z" fill="#793132"/>
<path d="M21.8257 80.4694H0.224167L5.40717 76.9047L0 73.3333H21.9751L21.8257 80.4694Z" fill="#BF4B51"/>
<path d="M81.4269 77.1497H104.394L104.632 70.0068H81.2706L81.4269 77.1497Z" fill="#A14142"/>
<path d="M104.632 70.0068L96.0249 73.3333L99.4077 75.2993L104.632 74.4286V70.0068Z" fill="#793132"/>
<path d="M96.1743 80.4694H117.769L112.593 76.9047L118 73.3333H96.0249L96.1743 80.4694Z" fill="#BF4B51"/>
<path d="M58.9898 88.7347C79.4325 88.7347 96.0045 87.7174 96.0045 86.4626C96.0045 85.2077 79.4325 84.1905 58.9898 84.1905C38.5472 84.1905 21.9751 85.2077 21.9751 86.4626C21.9751 87.7174 38.5472 88.7347 58.9898 88.7347Z" fill="#23594C"/>
<path d="M47.3264 79.9592C46.1252 54.3017 47.2323 28.588 50.6345 3.12924C50.6345 3.12924 49.5748 65.2585 52.9169 79.9592H47.3264Z" fill="#5C6439"/>
<path d="M69.0433 89.9864C67.8421 64.3289 68.9493 38.6152 72.3515 13.1565C72.3515 13.1565 71.2918 75.2857 74.6339 89.9864H69.0433Z" fill="#5C6439"/>
<path d="M36.2403 86.5986C36.2403 86.5986 39.0457 51.415 32.2664 9.76871C32.2664 9.76871 33.5367 71.898 29.5492 86.5986H36.2403Z" fill="#5C6439"/>
<path d="M35.4998 76.8299C34.2945 51.1724 35.4017 25.4584 38.808 1.52588e-05C38.808 1.52588e-05 37.7483 62.1293 41.0905 76.8299H35.4998Z" fill="#5C6439"/>
<path d="M84.443 89.9864C83.6986 64.3584 84.3789 38.7088 86.4808 13.1565C86.4808 13.1565 85.8015 75.2857 87.8937 89.9864H84.443Z" fill="#5C6439"/>
<path d="M75.2452 89.7007C74.0441 63.2894 75.151 36.8236 78.5534 10.6055C78.5534 10.6055 77.4937 74.551 80.8358 89.7007H75.2452Z" fill="#5C6439"/>
<path d="M60.2193 78.0544C61.371 52.4005 60.3074 26.695 57.0403 1.22449C57.0403 1.22449 58.0591 63.3537 54.8529 78.0544H60.2193Z" fill="#5C6439"/>
<path d="M68.7377 89.9864C69.8894 64.3325 68.8257 38.627 65.5585 13.1565C65.5585 13.1565 66.5775 75.2857 63.3712 89.9864H68.7377Z" fill="#5C6439"/>
<path d="M57.475 77.4082C57.475 77.4082 56.4424 29.585 53.5826 17.1293C53.5826 17.1293 53.732 72.585 52.224 77.4082H57.475Z" fill="#5C6439"/>
<path d="M84.1169 89.7415C84.1169 89.7415 83.0231 33.068 79.9867 18.3129C79.9867 18.3129 80.1497 84.034 78.5534 89.7415H84.1169Z" fill="#5C6439"/>
<path d="M40.2685 89.9864C40.2685 89.9864 41.532 27.9388 45.0235 11.7551C45.0235 11.7551 44.8402 83.7075 46.681 89.9864H40.2685Z" fill="#5C6439"/>
<path d="M64.5668 89.7415C64.5668 89.7415 65.348 40.0816 60.165 17.1293C60.165 17.1293 62.4882 80.034 60.165 89.7415H64.5668Z" fill="#808B50"/>
<path d="M54.8121 89.7415C53.6068 64.9553 54.7143 40.1106 58.1203 15.5306C58.1203 15.5306 57.0606 75.5374 60.4027 89.7415H54.8121Z" fill="#808B50"/>
<path d="M73.058 89.7415C71.8589 64.9551 72.9687 40.1108 76.3729 15.5306C76.3729 15.5306 75.3132 75.5374 78.6553 89.7415H73.058Z" fill="#808B50"/>
<path d="M37.2661 89.7415C36.0648 64.9553 37.1723 40.111 40.5743 15.5306C40.5743 15.5306 39.5146 75.5374 42.8635 89.7415H37.2661Z" fill="#808B50"/>
<path d="M57.3527 89.7415C57.3527 89.7415 58.3377 41.9184 61.0752 29.4626C61.0752 29.4626 60.9326 84.9184 62.3727 89.7415H57.3527Z" fill="#ABB96A"/>
<path d="M76.142 89.7415C76.142 89.7415 77.1269 41.9184 79.8645 29.4626C79.8645 29.4626 79.7218 84.9184 81.1619 89.7415H76.142Z" fill="#ABB96A"/>
<path d="M42.7139 89.7415C42.7139 89.7415 43.4748 41.9184 45.5874 29.4626C45.5874 29.4626 45.4787 84.9184 46.5859 89.7415H42.7139Z" fill="#ABB96A"/>
<path d="M49.8805 89.7415C49.8805 89.7415 48.5219 39.3061 49.8805 11.7755C49.8805 11.7755 55.376 74.8707 54.8054 89.7415H49.8805Z" fill="#ABB96A"/>
<path d="M81.9092 89.7415C81.9092 89.7415 80.5506 39.3061 81.9092 11.7755C81.9092 11.7755 87.4046 74.8707 86.834 89.7415H81.9092Z" fill="#ABB96A"/>
<path d="M62.3863 89.7415C62.3863 89.7415 61.707 49.9796 66.2786 31.6054C66.2786 31.6054 64.2408 81.9456 66.2786 89.7415H62.3863Z" fill="#ABB96A"/>
<path d="M37.6532 89.7415C37.6532 89.7415 38.3325 50.1497 30.6905 28.1973C30.6905 28.1973 37.0215 70.8163 33.7609 89.7415H37.6532Z" fill="#ABB96A"/>
<path d="M73.5267 89.7415C73.5267 89.7415 74.2059 49.9796 69.6343 31.6054C69.6343 31.6054 71.6722 81.9456 69.6343 89.7415H73.5267Z" fill="#ABB96A"/>
<path d="M44.7315 25.7075C44.7315 25.7075 47.109 81.4354 44.9352 89.7415H51.1236C51.1236 89.7415 49.3235 54.1088 44.7315 25.7075Z" fill="#808B50"/>
<path d="M22.8514 17.1497C22.8514 17.1497 34.0734 69.9728 28.9175 89.7415H35.1059C35.1059 89.7415 35.0175 46.7075 22.8514 17.1497Z" fill="#808B50"/>
<path d="M68.663 42.585C68.663 42.585 64.7231 79.3197 66.2787 89.7415H70.3001C70.3001 89.7415 67.841 63.483 68.663 42.585Z" fill="#808B50"/>
<path d="M33.1563 89.7007C33.1563 89.7007 34.0122 57.7755 18.5855 41.0204C18.5855 41.0204 29.6036 60.9864 29.3727 89.7007H33.1563Z" fill="#ABB96A"/>
<path d="M95.9977 17.1497C95.9977 17.1497 84.7757 69.9728 89.9316 89.7415H83.7432C83.7432 89.7415 83.8451 46.7075 95.9977 17.1497Z" fill="#808B50"/>
<path d="M85.6928 89.7007C85.6928 89.7007 84.8369 57.7755 100.264 41.0204C100.264 41.0204 89.2456 60.9864 89.4765 89.7007H85.6928Z" fill="#ABB96A"/>
<path d="M58.983 88.7347C39.0118 88.7347 22.7427 87.7619 22.0023 86.551C20.8671 89.2873 20.2809 92.2206 20.2769 95.1837C20.2769 111.279 28.9787 124.333 58.9966 124.333C89.0146 124.333 97.7163 111.279 97.7163 95.1837C97.7124 92.2206 97.1261 89.2873 95.9909 86.551C95.2233 87.7619 78.9543 88.7347 58.983 88.7347Z" fill="#2F7765"/>
<path d="M58.983 88.7347C39.0118 88.7347 22.7427 87.7619 22.0023 86.551C20.8671 89.2873 20.2809 92.2206 20.2769 95.1837C20.2769 95.8163 20.2769 96.4422 20.3244 97.0612C26.2071 98.0204 41.2875 98.7075 58.983 98.7075C76.6786 98.7075 91.7589 98.0272 97.6483 97.0612C97.6755 96.4445 97.6891 95.8186 97.6891 95.1837C97.6852 92.2206 97.0989 89.2873 95.9637 86.551C95.2233 87.7619 78.9542 88.7347 58.983 88.7347Z" fill="#65B29E"/>
<path d="M95.6309 107.156C95.8347 106.639 96.0181 106.122 96.1947 105.592C90.2985 106.333 77.3647 107.034 58.983 107.034C40.6014 107.034 27.688 106.354 21.7917 105.592C21.9616 106.122 22.1517 106.646 22.3555 107.156C33.3804 108.517 57.6788 108.517 58.983 108.517C60.2873 108.517 84.6127 108.531 95.6309 107.156Z" fill="#65B29E"/>
<path d="M93.5794 111.17C93.9122 110.646 94.2587 110.116 94.51 109.571C88.0296 110.252 75.782 110.823 58.983 110.823C42.1841 110.823 29.9704 110.231 23.4764 109.571C23.7685 110.116 24.081 110.646 24.4206 111.17C36.1452 112.32 57.7671 112.333 58.983 112.333C60.199 112.333 81.8616 112.32 93.5794 111.17Z" fill="#65B29E"/>
<g opacity="0.17">
<path opacity="0.17" d="M47.9241 88.6463H48.8207C33.754 88.381 22.6136 87.551 22.0023 86.551C21.8121 87.0136 21.6422 87.4898 21.4792 87.966C28.1974 88.3878 37.5581 88.6463 47.9241 88.6463Z" fill="#142621"/>
<path opacity="0.17" d="M95.9637 86.551C95.6105 87.1293 91.6774 87.6531 85.4891 88.0476C86.2434 90.3208 86.6309 92.6999 86.637 95.0952C86.637 110.299 78.961 122.776 52.7607 124.122C54.7306 124.252 56.7957 124.333 58.983 124.333C89.0893 124.333 97.7027 111.279 97.7027 95.1837C97.6945 92.2197 97.1036 89.2864 95.9637 86.551Z" fill="#142621"/>
</g>
<path opacity="0.27" d="M34.0122 102.796C35.7852 108.585 38.5567 112.966 35.0108 114.054C31.4648 115.143 27.1649 111.333 25.3987 105.531C23.6326 99.7279 25.066 94.1633 28.6051 93.0816C32.1442 92 32.2189 97.034 34.0122 102.796Z" fill="white"/>
<path d="M89.8773 82.5034H29.2028L28.5643 75.3673H90.2848L89.8773 82.5034Z" fill="#BF4B51"/>
<path d="M44.0522 68.6803C39.8949 69.8707 43.3185 76.3945 47.9037 78.9388C43.3185 81.4762 39.8949 88 44.0522 89.1905C48.2094 90.3809 55.6545 82 55.6545 82V75.8775C55.6545 75.8775 48.2094 67.4966 44.0522 68.6803Z" fill="#D75658"/>
<path d="M53.3449 75.2925C53.3449 75.2925 46.9324 69.102 44.5548 70.1224C42.1773 71.1428 53.3449 75.2925 53.3449 75.2925Z" fill="#A14142"/>
<path d="M53.3449 82.5782C53.3449 82.5782 46.9324 88.7687 44.5548 87.7483C42.1773 86.7279 53.3449 82.5782 53.3449 82.5782Z" fill="#A14142"/>
<path d="M54.9683 78.0544C54.9683 78.0544 50.7635 76.2925 50.4646 76.8299C50.1657 77.3673 53.501 78.4966 53.501 78.4966H54.9072L54.9683 78.0544Z" fill="#A14142"/>
<path d="M54.9683 78.9388C54.9683 78.9388 50.7635 80.7007 50.4646 80.17C50.1657 79.6394 53.501 78.4966 53.501 78.4966H54.9072L54.9683 78.9388Z" fill="#A14142"/>
<path d="M73.9411 68.6803C78.0984 69.8707 74.6747 76.3945 70.0895 78.9388C74.6747 81.4762 78.0984 88 73.9411 89.1905C69.7838 90.3809 62.3387 82 62.3387 82V75.8775C62.3387 75.8775 69.7838 67.4966 73.9411 68.6803Z" fill="#D75658"/>
<path d="M64.6483 75.2925C64.6483 75.2925 71.0609 69.102 73.4384 70.1224C75.8159 71.1428 64.6483 75.2925 64.6483 75.2925Z" fill="#A14142"/>
<path d="M64.6483 82.5782C64.6483 82.5782 71.0609 88.7687 73.4384 87.7483C75.8159 86.7279 64.6483 82.5782 64.6483 82.5782Z" fill="#A14142"/>
<path d="M63.0248 78.0544C63.0248 78.0544 67.2296 76.2925 67.5285 76.8299C67.8274 77.3673 64.4921 78.4966 64.4921 78.4966H63.0792L63.0248 78.0544Z" fill="#A14142"/>
<path d="M63.0248 78.9388C63.0248 78.9388 67.2296 80.7007 67.5285 80.17C67.8274 79.6394 64.4921 78.4966 64.4921 78.4966H63.0792L63.0248 78.9388Z" fill="#A14142"/>
<path d="M62.9297 83.1156H55.0635C54.7179 81.7398 54.466 80.342 54.3095 78.932C54.4664 77.5444 54.7183 76.1693 55.0635 74.8163H62.9297C63.2748 76.1693 63.5267 77.5444 63.6837 78.932C63.5272 80.342 63.2753 81.7398 62.9297 83.1156Z" fill="#BF4B51"/>
</svg>
