<svg width="182" height="122" viewBox="0 0 182 122" fill="none" xmlns="http://www.w3.org/2000/svg">
<path d="M0 121.061C0 120.543 0.185845 120.124 0.415557 120.124H181.496C181.774 120.124 182 120.543 182 121.061C182 121.579 181.769 122 181.496 122H0.415557C0.18469 122 0 121.58 0 121.061Z" fill="#84B0DE"/>
<path d="M39.7736 62.2754C36.3603 59.5213 27.4223 63.3292 26.0879 65.1055C24.7777 66.853 22.1193 85.2956 24.0759 86.5702C26.0325 87.8449 32.0904 90.4288 34.6092 88.1509C37.1279 85.8731 39.7736 62.2754 39.7736 62.2754Z" fill="#FCAA5F"/>
<path d="M42.8372 61.2848C42.8372 61.2848 48.6366 58.3305 49.4169 56.8637C50.1972 55.3969 53.4836 50.4592 53.4836 50.4592C53.4836 50.4592 55.1597 50.6709 55.603 51.4187C55.0581 53.4538 53.3878 59.0932 51.2304 60.7556C49.0729 62.418 43.3809 65.8439 43.3809 65.8439L42.8372 61.2848Z" fill="#FFD173"/>
<path d="M43.9916 96.0761C43.9916 96.0761 44.1878 100.084 44.1878 102.529C44.1878 104.974 40.4097 114.556 40.7537 115.925C41.0977 117.294 37.1937 117.107 37.1937 117.107C37.1937 117.107 36.9271 109.667 37.9325 106.147C38.9379 102.627 37.9325 95.3916 37.9325 95.3916L43.9916 96.0761Z" fill="#FFD173"/>
<path d="M34.5099 94.1458C34.5099 94.1458 33.2401 100.771 32.2128 102.287C31.1854 103.804 25.6331 114.118 25.6331 115.438C25.6331 116.758 22.1505 115.683 22.1505 115.683C22.1505 115.683 25.0929 104.389 26.2703 100.967C26.9738 98.9267 27.5142 96.8345 27.8863 94.7095L34.5099 94.1458Z" fill="#FFD173"/>
<path d="M44.0343 87.5709C44.3944 89.751 45.8616 102.995 45.8616 102.995C45.8616 102.995 40.8598 104.526 37.8678 103.841C37.8678 103.841 37.9521 93.1931 37.2653 93.1931H37.2445C36.7654 93.1991 36.3018 93.3629 35.9259 93.6591C35.5501 93.9552 35.2831 94.3669 35.1667 94.8301C34.5895 97.1252 33.0208 104.046 33.0208 104.046C33.0208 104.046 26.6985 103.168 25.326 102.533C25.326 102.533 27.4373 87.5525 29.7425 85.2539L32.5129 82.7793L42.5948 81.4851C42.5948 81.4851 43.7792 86.0282 44.0343 87.5709Z" fill="#3C1777"/>
<path d="M46.6835 120.132H35.9655C35.9655 120.132 35.7439 116.27 36.4803 115.536C37.2168 114.802 37.0194 115.629 38.2465 116.096C39.4735 116.563 40.27 115.437 40.831 114.878C41.392 114.319 40.9926 116.661 43.3474 116.661C45.7023 116.661 47.2237 119.056 46.6835 120.132Z" fill="#223BA9"/>
<path d="M25.7532 115.012C26.3072 115.14 28.0526 116.558 28.6309 118.092C29.2092 119.625 29.0453 120.174 29.0453 120.174C29.0453 120.174 27.2711 120.961 23.867 120.713C20.4629 120.464 20.9812 120.093 20.9812 120.093C20.9812 120.093 21.2236 116.602 21.8019 115.54C22.3802 114.478 24.7801 114.79 25.7532 115.012Z" fill="#223BA9"/>
<path d="M23.8935 68.1206C23.8935 68.1206 17.7756 70.3571 16.1595 69.9348C14.5434 69.5126 8.68057 68.5601 8.68057 68.5601C8.68057 68.5601 7.69823 69.9302 7.94872 70.762C9.81759 71.7468 15.1056 74.3537 17.7952 73.9038C20.4848 73.454 26.8694 71.6225 26.8694 71.6225L23.8935 68.1206Z" fill="#FFD173"/>
<path d="M9.71832 71.5719C10.1096 70.8161 10.4894 69.76 10.7503 68.9673C10.2043 68.9121 9.80375 68.8522 9.65484 68.7775C8.96224 68.4496 7.83677 65.432 7.50085 65.4481C7.16494 65.4642 7.65899 67.13 7.45237 67.1392C7.24574 67.1484 4.6889 65.0765 4.36453 65.44C4.04017 65.8036 6.41693 67.3302 6.21146 67.5592C6.00599 67.7881 3.21021 65.9324 3.13171 66.5157C3.05322 67.099 5.72318 67.994 5.60428 68.3219C5.48539 68.6498 3.06476 67.6834 2.84198 67.9388C2.61919 68.1942 3.18828 68.3702 3.82431 68.629C4.46035 68.8879 5.39189 69.1744 5.26029 69.3193C5.1287 69.4643 3.34295 69.1375 3.1975 69.4666C3.05206 69.7956 8.16113 70.808 9.04188 71.2969C9.26179 71.4017 9.48765 71.4935 9.71832 71.5719Z" fill="#FFD173"/>
<path d="M19.1735 69.033C19.1735 69.033 19.9111 72.5464 22.2197 74.1432C24.7904 73.4886 27.5297 72.3842 27.8425 73.3126C28.1207 74.1466 27.9406 80.9848 28.2973 84.6628C31.0677 86.2573 44.0597 85.2058 44.0678 83.5192C44.0747 82.2319 40.9384 69.3298 42.7437 67.924C43.3994 67.4132 48.9771 64.4312 48.9771 64.4312C48.9771 64.4312 46.6489 59.8686 45.2175 58.449C45.2175 58.449 42.4217 59.9066 39.7506 60.9799C36.2472 62.3846 33.2979 62.7735 31.3482 63.6754C24.4834 66.8552 23.381 67.4304 19.1735 69.033Z" fill="#E5FCFF"/>
<path d="M31.0492 63.8145C32.8707 69.2376 30.5401 80.7869 27.9648 83.6641C27.2214 81.8729 30.083 74.6079 27.9648 65.394C27.9083 64.9258 30.8645 63.3141 31.0492 63.8145Z" fill="#FFBA78"/>
<path d="M36.1248 62.2016C38.7578 65.0524 42.7045 75.6456 42.7911 76.1725C42.6756 66.9161 39.1295 62.5307 38.5396 61.455C38.1506 61.1939 36.0786 61.9221 36.1248 62.2016Z" fill="#FFBA78"/>
<path d="M36.5842 59.5016V64.3414C36.5842 64.3414 34.8065 66.2477 32.5002 64.9281L31.4382 58.6997L36.5842 59.5016Z" fill="#FFD173"/>
<g style="mix-blend-mode:multiply" opacity="0.68">
<path d="M36.5842 61.9405C35.1159 62.3098 33.299 61.6874 31.736 60.453L31.4359 58.6997L36.5819 59.505L36.5842 61.9405Z" fill="#FFC53C"/>
</g>
<path d="M36.4492 51.1069C36.4492 51.1069 41.4601 57.0995 39.178 60.0412C36.8959 62.9828 31.7164 60.9845 29.1549 57.2663C26.5935 53.5481 35.5026 48.3332 36.4492 51.1069Z" fill="#FFD173"/>
<path d="M31.549 53.2708C31.549 53.2708 29.7113 53.326 30.4362 55.0459C31.1612 56.7658 32.4679 57.3468 31.7718 58.0428C31.2939 58.5202 31.5663 59.4958 31.7833 60.0584C31.8984 60.348 31.9119 60.6679 31.8214 60.9661L31.8099 61.0063C31.7119 61.3282 31.5059 61.6067 31.2264 61.7952C30.9469 61.9837 30.6109 62.0707 30.2746 62.0417C28.5893 61.8967 25.7727 61.0512 25.9251 56.9902C25.9251 56.9902 24.5215 54.3821 25.9251 52.3884C27.3288 50.3947 28.3815 50.557 28.3815 50.557C28.3815 50.557 28.8825 48.6703 30.442 48.2262C32.0015 47.7821 36.5669 46.1726 37.0679 48.6702C37.5688 51.1678 35.3341 52.9936 31.549 53.2708Z" fill="#3C1777"/>
<path d="M32.0431 56.4058C31.9138 56.3391 30.0611 55.4855 29.7887 56.5312C29.5347 57.5033 29.8868 59.007 31.2154 59.007C32.544 59.007 33.718 57.2594 32.0431 56.4058Z" fill="#FFD173"/>
<path d="M35.9655 120.132C35.9655 120.132 35.9193 119.326 35.939 118.388C37.196 118.928 44.092 118.842 46.598 118.791C46.8162 119.292 46.8589 119.782 46.6835 120.132H35.9655Z" fill="#E5FCFF"/>
<path d="M23.8647 120.713C20.4605 120.464 20.9788 120.093 20.9788 120.093C20.9788 120.093 21.0342 119.287 21.1566 118.335C23.5264 120.443 27.2272 119.37 28.8467 118.74C29.1584 119.784 29.0407 120.174 29.0407 120.174C29.0407 120.174 27.2688 120.961 23.8647 120.713Z" fill="#E5FCFF"/>
<path d="M55.0074 53.2604C54.1855 53.0303 53.1501 52.5932 52.3882 52.2457C52.7184 51.8097 52.9434 51.4726 52.9931 51.3162C53.224 50.5833 51.7637 47.7142 52.0027 47.4795C52.2416 47.2448 53.1351 48.7369 53.2817 48.5931C53.4283 48.4493 53.6395 45.1695 54.1266 45.1798C54.6138 45.1902 54.1266 47.9638 54.4325 47.9696C54.7384 47.9753 55.2752 44.6667 55.7565 45.0084C56.2379 45.3501 55.0847 47.9086 55.4102 48.0444C55.7358 48.1801 56.6615 45.7562 57.0044 45.7631C57.3472 45.77 57.0898 46.3072 56.8416 46.948C56.5935 47.5888 56.179 48.4654 56.3799 48.4689C56.5808 48.4723 57.5492 46.9434 57.8897 47.0607C58.2303 47.1781 55.5049 51.6049 55.2683 52.5828C55.1956 52.8139 55.1084 53.0402 55.0074 53.2604Z" fill="#FFD173"/>
<path d="M102.285 38.2221C104.995 38.7536 115.821 53.2111 115.821 53.2111L116.202 54.212C116.202 54.212 96.6152 52.0411 95.9065 51.2071C93.9856 48.9534 100.053 37.7861 102.285 38.2221ZM115.684 53.5229C112.105 48.9695 103.966 42.3211 102.206 40.9095C100.635 42.5075 98.2671 47.2231 97.9554 49.3537C100.199 49.8116 109.963 52.8303 115.676 53.5195L115.684 53.5229Z" fill="#3C1777"/>
<path d="M128.518 40.6897C133.846 37.2246 135.31 37.2522 136.862 38.1299C138.415 39.0077 144.134 47.1931 141.581 49.7493C139.028 52.3056 118.725 54.121 118.725 54.121L118.264 52.8831C118.264 52.8831 123.189 44.1536 128.518 40.6897ZM138.053 48.8462C139.237 47.6693 136.291 42.7685 134.947 41.7251C134.601 41.5329 120.95 50.1934 119.044 53.15C126.666 52.3286 136.951 49.8218 138.053 48.8462Z" fill="#3C1777"/>
<path d="M118.563 50.5237H117.42C116.288 50.5237 115.371 51.4379 115.371 52.5657V55.9146C115.371 57.0424 116.288 57.9566 117.42 57.9566H118.563C119.694 57.9566 120.612 57.0424 120.612 55.9146V52.5657C120.612 51.4379 119.694 50.5237 118.563 50.5237Z" fill="#3C1777"/>
<path d="M75.2636 54.2729L168.118 53.9956C168.699 53.9942 169.274 54.1181 169.803 54.3589C170.332 54.5997 170.802 54.9517 171.182 55.3907C171.561 55.8297 171.841 56.3453 172.002 56.9022C172.163 57.4591 172.201 58.044 172.113 58.6169L170.677 68.0597L166.023 68.0504L163.218 115.573C163.146 116.797 162.607 117.948 161.711 118.79C160.816 119.631 159.632 120.1 158.401 120.101H84.2928L81.2095 67.871L76.8231 67.8629L75.2636 54.2729Z" fill="#3D42DF"/>
<path d="M82.7021 120.101H139.589L142.636 55.2576H75.0431L77.8782 115.592C78.0005 118.115 80.1222 120.101 82.7021 120.101Z" fill="#585DF2"/>
<path d="M72.2565 67.8974L145.629 68.0918L147.304 54.022L75.4263 54.2958C74.8684 54.2981 74.3171 54.4158 73.8072 54.6414C73.2974 54.8671 72.8401 55.1958 72.4643 55.6067C72.0885 56.0177 71.8025 56.5019 71.6242 57.0288C71.446 57.5556 71.3795 58.1136 71.4288 58.6674L72.2565 67.8974Z" fill="#585DF2"/>
<path d="M145.629 68.0919L75.6468 67.8975L143.411 71.5846L145.629 68.0919Z" fill="#223BA9"/>
<path d="M118.096 54.1313H116.149V68.0275H118.096V54.1313Z" fill="#3C1777"/>
<path d="M112.449 67.9619H110.016V120.197H112.449V67.9619Z" fill="#3C1777"/>
<path d="M168.767 26.8787C162.286 29.3855 156.949 31.072 151.626 32.4824C149.87 32.9426 146.964 34.2714 145.348 33.0922C144.507 32.479 144.155 31.5575 144.649 30.5762C145.554 28.7803 148.351 28.6515 150.12 28.181C155.512 26.7498 161.548 24.8758 167.529 22.629C168.653 22.2068 169.965 23.0535 170.281 24.1372C170.64 25.3704 169.888 26.445 168.767 26.8787Z" fill="#FFF18D"/>
<path d="M127.281 16.954C129.194 2.36071 129.068 2.32275 129.881 0.945685C130.712 -0.465898 132.989 -0.272641 133.438 1.36098C133.883 2.97158 133.785 2.71848 131.707 18.0664C131.542 19.287 130.034 19.9946 128.937 19.7185C127.623 19.3883 127.118 18.1792 127.279 16.9574L127.281 16.954Z" fill="#FFF18D"/>
<path d="M103.736 18.828C102.291 16.885 101.06 14.793 100.063 12.588C99.134 10.5334 97.4313 7.50772 99.0243 5.4726C99.3706 5.03659 100.179 4.8272 100.692 5.00552C102.858 5.74985 103.271 8.77666 104.136 10.668C105.096 12.7269 106.231 14.7005 107.528 16.5674C108.201 17.551 107.748 19.004 106.765 19.5884C105.656 20.2499 104.446 19.7874 103.733 18.828H103.736Z" fill="#FFF18D"/>
<path d="M71.1426 29.9262C70.4869 29.03 71.0375 27.867 71.8063 27.294C73.3924 26.116 76.1928 27.2031 77.9185 27.6783C79.9253 28.2439 81.8832 28.9695 83.7733 29.848C84.8688 30.3496 85.1701 31.8969 84.6137 32.8771C83.9615 34.0275 82.6906 34.1782 81.5743 33.7146C74.2882 30.6855 72.7598 32.1328 71.1426 29.9262Z" fill="#FFF18D"/>
</svg>
