<svg width="48" height="50" viewBox="0 0 48 50" fill="none" xmlns="http://www.w3.org/2000/svg">
<path d="M42.0951 12.3335H37.7056C38.397 11.0947 38.7592 9.70565 38.7591 8.29398C38.7591 6.0943 37.8666 3.98471 36.2778 2.4293C34.6891 0.873886 32.5343 2.78339e-05 30.2874 2.78339e-05C29.0829 -0.00203787 27.8918 0.248059 26.7941 0.733523C25.6964 1.21899 24.7173 1.9286 23.9226 2.8148C23.1252 1.93183 22.1457 1.22442 21.0486 0.739228C19.9515 0.254037 18.7618 0.00209573 17.5579 2.78339e-05C16.4435 -0.00279855 15.3396 0.209654 14.3092 0.625197C13.2788 1.04074 12.3423 1.65125 11.5533 2.42169C10.7643 3.19213 10.1383 4.10735 9.71122 5.11502C9.28411 6.12269 9.06428 7.203 9.06428 8.29398C9.06017 9.70885 9.43067 11.1006 10.1397 12.3335H5.7502C4.22693 12.3392 2.76772 12.9341 1.69059 13.9886C0.61347 15.0431 0.00578098 16.4718 0 17.9631V21.6158C0.00352203 22.7745 0.372185 23.9039 1.05564 24.8499C1.7391 25.7959 2.7041 26.5124 3.81889 26.9016V44.3919C3.8247 45.8812 4.43308 47.3076 5.51082 48.3587C6.58857 49.4098 8.04784 50 9.56909 50H38.4299C39.184 50.0028 39.9312 49.8598 40.6287 49.5792C41.3262 49.2987 41.9603 48.886 42.4946 48.365C43.0288 47.8439 43.4527 47.2248 43.742 46.543C44.0312 45.8612 44.1801 45.1301 44.1801 44.3919V27.009C45.2967 26.6225 46.2634 25.9067 46.9473 24.9601C47.6312 24.0135 47.9986 22.8827 47.9989 21.7233V18.0705C48.014 17.3094 47.8713 16.5532 47.5794 15.8476C47.2875 15.1421 46.8525 14.5018 46.3006 13.9655C45.7487 13.4292 45.0915 13.0081 44.3687 12.7276C43.6459 12.4471 42.8723 12.313 42.0951 12.3335ZM26.0955 8.29398C26.1013 7.23206 26.5362 6.21558 27.3053 5.46669C28.0743 4.7178 29.1149 4.29738 30.1996 4.2974C30.7357 4.2974 31.2665 4.40081 31.7618 4.60165C32.2571 4.8025 32.7071 5.09689 33.0862 5.468C33.4652 5.83911 33.7659 6.27968 33.9711 6.76457C34.1762 7.24945 34.2818 7.76915 34.2818 8.29398C34.2818 9.35592 33.8525 10.3747 33.0875 11.1276C32.3226 11.8805 31.2843 12.3063 30.1996 12.312H26.0955V8.29398ZM17.4702 4.2974C18.0062 4.2974 18.537 4.40081 19.0323 4.60165C19.5276 4.8025 19.9776 5.09689 20.3567 5.468C20.7358 5.83911 21.0365 6.27968 21.2416 6.76457C21.4468 7.24945 21.5523 7.76915 21.5523 8.29398V12.312H17.4702C16.3817 12.312 15.3377 11.8887 14.5681 11.1352C13.7984 10.3817 13.3659 9.35963 13.3659 8.29398C13.3717 7.23206 13.8067 6.21558 14.5758 5.46669C15.3448 4.7178 16.3855 4.29738 17.4702 4.2974ZM4.30173 17.9631C4.29877 17.7873 4.33192 17.6128 4.39926 17.4498C4.46659 17.2869 4.56667 17.1388 4.69362 17.0146C4.82058 16.8903 4.97179 16.7923 5.13822 16.7264C5.30466 16.6604 5.48295 16.628 5.66246 16.6309H42.1829C42.3605 16.6309 42.5365 16.6655 42.7003 16.7327C42.8642 16.7999 43.0128 16.8983 43.1374 17.0223C43.262 17.1463 43.3601 17.2934 43.4261 17.4549C43.4921 17.6164 43.5246 17.7891 43.5217 17.9631V21.6158C43.5246 21.7897 43.4921 21.9625 43.4261 22.124C43.3601 22.2855 43.262 22.4326 43.1374 22.5566C43.0128 22.6806 42.8642 22.779 42.7003 22.8462C42.5365 22.9134 42.3605 22.948 42.1829 22.948H5.66246C5.30157 22.948 4.95544 22.8076 4.70025 22.5578C4.44507 22.308 4.30173 21.9691 4.30173 21.6158V17.9631ZM8.12056 44.3919V27.2024H21.7279V45.6596H9.48129C9.30011 45.6742 9.11776 45.6526 8.94539 45.596C8.77303 45.5395 8.61423 45.4492 8.47869 45.3305C8.34315 45.2119 8.23373 45.0675 8.15706 44.9061C8.08039 44.7448 8.03809 44.5698 8.03275 44.3919H8.12056ZM39.7028 44.3919C39.7028 44.5658 39.6675 44.738 39.5989 44.8985C39.5302 45.0589 39.4296 45.2043 39.3029 45.3263C39.1763 45.4483 39.0261 45.5444 38.8612 45.609C38.6962 45.6736 38.5197 45.7054 38.3421 45.7026H25.9418V27.2453H39.5273L39.7028 44.3919Z" fill="black"/>
</svg>
