<svg xmlns="http://www.w3.org/2000/svg" xmlns:xlink="http://www.w3.org/1999/xlink" width="42.118" height="53.674" viewBox="0 0 42.118 53.674"><defs><clipPath id="a"><rect width="42.118" height="53.674" fill="none"/></clipPath></defs><g clip-path="url(#a)"><path d="M66.235,11.1c-2.5,4.788-.762,7.727-3.483,11.1s-2.394,8.053-2.394,8.053,3.809-7.291,0-12.189-5.768-8.053-3.918-12.189,0-5.877,0-5.877a10.035,10.035,0,0,1-5.115,7.618c-4.788,2.612-8.6,9.468-6.2,14.147s-5.115,8.162-5.332,18.718S53.72,53.216,58.291,53s10.472-4.773,14.365-11.1a17.6,17.6,0,0,0-2.176-21.657A13.615,13.615,0,0,1,66.235,11.1" transform="translate(-33.293 0)" fill="#fc0001"/><path d="M21.907,100.667c5.986,2.068,9.577,7.183,9.468,12.95s-3.7,20.024-3.7,20.024-2.83.109-6.53-5.224-1.959-12.515,1.306-15.78-.544-11.971-.544-11.971" transform="translate(-15.954 -84.234)" fill="#fc0001"/><path d="M63.009,66.843c.762,3.156.363,5.22-1.959,6.639-1.959,1.2-2.721,4.244-2.721,4.244s1.524-5.333-4.244-9.794-2.394-8.6-2.394-8.6-8,5.123-6.856,10.556c1.415,6.747.762,8.489.762,8.489s-1.113-3.634-2.721-4.9a6.941,6.941,0,0,0-2.829-1.415s2.391,5.279-.762,9.9c-1.632,2.394-4.571,9.141-.544,14.039s11.536,7.836,17.521,6.638,13.151-8.1,14.148-15.453a23.375,23.375,0,0,0-7.4-20.351" transform="translate(-30.72 -49.648)" fill="#fb6d01"/><path d="M62.489,84c-1.415,10.012,7.4,6.53,7.727,15.236.163,4.352,1.236,1.046,1.959-.762,1.088-2.721,5.115-4.462,5.115-4.462s-.707,5.088,1.469,8.461c1.492,2.313,3.755,5.36,2.013,10.91a14.065,14.065,0,0,1-9.9,9.794c-8.428,2.58-15.889-3.156-17.739-7.4a12.258,12.258,0,0,1,1.524-11.862,5.136,5.136,0,0,0,.653-5.55s3.809,2.5,2.612,5.441,6.008-2.645,3.156-7.183C56.286,89.006,62.489,84,62.489,84" transform="translate(-43.694 -70.288)" fill="#efa204"/><path d="M89.617,138.136c-1.415,3.591.979,6.883,3.918,11.672s-2.34,14.311-10.175,14.746c-6.415.356-12.406-2.721-13.277-8.053s1.087-8.874,4.68-11.427c4.135-2.938,1.415-12.406,1.415-12.406s5.224,1.415,5.986,6.094,2.5,9.686,2.829,5.659,4.625-6.285,4.625-6.285" transform="translate(-58.47 -111.01)" fill="#facf67"/><path d="M87.591,185.3c-10.339-1.959-11.2-10.789-8.053-13.277,4.135-3.265,3.7-6.638,3.7-6.638s2.177,3.482,1.741,5.441,3.7.653,2.176-3.591,0-9.9,0-9.9.109,4.353,1.741,6.421,4.353,7.509,4.135,9.359,1.415.218.544-2.938a6.112,6.112,0,0,1,1.524-5.55,18.222,18.222,0,0,0,3.537,5.5c2.758,2.758,1.36,8.489-2.449,12.08a11.807,11.807,0,0,1-8.6,3.1" transform="translate(-65.205 -131.651)" fill="#fce8b3"/><path d="M211.819,52.19a7.4,7.4,0,0,1,1.632-6.856Z" transform="translate(-177.026 -37.934)" fill="#fc0001"/><path d="M3.559,124.121C.838,122.6,1.382,114,1.382,114S-.9,117.809.4,120.2a14.735,14.735,0,0,0,3.156,3.918" transform="translate(0 -95.391)" fill="#fc0001"/><path d="M220.653,150.834c5.931,6.257,2.164,9.828.463,12.379a13.927,13.927,0,0,0-1.986,5.36,7.385,7.385,0,0,1,1.007-7.074c4.326-5.305,1.306-8.08.517-10.665" transform="translate(-182.949 -126.212)" fill="#fce8b3"/><path d="M35.5,191.168C31.476,186.815,34.632,178,34.632,178s-5.441,7.509-2.176,12.951,6.312,5.877,5.985,5.55-2.938-5.333-2.938-5.333" transform="translate(-26.285 -148.943)" fill="#fce8b3"/><path d="M100.443,246.72c-2.83-3.7.979-8.053.979-8.053Z" transform="translate(-83.171 -199.707)" fill="#fff"/><path d="M142.454,216.42c3.918-3.265,1.524-6.747.218-8.815a19.322,19.322,0,0,1-1.632-2.938,8.252,8.252,0,0,0,1.741,5.55c1.24,1.566-.326,6.2-.326,6.2" transform="translate(-118.001 -171.257)" fill="#fff"/><path d="M79.353,82.167c-3.836,7.1.571,8.244,1.224,13.549a4.916,4.916,0,0,1-.055,2.421,6.218,6.218,0,0,0-.109-7.563c-2.5-3.544-1.061-8.407-1.061-8.407" transform="translate(-65.102 -68.754)" fill="#fce8b3"/><path d="M94.933,244.461c1.551-3.265,1.877-4.081.326-6.366a8.3,8.3,0,0,1-1.632-3.428,7.725,7.725,0,0,0,.082,4.9c.979,2.2-2.612,4.979-4.489,4.081s-2.612-.816-3.591-2.857-2.367-.408-3.02,2.449-2.938,2.449-4.652,1.143a8.442,8.442,0,0,1-2.449-3.836s-1.061,2.857,2.367,5.958a12.65,12.65,0,0,0,11.345,2.857c3.1-.9,4.163-1.632,5.713-4.9" transform="translate(-63.052 -196.36)" fill="#fff"/></g></svg>