<svg id="Group_71" data-name="Group 71" xmlns="http://www.w3.org/2000/svg" width="39.688" height="39.688" viewBox="0 0 39.688 39.688">
    <rect id="Rectangle_115" data-name="Rectangle 115" width="4.073" height="12.565" transform="translate(17.939 8.534)" fill="#3d42df"/>
    <rect id="Rectangle_116" data-name="Rectangle 116" width="4.072" height="9.009" transform="translate(17.938 21.096) rotate(-45)" fill="#3d42df"/>
    <path id="Path_57" data-name="Path 57" d="M27.252,41.836H12.435A12.448,12.448,0,0,1,0,29.4V14.583A12.448,12.448,0,0,1,12.435,2.148H27.252A12.449,12.449,0,0,1,39.688,14.583V29.4A12.449,12.449,0,0,1,27.252,41.836M12.435,6.221a8.371,8.371,0,0,0-8.362,8.362V29.4a8.371,8.371,0,0,0,8.362,8.362H27.252A8.372,8.372,0,0,0,35.616,29.4V14.583a8.372,8.372,0,0,0-8.364-8.362Z" transform="translate(0 -2.148)" fill="#3d42df"/>
</svg>

