<svg id="Group_70" data-name="Group 70" xmlns="http://www.w3.org/2000/svg" width="34.229" height="39.347" viewBox="0 0 34.229 39.347">
    <path id="Path_58" data-name="Path 58" d="M42.54,41.567l-.831-.371c-1.668-.749-16.283-7.563-16.283-16.939V12.615a5.129,5.129,0,0,1,3.042-4.682L40.074,2.774a6.525,6.525,0,0,1,5.177-.039l11.29,4.81a5.119,5.119,0,0,1,3.114,4.714v12c0,9.376-14.614,16.19-16.281,16.939Zm.169-35.275a2.374,2.374,0,0,0-.982.208L30.122,11.655a1.048,1.048,0,0,0-.623.959V24.257c0,5.358,8.747,10.734,13.041,12.83,4.295-2.1,13.041-7.472,13.041-12.83v-12a1.049,1.049,0,0,0-.639-.967L43.654,6.483a2.4,2.4,0,0,0-.945-.191" transform="translate(-25.426 -2.22)" fill="#3d42df"/>
    <path id="Path_59" data-name="Path 59" d="M37.241,20.973l-6.6-4.4,2.26-3.389,3.794,2.529,7.14-7.288,2.91,2.851Z" transform="translate(-20.026 4.213)" fill="#3d42df"/>
</svg>
