<svg width="70" height="60" viewBox="0 0 70 60" fill="none" xmlns="http://www.w3.org/2000/svg">
<path opacity="0.3" d="M-0.247578 42.515V21.35H12.5024C13.6924 21.35 14.6841 20.9533 15.4774 20.16C16.3274 19.31 16.7524 18.2617 16.7524 17.015C16.7524 15.825 16.3274 14.8333 15.4774 14.04C14.6841 13.19 13.6924 12.765 12.5024 12.765H-0.247578V0.0999992H12.5024C15.5624 0.0999992 18.3958 0.864998 21.0024 2.39499C23.6091 3.925 25.6774 5.99333 27.2074 8.6C28.7374 11.15 29.5024 13.955 29.5024 17.015C29.5024 20.075 28.7374 22.9083 27.2074 25.515C25.7341 28.1217 23.7224 30.19 21.1724 31.72C18.6224 33.25 15.8174 34.015 12.7574 34.015H12.5024V42.515H-0.247578ZM-0.247578 50.93H12.5024V63.765H-0.247578V50.93ZM40.0112 42.515V21.35H52.7612C53.9512 21.35 54.9429 20.9533 55.7362 20.16C56.5862 19.31 57.0112 18.2617 57.0112 17.015C57.0112 15.825 56.5862 14.8333 55.7362 14.04C54.9429 13.19 53.9512 12.765 52.7612 12.765H40.0112V0.0999992H52.7612C55.8212 0.0999992 58.6545 0.864998 61.2612 2.39499C63.8679 3.925 65.9362 5.99333 67.4662 8.6C68.9962 11.15 69.7612 13.955 69.7612 17.015C69.7612 20.075 68.9962 22.9083 67.4662 25.515C65.9929 28.1217 63.9812 30.19 61.4312 31.72C58.8812 33.25 56.0762 34.015 53.0162 34.015H52.7612V42.515H40.0112ZM40.0112 50.93H52.7612V63.765H40.0112V50.93Z" fill="#BDBDC7"/>
</svg>
