<svg xmlns="http://www.w3.org/2000/svg" xmlns:xlink="http://www.w3.org/1999/xlink" width="39.485" height="39.485" viewBox="0 0 39.485 39.485">
    <defs>
        <clipPath id="clip-path">
        <rect id="Rectangle_121" data-name="Rectangle 121" width="39.485" height="39.485" fill="#3d42df"/>
        </clipPath>
    </defs>
    <g id="Group_75" data-name="Group 75" transform="translate(0 0)">
        <g id="Group_74" data-name="Group 74" transform="translate(0 0)" clip-path="url(#clip-path)">
        <path id="Path_65" data-name="Path 65" d="M27.113,39.485H12.37A12.384,12.384,0,0,1,0,27.115V12.37A12.384,12.384,0,0,1,12.37,0H27.113a12.384,12.384,0,0,1,12.37,12.37V27.115a12.384,12.384,0,0,1-12.37,12.37M12.37,4.052A8.328,8.328,0,0,0,4.052,12.37V27.115a8.328,8.328,0,0,0,8.318,8.318H27.113a8.328,8.328,0,0,0,8.318-8.318V12.37a8.328,8.328,0,0,0-8.318-8.318Z" transform="translate(0 0)" fill="#3d42df"/>
        <path id="Path_66" data-name="Path 66" d="M9.71,18.122a5.561,5.561,0,1,1,5.561-5.561A5.566,5.566,0,0,1,9.71,18.122m0-7.07a1.509,1.509,0,1,0,1.509,1.509A1.51,1.51,0,0,0,9.71,11.052" transform="translate(4.257 7.181)" fill="#3d42df"/>
        <rect id="Rectangle_118" data-name="Rectangle 118" width="14.548" height="4.052" transform="translate(17.091 17.717)" fill="#3d42df"/>
        <rect id="Rectangle_119" data-name="Rectangle 119" width="4.052" height="4.224" transform="translate(27.587 21.07)" fill="#3d42df"/>
        <rect id="Rectangle_120" data-name="Rectangle 120" width="4.052" height="4.224" transform="translate(21.349 21.07)" fill="#3d42df"/>
        </g>
    </g>
</svg>
