<svg id="Group_190" data-name="Group 190" xmlns="http://www.w3.org/2000/svg" xmlns:xlink="http://www.w3.org/1999/xlink" width="41.062" height="40.191" viewBox="0 0 41.062 40.191">
    <defs>
        <clipPath id="clip-path">
        <rect id="Rectangle_117" data-name="Rectangle 117" width="41.062" height="40.191" fill="#3d42df"/>
        </clipPath>
    </defs>
    <g id="Group_72" data-name="Group 72" clip-path="url(#clip-path)">
        <path id="Path_60" data-name="Path 60" d="M27.72,19.359c-1.18-1.888-3.957-3.121-7.225-3.794h-.018a31.414,31.414,0,0,0-6.3-.615c-.29,0-.581,0-.871.016C6.735,15.13,0,17.163,0,21.465,0,25.949,7.352,28,14.177,28c6.009,0,12.417-1.6,13.851-5.03a3.783,3.783,0,0,0,.309-1.507,3.873,3.873,0,0,0-.617-2.106m-13.542,4.1c-5.337,0-8.423-1.309-9.4-2,.908-.615,3.649-1.8,8.314-1.961.345-.016.708-.016,1.089-.016,5.319,0,8.4,1.305,9.385,1.977a10.475,10.475,0,0,1-3.485,1.345,24.33,24.33,0,0,1-5.9.654" transform="translate(0 12.189)" fill="#3d42df"/>
        <path id="Path_61" data-name="Path 61" d="M15.546,2.35A8.526,8.526,0,0,0,11.48,3.367a10.648,10.648,0,0,1,2.687,2.8,5.746,5.746,0,0,1,1.38-.182,5.055,5.055,0,0,1,0,10.109,2.438,2.438,0,0,1-.345-.016,10.5,10.5,0,0,1-2.033,3.3,8.018,8.018,0,0,0,2.378.343,8.685,8.685,0,0,0,0-17.371" transform="translate(9.36 1.916)" fill="#3d42df"/>
        <path id="Path_62" data-name="Path 62" d="M18.209,13.09c-3.9,0-8.005.8-10.329,2.469a29.921,29.921,0,0,1,8.677,1.216c.526-.034,1.071-.054,1.652-.054,5.3,0,8.223,1.507,8.641,2.178-.29.472-1.833,1.361-4.575,1.853a4.612,4.612,0,0,1,.545,2.231,4.854,4.854,0,0,1-.2,1.38c4.3-.69,7.878-2.467,7.878-5.464,0-3.994-6.372-5.809-12.29-5.809" transform="translate(6.425 10.672)" fill="#3d42df"/>
        <path id="Path_63" data-name="Path 63" d="M27.047,12.436a8.072,8.072,0,0,0-.109-.928A9.3,9.3,0,0,0,17.7,3.63h-.272a9.259,9.259,0,0,0-4.447,1.254.75.75,0,0,0-.2-.127l-.145-.091a10.1,10.1,0,0,0-3.7-1.289A12.907,12.907,0,0,1,17.7,0l.762.018A12.927,12.927,0,0,1,30.115,9.186a.764.764,0,0,1,.29-.038,3.386,3.386,0,0,1,0,6.773A3.338,3.338,0,0,1,27.083,13Z" transform="translate(7.281 -0.001)" fill="#3d42df"/>
        <path id="Path_64" data-name="Path 64" d="M20.609,6.577A9.958,9.958,0,0,0,17.94,3.943c-.182-.125-.363-.234-.563-.361a9.693,9.693,0,0,0-4.012-1.253,7.917,7.917,0,0,0-.926-.054,9.912,9.912,0,1,0,9.93,9.91,9.8,9.8,0,0,0-1.761-5.607m-4.7,9.73A5.378,5.378,0,1,1,12.44,6.813a5.2,5.2,0,0,1,1.979.4,5.3,5.3,0,0,1,.563.254,5.351,5.351,0,0,1,.926,8.841" transform="translate(2.046 1.855)" fill="#3d42df"/>
    </g>
</svg>
